<svg xmlns="http://www.w3.org/2000/svg" viewBox="0 0 640 400" fill="none" preserveAspectRatio="xMidYMin meet"><rect width="640" height="400" fill="#fbf6ea"/><rect width="640" height="106" fill="#5b1a2b"/><rect x="0" y="106" width="640" height="2" fill="#c5a572" opacity=".5"/><g transform="translate(22 22)" font-family="JetBrains Mono,monospace" font-size="7.5" letter-spacing="2"><rect width="14" height="1.5" rx=".5" fill="#c5a572"/><text x="20" y="4" fill="#c5a572">WIJNZINNIG! DASHBOARD</text><rect x="180" y="-6" width="80" height="14" rx="7" fill="rgba(52,211,153,.18)" stroke="rgba(52,211,153,.5)"/><circle cx="190" cy="1" r="2.5" fill="#34d399"/><text x="198" y="4" font-size="7" fill="#34d399" font-weight="700" letter-spacing=".5">LIVE VERBONDEN</text></g><g transform="translate(440 16)" font-family="Outfit,sans-serif" font-size="9.5" font-weight="500"><rect width="42" height="22" rx="11" fill="rgba(255,255,255,.08)" stroke="rgba(255,255,255,.18)"/><text x="21" y="14" fill="#fff" text-anchor="middle">Welkom</text><rect x="48" width="50" height="22" rx="11" fill="#7a3144" stroke="#c5a572"/><text x="64" y="14" fill="#fff" text-anchor="middle">Posts</text><circle cx="86" cy="6" r="6" fill="#c5a572"/><text x="86" y="9" font-family="JetBrains Mono,monospace" font-size="7" font-weight="700" fill="#5b1a2b" text-anchor="middle">9</text><rect x="104" width="52" height="22" rx="11" fill="rgba(255,255,255,.08)" stroke="rgba(255,255,255,.18)"/><text x="130" y="14" fill="#fff" text-anchor="middle">Kalender</text><rect x="162" width="66" height="22" rx="11" fill="rgba(255,255,255,.08)" stroke="rgba(255,255,255,.18)"/><text x="194" y="14" fill="#fff" text-anchor="middle">Mijn klanten</text><circle cx="218" cy="6" r="6.5" fill="#c5a572"/><text x="218" y="9" font-family="JetBrains Mono,monospace" font-size="7" font-weight="700" fill="#5b1a2b" text-anchor="middle">445</text></g><text x="22" y="74" font-family="Georgia,serif" font-style="italic" font-size="22" font-weight="700" fill="#fff">Jouw content &amp; klanten op één plek</text><g transform="translate(20 124)"><rect width="360" height="260" rx="10" fill="#fff" stroke="rgba(91,26,43,.1)"/><text x="20" y="24" font-family="Outfit,sans-serif" font-size="14" font-weight="700" fill="#5b1a2b">Posts</text><text x="20" y="38" font-family="Outfit,sans-serif" font-size="8" fill="#8d6b75">Per kanaal een eigen tekst schrijven, of laat AI er een opzetje voor maken.</text><g transform="translate(16 50)"><rect width="328" height="80" rx="8" fill="#fffceb" stroke="#fbbf24"/><text x="12" y="14" font-family="JetBrains Mono,monospace" font-size="6.5" font-weight="700" fill="#a16207" letter-spacing=".5">✨ AI-HELPER — TYPE EEN ONDERWERP OF IDEE</text><rect x="12" y="20" width="304" height="22" rx="4" fill="#fff" stroke="rgba(161,98,7,.2)"/><text x="18" y="33" font-family="Outfit,sans-serif" font-size="7" fill="#a8a29e">Bv. 'Nieuwe Sauvignon Blanc binnen, zomers fris...'</text><rect x="12" y="50" width="160" height="20" rx="4" fill="#a16207"/><text x="92" y="63" font-family="Outfit,sans-serif" font-size="8" font-weight="700" fill="#fff" text-anchor="middle">✨ Genereer post voor alle 3 kanalen</text></g><text x="20" y="148" font-family="JetBrains Mono,monospace" font-size="7" font-weight="700" fill="#5b1a2b">1. WELKE KANALEN?</text><g transform="translate(20 156)" font-family="Outfit,sans-serif" font-size="9" font-weight="600"><rect width="84" height="26" rx="5" fill="#fff" stroke="rgba(91,26,43,.14)"/><rect x="6" y="6" width="14" height="14" rx="3" fill="#0a66c2"/><text x="11" y="16" font-family="Outfit,sans-serif" font-size="9" font-weight="900" fill="#fff" text-anchor="middle">in</text><text x="26" y="17" fill="#0f172a">LinkedIn</text><rect x="92" width="86" height="26" rx="5" fill="#fff" stroke="rgba(91,26,43,.14)"/><rect x="98" y="6" width="14" height="14" rx="3" fill="#e1306c"/><text x="120" y="17" fill="#0f172a">Instagram</text><rect x="186" width="86" height="26" rx="5" fill="#fff" stroke="rgba(91,26,43,.14)"/><rect x="192" y="6" width="14" height="14" rx="3" fill="#1877f2"/><text x="208" y="17" font-family="Outfit,sans-serif" font-size="8.5" fill="#fff" font-weight="900">f</text><text x="220" y="17" fill="#0f172a">Facebook</text></g><text x="20" y="208" font-family="JetBrains Mono,monospace" font-size="7" font-weight="700" fill="#5b1a2b">2. TEKST PER KANAAL <tspan fill="#8d6b75" font-weight="400">— elk kanaal heeft eigen tekst</tspan></text><g transform="translate(20 216)" font-family="Outfit,sans-serif" font-size="9" font-weight="600"><rect width="56" height="20" rx="3" fill="#fff" stroke="#0a66c2" stroke-width="1.5"/><rect x="6" y="4" width="12" height="12" rx="2" fill="#0a66c2"/><text x="11" y="13" font-family="Outfit,sans-serif" font-size="8" font-weight="900" fill="#fff" text-anchor="middle">in</text><text x="24" y="13" fill="#0f172a">LinkedIn</text><rect x="62" width="58" height="20" rx="3" fill="rgba(225,48,108,.07)"/><text x="91" y="13" fill="#475569" text-anchor="middle">Instagram</text><rect x="126" width="58" height="20" rx="3" fill="rgba(24,119,242,.07)"/><text x="155" y="13" fill="#475569" text-anchor="middle">Facebook</text></g></g><g transform="translate(396 124)"><rect width="224" height="260" rx="10" fill="#fff" stroke="rgba(91,26,43,.1)"/><text x="14" y="22" font-family="Outfit,sans-serif" font-size="11" font-weight="700" fill="#5b1a2b">💡 Ideeën van de Content Machine</text><text x="14" y="36" font-family="Outfit,sans-serif" font-size="7" fill="#8d6b75">9 teksten die AI voor je heeft geschreven op basis</text><text x="14" y="46" font-family="Outfit,sans-serif" font-size="7" fill="#8d6b75">van RSS-bronnen. Klik <tspan font-weight="700" fill="#5b1a2b">Pak op</tspan> om te tweaken.</text><g transform="translate(14 56)"><rect width="196" height="92" rx="6" fill="#fbf6ea" stroke="rgba(91,26,43,.12)"/><rect x="10" y="10" width="58" height="14" rx="4" fill="#dbeafe"/><text x="39" y="20" font-family="JetBrains Mono,monospace" font-size="6.5" font-weight="700" fill="#1e40af" text-anchor="middle">Social_idea</text><rect x="72" y="10" width="38" height="14" rx="4" fill="#fef3c7"/><text x="91" y="20" font-family="JetBrains Mono,monospace" font-size="6.5" font-weight="600" fill="#a16207" text-anchor="middle">social</text><text x="186" y="20" font-family="JetBrains Mono,monospace" font-size="6.5" fill="#8d6b75" text-anchor="end">2026-05-24</text><text x="10" y="40" font-family="Outfit,sans-serif" font-size="9.5" font-weight="700" fill="#0f172a">🍷 duurzame wijn</text><text x="10" y="52" font-family="Outfit,sans-serif" font-size="7" fill="#475569">Wist je dat er wijnstokken bestaan die nog</text><text x="10" y="62" font-family="Outfit,sans-serif" font-size="7" fill="#475569">nooit opnieuw hoefden te beginnen? 🔄 Op</text><text x="10" y="72" font-family="Outfit,sans-serif" font-size="7" fill="#475569">Tenerife liep ik tussen druivenstokken die ouder...</text><rect x="10" y="78" width="120" height="10" rx="3" fill="#5b1a2b"/><text x="70" y="86" font-family="Outfit,sans-serif" font-size="6" font-weight="700" fill="#fff" text-anchor="middle">→ Pak deze tekst op</text><rect x="134" y="78" width="28" height="10" rx="3" fill="#fff" stroke="rgba(91,26,43,.2)"/><text x="148" y="86" font-family="Outfit,sans-serif" font-size="6" fill="#475569" text-anchor="middle">× Skip</text></g><g transform="translate(14 156)"><rect width="196" height="92" rx="6" fill="#fbf6ea" stroke="rgba(91,26,43,.12)"/><rect x="10" y="10" width="58" height="14" rx="4" fill="#dbeafe"/><text x="39" y="20" font-family="JetBrains Mono,monospace" font-size="6.5" font-weight="700" fill="#1e40af" text-anchor="middle">Social_idea</text><rect x="72" y="10" width="38" height="14" rx="4" fill="#fef3c7"/><text x="91" y="20" font-family="JetBrains Mono,monospace" font-size="6.5" font-weight="600" fill="#a16207" text-anchor="middle">social</text><text x="186" y="20" font-family="JetBrains Mono,monospace" font-size="6.5" fill="#8d6b75" text-anchor="end">2026-05-26</text><text x="10" y="40" font-family="Outfit,sans-serif" font-size="9.5" font-weight="700" fill="#0f172a">🍷 wijn cadeau</text><text x="10" y="52" font-family="Outfit,sans-serif" font-size="7" fill="#475569">Wist je dat de Romeinen pijpleidingen</text><text x="10" y="62" font-family="Outfit,sans-serif" font-size="7" fill="#475569">aanlegden om wijn naar het graf van een</text><text x="10" y="72" font-family="Outfit,sans-serif" font-size="7" fill="#475569">dierbare te laten stromen? 🍇 Ik las het laatst...</text><rect x="10" y="78" width="120" height="10" rx="3" fill="#5b1a2b"/><text x="70" y="86" font-family="Outfit,sans-serif" font-size="6" font-weight="700" fill="#fff" text-anchor="middle">→ Pak deze tekst op</text><rect x="134" y="78" width="28" height="10" rx="3" fill="#fff" stroke="rgba(91,26,43,.2)"/><text x="148" y="86" font-family="Outfit,sans-serif" font-size="6" fill="#475569" text-anchor="middle">× Skip</text></g></g></svg>
