<svg xmlns="http://www.w3.org/2000/svg" viewBox="0 0 640 400" fill="none" preserveAspectRatio="xMidYMin meet"><rect width="640" height="400" fill="#fafafa"/><rect width="640" height="32" fill="#0a0b0e"/><g transform="translate(10 8)"><rect width="16" height="16" rx="3" fill="#f97316"/><text x="8" y="13" font-family="Outfit,sans-serif" font-size="11" font-weight="900" fill="#fff" text-anchor="middle">f</text></g><text x="32" y="20" font-family="Outfit,sans-serif" font-size="8" font-weight="600" fill="#9ca3af">fietsen<tspan font-weight="700" fill="#f97316">catalogus.nl</tspan></text><text x="110" y="20" font-family="Outfit,sans-serif" font-size="10" font-weight="600" fill="#fff">Nieuwsbrief Dashboard</text><g transform="translate(580 6)"><rect width="50" height="20" rx="4" fill="#1f2937" stroke="rgba(255,255,255,.1)"/><text x="25" y="14" font-family="Outfit,sans-serif" font-size="8" font-weight="600" fill="#fff" text-anchor="middle">Marketing</text></g><g transform="translate(0 32)"><rect width="100" height="368" fill="#fafafa" stroke="rgba(10,11,14,.06)"/><g transform="translate(8 14)" font-family="Outfit,sans-serif" font-size="9" font-weight="600"><rect width="84" height="20" rx="4" fill="#fee2e2"/><rect x="6" y="6" width="9" height="9" rx="1.5" fill="#b91c1c"/><text x="20" y="14" fill="#b91c1c">Overzicht</text><g transform="translate(0 24)"><rect x="6" y="4" width="9" height="9" rx="1.5" fill="none" stroke="#475569" stroke-width="1.2"/><text x="20" y="12" fill="#475569">Keuzes</text></g><g transform="translate(0 42)"><rect x="6" y="4" width="9" height="9" rx="1.5" fill="none" stroke="#475569" stroke-width="1.2"/><text x="20" y="12" fill="#475569">Artikelen</text></g><g transform="translate(0 60)"><circle cx="10.5" cy="9" r="4" fill="none" stroke="#475569" stroke-width="1.2"/><text x="20" y="12" fill="#475569">Foto's</text></g></g><g transform="translate(8 124)" font-family="JetBrains Mono,monospace" font-size="6.5" font-weight="700"><text fill="#9ca3af" letter-spacing="1">MAAND</text><rect y="6" width="84" height="20" rx="4" fill="#fff" stroke="rgba(10,11,14,.12)"/><text x="6" y="19" font-family="Outfit,sans-serif" font-size="8" font-weight="500" fill="#0f172a">juni 2026 (huidig)</text><path d="M76 16 l3 3 l3 -3" stroke="#475569" stroke-width="1.2" fill="none"/></g></g><g transform="translate(108 42)" font-family="Outfit,sans-serif" font-size="8" font-weight="600"><rect width="42" height="22" rx="11" fill="#b91c1c"/><text x="13" y="14" fill="#fff">Alle</text><rect x="30" y="3" width="14" height="16" rx="8" fill="#7f1d1d" /><text x="36" y="14" font-family="JetBrains Mono,monospace" font-size="7" font-weight="700" fill="#fff" text-anchor="middle">28</text><g transform="translate(48 0)"><rect width="74" height="22" rx="11" fill="#fff" stroke="rgba(10,11,14,.12)"/><text x="14" y="14" fill="#475569">Wacht op keuze</text><rect x="62" y="3" width="22" height="16" rx="8" fill="#fef3c7"/><text x="73" y="14" font-family="JetBrains Mono,monospace" font-size="7" font-weight="700" fill="#a16207" text-anchor="middle">8/28</text></g><g transform="translate(132 0)"><rect width="72" height="22" rx="11" fill="#fff" stroke="rgba(10,11,14,.12)"/><text x="14" y="14" fill="#475569">Keuzes binnen</text><rect x="60" y="3" width="22" height="16" rx="8" fill="#dbeafe"/><text x="71" y="14" font-family="JetBrains Mono,monospace" font-size="7" font-weight="700" fill="#1e40af" text-anchor="middle">2/28</text></g><g transform="translate(214 0)"><rect width="76" height="22" rx="11" fill="#fff" stroke="rgba(10,11,14,.12)"/><text x="14" y="14" fill="#475569">Wacht op winkel</text><rect x="62" y="3" width="24" height="16" rx="8" fill="#fef3c7"/><text x="74" y="14" font-family="JetBrains Mono,monospace" font-size="7" font-weight="700" fill="#a16207" text-anchor="middle">10/28</text></g><g transform="translate(300 0)"><rect width="64" height="22" rx="11" fill="#fff" stroke="rgba(10,11,14,.12)"/><text x="14" y="14" fill="#475569">Verzonden</text><rect x="50" y="3" width="22" height="16" rx="8" fill="#d1fae5"/><text x="61" y="14" font-family="JetBrains Mono,monospace" font-size="7" font-weight="700" fill="#059669" text-anchor="middle">8/28</text></g><g transform="translate(374 0)"><rect width="64" height="22" rx="11" fill="#fff" stroke="rgba(10,11,14,.12)"/><text x="14" y="14" fill="#475569">Post maken</text><rect x="50" y="3" width="22" height="16" rx="8" fill="#fef3c7"/><text x="61" y="14" font-family="JetBrains Mono,monospace" font-size="7" font-weight="700" fill="#a16207" text-anchor="middle">6/28</text></g></g><g transform="translate(108 76)" font-family="Outfit,sans-serif"><g transform="translate(0 0)"><rect width="124" height="68" rx="6" fill="#fff" stroke="rgba(10,11,14,.08)"/><text x="8" y="14" font-size="9" font-weight="700" fill="#0f172a">Balk Rijwielen</text><text x="8" y="24" font-family="JetBrains Mono,monospace" font-size="6.5" fill="#9ca3af">W001</text><rect x="68" y="6" width="50" height="14" rx="7" fill="#fef3c7"/><text x="93" y="16" font-size="7" font-weight="600" fill="#a16207" text-anchor="middle">Wacht op keuze ▾</text><text x="8" y="50" font-size="6.5" fill="#9ca3af">— nog geen keuze</text></g><g transform="translate(132 0)"><rect width="124" height="68" rx="6" fill="#fff" stroke="rgba(10,11,14,.08)"/><text x="8" y="14" font-size="9" font-weight="700" fill="#0f172a">Bijl Tweewielercentrum</text><text x="8" y="24" font-family="JetBrains Mono,monospace" font-size="6.5" fill="#9ca3af">W002</text><rect x="78" y="6" width="40" height="14" rx="7" fill="#fef3c7"/><text x="98" y="16" font-size="7" font-weight="600" fill="#a16207" text-anchor="middle">Wacht winkel</text><text x="8" y="44" font-size="6.5" fill="#475569"><tspan font-weight="700">3</tspan> artikelen · Ontvangen <tspan font-weight="700">9 jun</tspan></text></g><g transform="translate(264 0)"><rect width="124" height="68" rx="6" fill="#fff" stroke="rgba(10,11,14,.08)"/><text x="8" y="14" font-size="9" font-weight="700" fill="#0f172a">Bike Action Alkmaar</text><text x="8" y="24" font-family="JetBrains Mono,monospace" font-size="6.5" fill="#9ca3af">W003</text><rect x="68" y="6" width="50" height="14" rx="7" fill="#fef3c7"/><text x="93" y="16" font-size="7" font-weight="600" fill="#a16207" text-anchor="middle">Wacht op keuze ▾</text><text x="8" y="50" font-size="6.5" fill="#9ca3af">— nog geen keuze</text></g><g transform="translate(396 0)"><rect width="124" height="68" rx="6" fill="#fff" stroke="rgba(10,11,14,.08)"/><text x="8" y="14" font-size="9" font-weight="700" fill="#0f172a">Bikeplanet Haarlem</text><text x="8" y="24" font-family="JetBrains Mono,monospace" font-size="6.5" fill="#9ca3af">W004</text><rect x="68" y="6" width="50" height="14" rx="7" fill="#fef3c7"/><text x="93" y="16" font-size="7" font-weight="600" fill="#a16207" text-anchor="middle">Wacht op keuze ▾</text><text x="8" y="50" font-size="6.5" fill="#9ca3af">— nog geen keuze</text></g><g transform="translate(0 76)"><rect width="124" height="68" rx="6" fill="#fff" stroke="rgba(10,11,14,.08)"/><text x="8" y="14" font-size="9" font-weight="700" fill="#0f172a">Bikestyle</text><text x="8" y="24" font-family="JetBrains Mono,monospace" font-size="6.5" fill="#9ca3af">W005</text><rect x="78" y="6" width="40" height="14" rx="7" fill="#fef3c7"/><text x="98" y="16" font-size="7" font-weight="600" fill="#a16207" text-anchor="middle">Wacht winkel</text><text x="8" y="44" font-size="6.5" fill="#475569"><tspan font-weight="700">3</tspan> artikelen · Ontvangen <tspan font-weight="700">11 jun</tspan></text></g><g transform="translate(132 76)"><rect width="124" height="68" rx="6" fill="#fff" stroke="rgba(10,11,14,.08)"/><text x="8" y="14" font-size="9" font-weight="700" fill="#0f172a">Bosstad Tweewielers</text><text x="8" y="24" font-family="JetBrains Mono,monospace" font-size="6.5" fill="#9ca3af">W006</text><rect x="68" y="6" width="50" height="14" rx="7" fill="#fef3c7"/><text x="93" y="16" font-size="7" font-weight="600" fill="#a16207" text-anchor="middle">Wacht op keuze ▾</text><text x="8" y="50" font-size="6.5" fill="#9ca3af">— nog geen keuze</text></g><g transform="translate(264 76)"><rect width="124" height="68" rx="6" fill="#fff" stroke="rgba(10,11,14,.08)"/><text x="8" y="14" font-size="9" font-weight="700" fill="#0f172a">DeBikeStore</text><text x="8" y="24" font-family="JetBrains Mono,monospace" font-size="6.5" fill="#9ca3af">W007</text><rect x="78" y="6" width="40" height="14" rx="7" fill="#d1fae5"/><text x="98" y="16" font-size="7" font-weight="600" fill="#059669" text-anchor="middle">Verzonden</text><text x="8" y="44" font-size="6.5" fill="#475569"><tspan font-weight="700">3</tspan> artikelen · Ontvangen <tspan font-weight="700">11 jun</tspan></text><rect x="8" y="52" width="9" height="9" rx="1.5" fill="none" stroke="#9ca3af" stroke-width="1"/><text x="22" y="60" font-size="6.5" fill="#475569">Post gemaakt</text></g><g transform="translate(396 76)"><rect width="124" height="68" rx="6" fill="#fff" stroke="rgba(10,11,14,.08)"/><text x="8" y="14" font-size="9" font-weight="700" fill="#0f172a">De Bruin fietsen</text><text x="8" y="24" font-family="JetBrains Mono,monospace" font-size="6.5" fill="#9ca3af">W008</text><rect x="78" y="6" width="40" height="14" rx="7" fill="#d1fae5"/><text x="98" y="16" font-size="7" font-weight="600" fill="#059669" text-anchor="middle">Verzonden</text><text x="8" y="44" font-size="6.5" fill="#475569"><tspan font-weight="700">2</tspan> artikelen · Ontvangen <tspan font-weight="700">11 jun</tspan></text><rect x="8" y="52" width="9" height="9" rx="1.5" fill="none" stroke="#9ca3af" stroke-width="1"/><text x="22" y="60" font-size="6.5" fill="#475569">Post gemaakt</text></g><g transform="translate(0 152)"><rect width="124" height="68" rx="6" fill="#fff" stroke="rgba(10,11,14,.08)"/><text x="8" y="14" font-size="9" font-weight="700" fill="#0f172a">De Lorijn Tweewielers</text><text x="8" y="24" font-family="JetBrains Mono,monospace" font-size="6.5" fill="#9ca3af">W009</text><rect x="68" y="6" width="50" height="14" rx="7" fill="#dbeafe"/><text x="93" y="16" font-size="7" font-weight="600" fill="#1e40af" text-anchor="middle">Wacht op Susanne</text><text x="8" y="44" font-size="6.5" fill="#475569"><tspan font-weight="700">3</tspan> artikelen · Ontvangen <tspan font-weight="700">9 jun</tspan></text></g><g transform="translate(132 152)"><rect width="124" height="68" rx="6" fill="#fff" stroke="rgba(10,11,14,.08)"/><text x="8" y="14" font-size="9" font-weight="700" fill="#0f172a">Fietsen Breda</text><text x="8" y="24" font-family="JetBrains Mono,monospace" font-size="6.5" fill="#9ca3af">W010</text><rect x="78" y="6" width="40" height="14" rx="7" fill="#d1fae5"/><text x="98" y="16" font-size="7" font-weight="600" fill="#059669" text-anchor="middle">Verzonden</text><text x="8" y="44" font-size="6.5" fill="#475569"><tspan font-weight="700">3</tspan> artikelen · Ontvangen <tspan font-weight="700">8 jun</tspan></text></g><g transform="translate(264 152)"><rect width="124" height="68" rx="6" fill="#fff" stroke="rgba(10,11,14,.08)"/><text x="8" y="14" font-size="9" font-weight="700" fill="#0f172a">Fietsen Koen De Pinte</text><text x="8" y="24" font-family="JetBrains Mono,monospace" font-size="6.5" fill="#9ca3af">W011</text><rect x="68" y="6" width="50" height="14" rx="7" fill="#dbeafe"/><text x="93" y="16" font-size="7" font-weight="600" fill="#1e40af" text-anchor="middle">Keuze ontvangen</text><text x="8" y="44" font-size="6.5" fill="#475569"><tspan font-weight="700">3</tspan> artikelen · Ontvangen <tspan font-weight="700">12 jun</tspan></text></g><g transform="translate(396 152)"><rect width="124" height="68" rx="6" fill="#fff" stroke="rgba(10,11,14,.08)"/><text x="8" y="14" font-size="9" font-weight="700" fill="#0f172a">Fietsen Markoen</text><text x="8" y="24" font-family="JetBrains Mono,monospace" font-size="6.5" fill="#9ca3af">W012</text><rect x="68" y="6" width="50" height="14" rx="7" fill="#fef3c7"/><text x="93" y="16" font-size="7" font-weight="600" fill="#a16207" text-anchor="middle">Wacht op keuze ▾</text><text x="8" y="50" font-size="6.5" fill="#9ca3af">— nog geen keuze</text></g><g transform="translate(0 228)"><rect width="124" height="68" rx="6" fill="#fff" stroke="rgba(10,11,14,.08)"/><text x="8" y="14" font-size="9" font-weight="700" fill="#0f172a">Fietsen van Freek</text><text x="8" y="24" font-family="JetBrains Mono,monospace" font-size="6.5" fill="#9ca3af">W013</text><rect x="78" y="6" width="40" height="14" rx="7" fill="#d1fae5"/><text x="98" y="16" font-size="7" font-weight="600" fill="#059669" text-anchor="middle">Verzonden</text><text x="8" y="44" font-size="6.5" fill="#475569"><tspan font-weight="700">3</tspan> artikelen · Ontvangen <tspan font-weight="700">12 jun</tspan></text><rect x="8" y="52" width="9" height="9" rx="1.5" fill="none" stroke="#9ca3af" stroke-width="1"/><text x="22" y="60" font-size="6.5" fill="#475569">Post gemaakt</text></g><g transform="translate(132 228)"><rect width="124" height="68" rx="6" fill="#fff" stroke="rgba(10,11,14,.08)"/><text x="8" y="14" font-size="9" font-weight="700" fill="#0f172a">Fietsshop Haren</text><text x="8" y="24" font-family="JetBrains Mono,monospace" font-size="6.5" fill="#9ca3af">W014</text><rect x="78" y="6" width="40" height="14" rx="7" fill="#fef3c7"/><text x="98" y="16" font-size="7" font-weight="600" fill="#a16207" text-anchor="middle">Wacht winkel</text><text x="8" y="44" font-size="6.5" fill="#475569"><tspan font-weight="700">3</tspan> artikelen · Ontvangen <tspan font-weight="700">10 jun</tspan></text></g><g transform="translate(264 228)"><rect width="124" height="68" rx="6" fill="#fff" stroke="rgba(10,11,14,.08)"/><text x="8" y="14" font-size="9" font-weight="700" fill="#0f172a">Fietsspeciaalzaak Roelofs</text><text x="8" y="24" font-family="JetBrains Mono,monospace" font-size="6.5" fill="#9ca3af">W015</text><rect x="68" y="6" width="50" height="14" rx="7" fill="#fef3c7"/><text x="93" y="16" font-size="7" font-weight="600" fill="#a16207" text-anchor="middle">Wacht op keuze ▾</text><text x="8" y="50" font-size="6.5" fill="#9ca3af">— nog geen keuze</text></g><g transform="translate(396 228)"><rect width="124" height="68" rx="6" fill="#fff" stroke="rgba(10,11,14,.08)"/><text x="8" y="14" font-size="9" font-weight="700" fill="#0f172a">Fietsweer</text><text x="8" y="24" font-family="JetBrains Mono,monospace" font-size="6.5" fill="#9ca3af">W016</text><rect x="78" y="6" width="40" height="14" rx="7" fill="#d1fae5"/><text x="98" y="16" font-size="7" font-weight="600" fill="#059669" text-anchor="middle">Verzonden</text><text x="8" y="44" font-size="6.5" fill="#475569"><tspan font-weight="700">3</tspan> artikelen · Ontvangen <tspan font-weight="700">8 jun</tspan></text><rect x="8" y="52" width="9" height="9" rx="1.5" fill="none" stroke="#9ca3af" stroke-width="1"/><text x="22" y="60" font-size="6.5" fill="#475569">Post gemaakt</text></g></g></svg>
