<svg xmlns="http://www.w3.org/2000/svg" viewBox="0 0 640 400" fill="none" preserveAspectRatio="xMidYMin meet"><rect width="640" height="400" fill="#fff"/><rect width="640" height="44" fill="#0a0b0e"/><rect x="14" y="14" width="16" height="16" rx="3" fill="#f97316"/><text x="22" y="26" font-family="Outfit,sans-serif" font-size="11" font-weight="800" fill="#fff" text-anchor="middle">F</text><text x="38" y="28" font-family="Outfit,sans-serif" font-size="12" font-weight="700" fill="#fff">fietsencatalogus.nl</text><text x="158" y="28" font-family="JetBrains Mono,monospace" font-size="9" fill="rgba(249,115,22,.85)">Nieuwsbrief Portaal</text><text x="422" y="28" font-family="Outfit,sans-serif" font-size="10" font-weight="500" fill="rgba(255,255,255,.92)">Editor</text><text x="466" y="28" font-family="Outfit,sans-serif" font-size="10" font-weight="500" fill="rgba(255,255,255,.65)">Merken</text><text x="516" y="28" font-family="Outfit,sans-serif" font-size="10" font-weight="500" fill="rgba(255,255,255,.65)">Subscribers</text><circle cx="606" cy="22" r="11" fill="#f97316"/><text x="606" y="26" font-family="Outfit,sans-serif" font-size="9" font-weight="700" fill="#fff" text-anchor="middle">AB</text><text x="24" y="72" font-family="Outfit,sans-serif" font-size="18" font-weight="700" fill="#0a0b0e">Nieuwsbrief #47 &middot; Nieuwe modellen 2027</text><text x="24" y="88" font-family="JetBrains Mono,monospace" font-size="10" fill="#6b7280">Concept &middot; klaar voor planning &middot; 12.418 ontvangers</text><g><rect x="24" y="102" width="148" height="62" rx="9" fill="#fafafa" stroke="rgba(10,11,14,.08)"/><text x="36" y="118" font-family="JetBrains Mono,monospace" font-size="8" font-weight="700" fill="#6b7280" letter-spacing="1.2">SUBSCRIBERS</text><text x="36" y="142" font-family="Outfit,sans-serif" font-size="22" font-weight="800" fill="#0a0b0e">12.4K</text><text x="36" y="156" font-family="JetBrains Mono,monospace" font-size="7" fill="#059669">&#x25B2; +284 wk</text><rect x="180" y="102" width="148" height="62" rx="9" fill="#fafafa" stroke="rgba(10,11,14,.08)"/><text x="192" y="118" font-family="JetBrains Mono,monospace" font-size="8" font-weight="700" fill="#6b7280" letter-spacing="1.2">OPEN RATE</text><text x="192" y="142" font-family="Outfit,sans-serif" font-size="22" font-weight="800" fill="#0a0b0e">38%</text><text x="192" y="156" font-family="JetBrains Mono,monospace" font-size="7" fill="#6b7280">benchmark 22%</text><rect x="336" y="102" width="148" height="62" rx="9" fill="#0a0b0e"/><text x="348" y="118" font-family="JetBrains Mono,monospace" font-size="8" font-weight="700" fill="rgba(249,115,22,.85)" letter-spacing="1.2">CTR</text><text x="348" y="142" font-family="Outfit,sans-serif" font-size="22" font-weight="800" fill="#fff">4.2%</text><text x="348" y="156" font-family="JetBrains Mono,monospace" font-size="7" fill="rgba(255,255,255,.6)">naar merksite</text><rect x="492" y="102" width="124" height="62" rx="9" fill="#fafafa" stroke="rgba(10,11,14,.08)"/><text x="504" y="118" font-family="JetBrains Mono,monospace" font-size="8" font-weight="700" fill="#6b7280" letter-spacing="1.2">MERKEN</text><text x="504" y="142" font-family="Outfit,sans-serif" font-size="22" font-weight="800" fill="#0a0b0e">38</text><text x="504" y="156" font-family="JetBrains Mono,monospace" font-size="7" fill="#6b7280">42 modellen wk</text></g><rect x="24" y="180" width="380" height="200" rx="9" fill="#fafafa" stroke="rgba(10,11,14,.08)"/><text x="36" y="200" font-family="Outfit,sans-serif" font-size="12" font-weight="700" fill="#0a0b0e">Nieuwsbrief preview</text><rect x="36" y="212" width="80" height="20" rx="4" fill="#f97316"/><text x="76" y="225" font-family="JetBrains Mono,monospace" font-size="8" font-weight="700" fill="#fff" text-anchor="middle">CONCEPT</text><rect x="36" y="240" width="356" height="56" rx="6" fill="#fff" stroke="rgba(10,11,14,.08)"/><text x="48" y="260" font-family="Outfit,sans-serif" font-size="11" font-weight="700" fill="#0a0b0e">5 modellen die je deze week moet zien</text><text x="48" y="275" font-family="Outfit,sans-serif" font-size="8" fill="#6b7280">Gazelle Ultimate C500, Sparta C-Grid, Cortina E-One,</text><text x="48" y="287" font-family="Outfit,sans-serif" font-size="8" fill="#6b7280">VanMoof S5 en Riese &amp; M&uuml;ller Charger 4. Click voor details.</text><g transform="translate(36 308)"><rect x="0" y="0" width="84" height="48" rx="6" fill="#fff" stroke="rgba(10,11,14,.08)"/><circle cx="14" cy="14" r="6" fill="#fef3c7"/><text x="14" y="17" font-family="Outfit,sans-serif" font-size="7" font-weight="700" fill="#a16207" text-anchor="middle">G</text><text x="26" y="14" font-family="Outfit,sans-serif" font-size="7" font-weight="600" fill="#0a0b0e">Gazelle</text><text x="26" y="24" font-family="JetBrains Mono,monospace" font-size="6" fill="#6b7280">Ultimate</text><rect x="6" y="30" width="72" height="3" rx="1" fill="#f97316"/><text x="6" y="44" font-family="JetBrains Mono,monospace" font-size="6" font-weight="700" fill="#0a0b0e">&euro;3.499</text><rect x="92" y="0" width="84" height="48" rx="6" fill="#fff" stroke="rgba(10,11,14,.08)"/><circle cx="106" cy="14" r="6" fill="#dbeafe"/><text x="106" y="17" font-family="Outfit,sans-serif" font-size="7" font-weight="700" fill="#1e40af" text-anchor="middle">S</text><text x="118" y="14" font-family="Outfit,sans-serif" font-size="7" font-weight="600" fill="#0a0b0e">Sparta</text><text x="118" y="24" font-family="JetBrains Mono,monospace" font-size="6" fill="#6b7280">C-Grid</text><rect x="98" y="30" width="72" height="3" rx="1" fill="#f97316"/><text x="98" y="44" font-family="JetBrains Mono,monospace" font-size="6" font-weight="700" fill="#0a0b0e">&euro;2.899</text><rect x="184" y="0" width="84" height="48" rx="6" fill="#fff" stroke="rgba(10,11,14,.08)"/><circle cx="198" cy="14" r="6" fill="#fee2e2"/><text x="198" y="17" font-family="Outfit,sans-serif" font-size="7" font-weight="700" fill="#b91c1c" text-anchor="middle">C</text><text x="210" y="14" font-family="Outfit,sans-serif" font-size="7" font-weight="600" fill="#0a0b0e">Cortina</text><text x="210" y="24" font-family="JetBrains Mono,monospace" font-size="6" fill="#6b7280">E-One</text><rect x="190" y="30" width="72" height="3" rx="1" fill="#f97316"/><text x="190" y="44" font-family="JetBrains Mono,monospace" font-size="6" font-weight="700" fill="#0a0b0e">&euro;1.999</text><rect x="276" y="0" width="84" height="48" rx="6" fill="#fff" stroke="rgba(10,11,14,.08)"/><circle cx="290" cy="14" r="6" fill="#d1fae5"/><text x="290" y="17" font-family="Outfit,sans-serif" font-size="7" font-weight="700" fill="#059669" text-anchor="middle">V</text><text x="302" y="14" font-family="Outfit,sans-serif" font-size="7" font-weight="600" fill="#0a0b0e">VanMoof</text><text x="302" y="24" font-family="JetBrains Mono,monospace" font-size="6" fill="#6b7280">S5</text><rect x="282" y="30" width="72" height="3" rx="1" fill="#f97316"/><text x="282" y="44" font-family="JetBrains Mono,monospace" font-size="6" font-weight="700" fill="#0a0b0e">&euro;3.199</text></g><rect x="412" y="180" width="204" height="200" rx="9" fill="#fafafa" stroke="rgba(10,11,14,.08)"/><text x="424" y="200" font-family="Outfit,sans-serif" font-size="12" font-weight="700" fill="#0a0b0e">AI Pipeline</text><text x="424" y="214" font-family="JetBrains Mono,monospace" font-size="8" fill="#6b7280">Vrijdag 10:00 verzonden</text><g><rect x="424" y="226" width="180" height="28" rx="6" fill="#fff" stroke="rgba(10,11,14,.08)"/><rect x="430" y="232" width="16" height="16" rx="4" fill="#d1fae5"/><path d="M434 240l2 2 4-4" stroke="#059669" stroke-width="1.5" stroke-linecap="round" fill="none"/><text x="452" y="240" font-family="Outfit,sans-serif" font-size="9" font-weight="600" fill="#0a0b0e">RSS scrapen 38 merken</text><text x="452" y="250" font-family="JetBrains Mono,monospace" font-size="7" fill="#6b7280">42 modellen gevonden</text></g><g><rect x="424" y="260" width="180" height="28" rx="6" fill="#fff" stroke="rgba(10,11,14,.08)"/><rect x="430" y="266" width="16" height="16" rx="4" fill="#d1fae5"/><path d="M434 274l2 2 4-4" stroke="#059669" stroke-width="1.5" stroke-linecap="round" fill="none"/><text x="452" y="274" font-family="Outfit,sans-serif" font-size="9" font-weight="600" fill="#0a0b0e">AI artikelen schrijven</text><text x="452" y="284" font-family="JetBrains Mono,monospace" font-size="7" fill="#6b7280">Claude &middot; 38 drafts</text></g><g><rect x="424" y="294" width="180" height="28" rx="6" fill="#fff" stroke="rgba(10,11,14,.08)"/><rect x="430" y="300" width="16" height="16" rx="4" fill="#fff7ed"/><circle cx="438" cy="308" r="3" fill="#f97316"/><text x="452" y="308" font-family="Outfit,sans-serif" font-size="9" font-weight="600" fill="#0a0b0e">Keuze nieuwsbrief</text><text x="452" y="318" font-family="JetBrains Mono,monospace" font-size="7" fill="#a16207">redacteur &middot; 5 picks</text></g><g><rect x="424" y="328" width="180" height="28" rx="6" fill="#fff" stroke="rgba(10,11,14,.08)"/><rect x="430" y="334" width="16" height="16" rx="4" fill="#fafafa"/><text x="438" y="345" font-family="Outfit,sans-serif" font-size="9" fill="#9ca3af" text-anchor="middle">&middot;</text><text x="452" y="342" font-family="Outfit,sans-serif" font-size="9" font-weight="600" fill="#0a0b0e">Brevo &middot; verzending</text><text x="452" y="352" font-family="JetBrainsCircular Mono,monospace" font-size="7" fill="#6b7280">12.418 ontvangers</text></g></svg>
