<svg xmlns="http://www.w3.org/2000/svg" viewBox="0 0 640 400" fill="none" preserveAspectRatio="xMidYMin meet"><rect width="640" height="400" fill="#f7f9fc"/><rect width="640" height="40" fill="#1d6b66"/><circle cx="22" cy="20" r="7" fill="#fff"/><text x="38" y="25" font-family="Outfit,sans-serif" font-size="12" font-weight="700" fill="#fff">DNA-talent</text><text x="116" y="25" font-family="JetBrains Mono,monospace" font-size="10" fill="rgba(255,255,255,.6)">Leadgen Dashboard</text><circle cx="416" cy="20" r="3" fill="#fff" opacity=".6"/><text x="426" y="24" font-family="Outfit,sans-serif" font-size="10" font-weight="500" fill="#fff">Overzicht</text><text x="486" y="24" font-family="Outfit,sans-serif" font-size="10" font-weight="500" fill="rgba(255,255,255,.65)">Leads</text><text x="528" y="24" font-family="Outfit,sans-serif" font-size="10" font-weight="500" fill="rgba(255,255,255,.65)">Berichten</text><text x="584" y="24" font-family="Outfit,sans-serif" font-size="10" font-weight="500" fill="rgba(255,255,255,.65)">Settings</text><text x="24" y="68" font-family="Outfit,sans-serif" font-size="18" font-weight="700" fill="#0a0b0e">AI Outreach voor coaches &amp; HR</text><text x="24" y="84" font-family="JetBrains Mono,monospace" font-size="10" fill="#6b7280">Brabant first &middot; week 47, 2026</text><g><rect x="24" y="98" width="142" height="68" rx="9" fill="#fff" stroke="rgba(10,11,14,.08)"/><text x="36" y="116" font-family="JetBrains Mono,monospace" font-size="8" font-weight="700" fill="#6b7280" letter-spacing="1.2">LEADS</text><text x="36" y="142" font-family="Outfit,sans-serif" font-size="24" font-weight="800" fill="#0a0b0e">689</text><text x="36" y="156" font-family="JetBrains Mono,monospace" font-size="7" fill="#1d6b66">&#x25B2; +18% wk</text><rect x="174" y="98" width="142" height="68" rx="9" fill="#fff" stroke="rgba(10,11,14,.08)"/><text x="186" y="116" font-family="JetBrains Mono,monospace" font-size="8" font-weight="700" fill="#6b7280" letter-spacing="1.2">VERSTUURD</text><text x="186" y="142" font-family="Outfit,sans-serif" font-size="24" font-weight="800" fill="#0a0b0e">293</text><text x="186" y="156" font-family="JetBrains Mono,monospace" font-size="7" fill="#6b7280">42.5% rate</text><rect x="324" y="98" width="142" height="68" rx="9" fill="#fff" stroke="rgba(10,11,14,.08)"/><text x="336" y="116" font-family="JetBrains Mono,monospace" font-size="8" font-weight="700" fill="#1d6b66" letter-spacing="1.2">REACTIES</text><text x="336" y="142" font-family="Outfit,sans-serif" font-size="24" font-weight="800" fill="#1d6b66">87</text><text x="336" y="156" font-family="JetBrains Mono,monospace" font-size="7" fill="#1d6b66">29.7% reply</text><rect x="474" y="98" width="142" height="68" rx="9" fill="#1d6b66"/><text x="486" y="116" font-family="JetBrains Mono,monospace" font-size="8" font-weight="700" fill="rgba(255,255,255,.7)" letter-spacing="1.2">FOLLOW-UP</text><text x="486" y="142" font-family="Outfit,sans-serif" font-size="24" font-weight="800" fill="#fff">61</text><text x="486" y="156" font-family="JetBrains Mono,monospace" font-size="7" fill="rgba(255,255,255,.65)">12 demo-klaar</text></g><rect x="24" y="180" width="380" height="200" rx="9" fill="#fff" stroke="rgba(10,11,14,.08)"/><text x="36" y="200" font-family="Outfit,sans-serif" font-size="12" font-weight="700" fill="#0a0b0e">Reacties per dag</text><text x="36" y="214" font-family="JetBrains Mono,monospace" font-size="8" fill="#6b7280">Laatste 14 dagen</text><defs><linearGradient id="ag" x1="0" y1="0" x2="0" y2="1"><stop offset="0%" stop-color="#1d6b66" stop-opacity=".35"/><stop offset="100%" stop-color="#1d6b66" stop-opacity="0"/></linearGradient></defs><g transform="translate(36 224)"><line x1="0" y1="0" x2="356" y2="0" stroke="rgba(10,11,14,.06)"/><line x1="0" y1="32" x2="356" y2="32" stroke="rgba(10,11,14,.06)"/><line x1="0" y1="64" x2="356" y2="64" stroke="rgba(10,11,14,.06)"/><line x1="0" y1="96" x2="356" y2="96" stroke="rgba(10,11,14,.06)"/><line x1="0" y1="128" x2="356" y2="128" stroke="rgba(10,11,14,.06)"/><path d="M0 110 L25 95 L50 100 L75 82 L100 88 L125 70 L150 76 L175 58 L200 64 L225 46 L250 50 L275 32 L300 38 L325 22 L350 28 L356 25 L356 128 L0 128 Z" fill="url(#ag)"/><path d="M0 110 L25 95 L50 100 L75 82 L100 88 L125 70 L150 76 L175 58 L200 64 L225 46 L250 50 L275 32 L300 38 L325 22 L350 28 L356 25" stroke="#1d6b66" stroke-width="1.6" fill="none" stroke-linecap="round" stroke-linejoin="round"/><circle cx="350" cy="28" r="3.5" fill="#fff" stroke="#1d6b66" stroke-width="1.6"/></g><rect x="412" y="180" width="206" height="200" rx="9" fill="#fff" stroke="rgba(10,11,14,.08)"/><text x="424" y="200" font-family="Outfit,sans-serif" font-size="12" font-weight="700" fill="#0a0b0e">Recente leads</text><g><circle cx="432" cy="226" r="10" fill="#d1fae5"/><text x="432" y="229" font-family="JetBrains Mono,monospace" font-size="7" font-weight="700" fill="#1d6b66" text-anchor="middle">LH</text><text x="450" y="225" font-family="Outfit,sans-serif" font-size="10" font-weight="600" fill="#0a0b0e">L. Hendriks</text><text x="450" y="236" font-family="JetBrains Mono,monospace" font-size="7" fill="#6b7280">Loopbaancoach</text><rect x="580" y="220" width="30" height="14" rx="4" fill="#d1fae5"/><text x="595" y="230" font-family="JetBrains Mono,monospace" font-size="7" font-weight="700" fill="#1d6b66" text-anchor="middle">FIT</text></g><g><circle cx="432" cy="254" r="10" fill="#fef3c7"/><text x="432" y="257" font-family="JetBrains Mono,monospace" font-size="7" font-weight="700" fill="#92400e" text-anchor="middle">RT</text><text x="450" y="253" font-family="Outfit,sans-serif" font-size="10" font-weight="600" fill="#0a0b0e">R. Tax</text><text x="450" y="264" font-family="JetBrains Mono,monospace" font-size="7" fill="#6b7280">HR-adviseur</text><rect x="580" y="248" width="30" height="14" rx="4" fill="#fef3c7"/><text x="595" y="258" font-family="JetBrains Mono,monospace" font-size="7" font-weight="700" fill="#92400e" text-anchor="middle">85</text></g><g><circle cx="432" cy="282" r="10" fill="#d1fae5"/><text x="432" y="285" font-family="JetBrains Mono,monospace" font-size="7" font-weight="700" fill="#1d6b66" text-anchor="middle">MV</text><text x="450" y="281" font-family="Outfit,sans-serif" font-size="10" font-weight="600" fill="#0a0b0e">M. Vermeer</text><text x="450" y="292" font-family="JetBrains Mono,monospace" font-size="7" fill="#6b7280">Life coach</text><rect x="580" y="276" width="30" height="14" rx="4" fill="#d1fae5"/><text x="595" y="286" font-family="JetBrains Mono,monospace" font-size="7" font-weight="700" fill="#1d6b66" text-anchor="middle">FIT</text></g><g><circle cx="432" cy="310" r="10" fill="#dbeafe"/><text x="432" y="313" font-family="JetBrains Mono,monospace" font-size="7" font-weight="700" fill="#1e40af" text-anchor="middle">JB</text><text x="450" y="309" font-family="Outfit,sans-serif" font-size="10" font-weight="600" fill="#0a0b0e">J. Berg</text><text x="450" y="320" font-family="JetBrains Mono,monospace" font-size="7" fill="#6b7280">HR-manager</text><rect x="580" y="304" width="30" height="14" rx="4" fill="#dbeafe"/><text x="595" y="314" font-family="JetBrains Mono,monospace" font-size="7" font-weight="700" fill="#1e40af" text-anchor="middle">NEW</text></g><g><circle cx="432" cy="338" r="10" fill="#d1fae5"/><text x="432" y="341" font-family="JetBrains Mono,monospace" font-size="7" font-weight="700" fill="#1d6b66" text-anchor="middle">SS</text><text x="450" y="337" font-family="Outfit,sans-serif" font-size="10" font-weight="600" fill="#0a0b0e">S. Smit</text><text x="450" y="348" font-family="JetBrains Mono,monospace" font-size="7" fill="#6b7280">Frustratiecoach</text><rect x="580" y="332" width="30" height="14" rx="4" fill="#d1fae5"/><text x="595" y="342" font-family="JetBrains Mono,monospace" font-size="7" font-weight="700" fill="#1d6b66" text-anchor="middle">FIT</text></g></svg>
