<svg xmlns="http://www.w3.org/2000/svg" viewBox="0 0 640 400" fill="none" preserveAspectRatio="xMidYMin meet"><rect width="640" height="400" fill="#fbf6f0"/><rect width="640" height="48" fill="#7c2d3a"/><circle cx="22" cy="24" r="9" fill="#fbf6f0"/><path d="M19 21l3 6 3-6h-6z" fill="#7c2d3a"/><text x="40" y="24" font-family="Georgia,serif" font-style="italic" font-size="16" font-weight="700" fill="#fff">Wijnzinnig!</text><text x="135" y="24" font-family="JetBrains Mono,monospace" font-size="9" fill="rgba(255,255,255,.65)">Content Machine</text><text x="135" y="36" font-family="Outfit,sans-serif" font-size="8" fill="rgba(255,255,255,.5)">Daan &middot; Nijnsel</text><text x="424" y="28" font-family="Outfit,sans-serif" font-size="10" font-weight="500" fill="rgba(255,255,255,.92)">Dashboard</text><text x="498" y="28" font-family="Outfit,sans-serif" font-size="10" font-weight="500" fill="rgba(255,255,255,.65)">Content</text><text x="554" y="28" font-family="Outfit,sans-serif" font-size="10" font-weight="500" fill="rgba(255,255,255,.65)">Leads</text><rect x="596" y="20" width="20" height="14" rx="3" fill="rgba(255,255,255,.18)"/><text x="606" y="29" font-family="JetBrains Mono,monospace" font-size="7" font-weight="700" fill="#fff" text-anchor="middle">v3</text><text x="24" y="76" font-family="Outfit,sans-serif" font-size="18" font-weight="700" fill="#7c2d3a">Content Machine + 3-segment Leadgen</text><text x="24" y="92" font-family="JetBrains Mono,monospace" font-size="10" fill="#8d6b75">B2C jachthavens &middot; Particulier &middot; Bedrijfsuitje</text><g><rect x="24" y="106" width="148" height="68" rx="9" fill="#fff" stroke="rgba(124,45,58,.14)"/><text x="36" y="124" font-family="JetBrains Mono,monospace" font-size="8" font-weight="700" fill="#8d6b75" letter-spacing="1.2">B2C JACHTHAVENS</text><text x="36" y="150" font-family="Outfit,sans-serif" font-size="22" font-weight="800" fill="#7c2d3a">214</text><text x="36" y="164" font-family="JetBrains Mono,monospace" font-size="7" fill="#a16207">&#x25B2; +12 deze week</text><rect x="180" y="106" width="148" height="68" rx="9" fill="#fff" stroke="rgba(124,45,58,.14)"/><text x="192" y="124" font-family="JetBrains Mono,monospace" font-size="8" font-weight="700" fill="#8d6b75" letter-spacing="1.2">PARTICULIEREN</text><text x="192" y="150" font-family="Outfit,sans-serif" font-size="22" font-weight="800" fill="#7c2d3a">1.488</text><text x="192" y="164" font-family="JetBrains Mono,monospace" font-size="7" fill="#7c2d3a">38.2% open rate</text><rect x="336" y="106" width="148" height="68" rx="9" fill="#7c2d3a"/><text x="348" y="124" font-family="JetBrains Mono,monospace" font-size="8" font-weight="700" fill="rgba(255,255,255,.65)" letter-spacing="1.2">BEDRIJVEN</text><text x="348" y="150" font-family="Outfit,sans-serif" font-size="22" font-weight="800" fill="#fff">96</text><text x="348" y="164" font-family="JetBrains Mono,monospace" font-size="7" fill="rgba(255,255,255,.7)">8 aanvragen kerst</text><rect x="492" y="106" width="124" height="68" rx="9" fill="#fff" stroke="rgba(124,45,58,.14)"/><text x="504" y="124" font-family="JetBrains Mono,monospace" font-size="8" font-weight="700" fill="#8d6b75" letter-spacing="1.2">CONTENT</text><text x="504" y="150" font-family="Outfit,sans-serif" font-size="22" font-weight="800" fill="#7c2d3a">42</text><text x="504" y="164" font-family="JetBrains Mono,monospace" font-size="7" fill="#7c2d3a">deze maand live</text></g><rect x="24" y="188" width="372" height="192" rx="9" fill="#fff" stroke="rgba(124,45,58,.14)"/><text x="36" y="208" font-family="Outfit,sans-serif" font-size="12" font-weight="700" fill="#7c2d3a">Content Kalender</text><text x="36" y="222" font-family="JetBrains Mono,monospace" font-size="8" fill="#8d6b75">November 2026 &middot; week 47</text><g transform="translate(36 234)"><g font-family="JetBrains Mono,monospace" font-size="7" fill="#8d6b75" font-weight="700"><text x="22" y="0" text-anchor="middle">M</text><text x="68" y="0" text-anchor="middle">D</text><text x="114" y="0" text-anchor="middle">W</text><text x="160" y="0" text-anchor="middle">D</text><text x="206" y="0" text-anchor="middle">V</text><text x="252" y="0" text-anchor="middle">Z</text><text x="298" y="0" text-anchor="middle">Z</text></g><g><rect x="6" y="8" width="32" height="36" rx="5" fill="#fef3f4"/><text x="22" y="22" font-family="Outfit,sans-serif" font-size="9" font-weight="700" fill="#7c2d3a" text-anchor="middle">18</text><rect x="10" y="28" width="24" height="6" rx="2" fill="#7c2d3a" opacity=".55"/><text x="22" y="40" font-family="JetBrains Mono,monospace" font-size="6" fill="#7c2d3a" text-anchor="middle">blog</text><rect x="52" y="8" width="32" height="36" rx="5" fill="#fef3f4"/><text x="68" y="22" font-family="Outfit,sans-serif" font-size="9" font-weight="700" fill="#7c2d3a" text-anchor="middle">19</text><rect x="98" y="8" width="32" height="36" rx="5" fill="#fff7ed"/><text x="114" y="22" font-family="Outfit,sans-serif" font-size="9" font-weight="700" fill="#a16207" text-anchor="middle">20</text><rect x="102" y="28" width="24" height="6" rx="2" fill="#a16207" opacity=".55"/><text x="114" y="40" font-family="JetBrains Mono,monospace" font-size="6" fill="#a16207" text-anchor="middle">mail</text><rect x="144" y="8" width="32" height="36" rx="5" fill="#fef3f4"/><text x="160" y="22" font-family="Outfit,sans-serif" font-size="9" font-weight="700" fill="#7c2d3a" text-anchor="middle">21</text><rect x="148" y="28" width="24" height="6" rx="2" fill="#7c2d3a" opacity=".55"/><text x="160" y="40" font-family="JetBrains Mono,monospace" font-size="6" fill="#7c2d3a" text-anchor="middle">blog</text><rect x="190" y="8" width="32" height="36" rx="5" fill="#ecfdf5"/><text x="206" y="22" font-family="Outfit,sans-serif" font-size="9" font-weight="700" fill="#059669" text-anchor="middle">22</text><rect x="194" y="28" width="24" height="6" rx="2" fill="#059669" opacity=".7"/><text x="206" y="40" font-family="JetBrains Mono,monospace" font-size="6" fill="#059669" text-anchor="middle">live</text><rect x="236" y="8" width="32" height="36" rx="5" fill="#fafafa"/><text x="252" y="22" font-family="Outfit,sans-serif" font-size="9" font-weight="700" fill="#94a3b8" text-anchor="middle">23</text><rect x="282" y="8" width="32" height="36" rx="5" fill="#fafafa"/><text x="298" y="22" font-family="Outfit,sans-serif" font-size="9" font-weight="700" fill="#94a3b8" text-anchor="middle">24</text></g><g transform="translate(0 56)"><rect x="6" y="0" width="32" height="36" rx="5" fill="#fff7ed"/><text x="22" y="14" font-family="Outfit,sans-serif" font-size="9" font-weight="700" fill="#a16207" text-anchor="middle">25</text><rect x="10" y="20" width="24" height="6" rx="2" fill="#a16207" opacity=".55"/><text x="22" y="32" font-family="JetBrains Mono,monospace" font-size="6" fill="#a16207" text-anchor="middle">mail</text><rect x="52" y="0" width="32" height="36" rx="5" fill="#fef3f4"/><text x="68" y="14" font-family="Outfit,sans-serif" font-size="9" font-weight="700" fill="#7c2d3a" text-anchor="middle">26</text><rect x="56" y="20" width="24" height="6" rx="2" fill="#7c2d3a" opacity=".55"/><text x="68" y="32" font-family="JetBrains Mono,monospace" font-size="6" fill="#7c2d3a" text-anchor="middle">blog</text><rect x="98" y="0" width="32" height="36" rx="5" fill="#fef3f4"/><text x="114" y="14" font-family="Outfit,sans-serif" font-size="9" font-weight="700" fill="#7c2d3a" text-anchor="middle">27</text><rect x="144" y="0" width="32" height="36" rx="5" fill="#fff7ed"/><text x="160" y="14" font-family="Outfit,sans-serif" font-size="9" font-weight="700" fill="#a16207" text-anchor="middle">28</text><rect x="190" y="0" width="32" height="36" rx="5" fill="#ecfdf5"/><text x="206" y="14" font-family="Outfit,sans-serif" font-size="9" font-weight="700" fill="#059669" text-anchor="middle">29</text><rect x="194" y="20" width="24" height="6" rx="2" fill="#059669" opacity=".7"/><text x="206" y="32" font-family="JetBrains Mono,monospace" font-size="6" fill="#059669" text-anchor="middle">live</text><rect x="236" y="0" width="32" height="36" rx="5" fill="#fafafa"/><text x="252" y="14" font-family="Outfit,sans-serif" font-size="9" font-weight="700" fill="#94a3b8" text-anchor="middle">30</text><rect x="282" y="0" width="32" height="36" rx="5" fill="#fafafa"/><text x="298" y="14" font-family="Outfit,sans-serif" font-size="9" font-weight="700" fill="#94a3b8" text-anchor="middle">1</text></g></g><rect x="404" y="188" width="212" height="192" rx="9" fill="#fff" stroke="rgba(124,45,58,.14)"/><text x="416" y="208" font-family="Outfit,sans-serif" font-size="12" font-weight="700" fill="#7c2d3a">Top performers</text><text x="416" y="222" font-family="JetBrains Mono,monospace" font-size="8" fill="#8d6b75">Per nieuwsbrief campagne</text><g><text x="416" y="244" font-family="Outfit,sans-serif" font-size="9" font-weight="600" fill="#0a0b0e">Kerstpakketten 2026</text><text x="416" y="256" font-family="JetBrains Mono,monospace" font-size="7" fill="#8d6b75">B2B &middot; 1.488 verzonden</text><rect x="416" y="262" width="184" height="5" rx="2.5" fill="#fef3f4"/><rect x="416" y="262" width="142" height="5" rx="2.5" fill="#7c2d3a"/><text x="600" y="266" font-family="JetBrains Mono,monospace" font-size="8" font-weight="700" fill="#7c2d3a" text-anchor="end">62%</text></g><g><text x="416" y="288" font-family="Outfit,sans-serif" font-size="9" font-weight="600" fill="#0a0b0e">Najaars-wijnreis</text><text x="416" y="300" font-family="JetBrains Mono,monospace" font-size="7" fill="#8d6b75">B2C &middot; 214 verzonden</text><rect x="416" y="306" width="184" height="5" rx="2.5" fill="#fff7ed"/><rect x="416" y="306" width="108" height="5" rx="2.5" fill="#a16207"/><text x="600" y="310" font-family="JetBrains Mono,monospace" font-size="8" font-weight="700" fill="#a16207" text-anchor="end">47%</text></g><g><text x="416" y="332" font-family="Outfit,sans-serif" font-size="9" font-weight="600" fill="#0a0b0e">Wijnproeverij oktober</text><text x="416" y="344" font-family="JetBrains Mono,monospace" font-size="7" fill="#8d6b75">B2C &middot; 96 verzonden</text><rect x="416" y="350" width="184" height="5" rx="2.5" fill="#ecfdf5"/><rect x="416" y="350" width="74" height="5" rx="2.5" fill="#059669"/><text x="600" y="354" font-family="JetBrains Mono,monospace" font-size="8" font-weight="700" fill="#059669" text-anchor="end">38%</text></g></svg>
