<svg xmlns="http://www.w3.org/2000/svg" viewBox="0 0 640 400" fill="none" preserveAspectRatio="xMidYMin meet"><rect width="640" height="400" fill="#fafaf6"/><rect width="640" height="40" fill="#0f172a"/><circle cx="22" cy="20" r="7" fill="#34d399"/><text x="38" y="25" font-family="Outfit,sans-serif" font-size="12" font-weight="700" fill="#fff">Smart ESG</text><text x="106" y="25" font-family="JetBrains Mono,monospace" font-size="10" fill="rgba(255,255,255,.55)">Outreach Dashboard</text><rect x="406" y="11" width="60" height="18" rx="9" fill="rgba(52,211,153,.2)"/><text x="436" y="23" font-family="JetBrains Mono,monospace" font-size="9" font-weight="700" fill="#34d399" text-anchor="middle">LIVE</text><text x="478" y="24" font-family="Outfit,sans-serif" font-size="10" font-weight="500" fill="rgba(255,255,255,.65)">Pipeline</text><text x="534" y="24" font-family="Outfit,sans-serif" font-size="10" font-weight="500" fill="rgba(255,255,255,.65)">Reports</text><circle cx="610" cy="20" r="10" fill="rgba(255,255,255,.08)"/><text x="610" y="24" font-family="Outfit,sans-serif" font-size="9" font-weight="700" fill="#fff" text-anchor="middle">TT</text><text x="24" y="68" font-family="Outfit,sans-serif" font-size="18" font-weight="700" fill="#0a0b0e">AI Leadgen voor MKB-maakindustrie</text><text x="24" y="84" font-family="JetBrains Mono,monospace" font-size="10" fill="#6b7280">Apollo + LinkedIn + Claude scoring &middot; vandaag</text><g><rect x="24" y="98" width="148" height="68" rx="9" fill="#fff" stroke="rgba(10,11,14,.08)"/><text x="36" y="116" font-family="JetBrains Mono,monospace" font-size="8" font-weight="700" fill="#6b7280" letter-spacing="1.2">LEADS</text><text x="36" y="142" font-family="Outfit,sans-serif" font-size="24" font-weight="800" fill="#0a0b0e">1.994</text><text x="36" y="156" font-family="JetBrains Mono,monospace" font-size="7" fill="#059669">&#x25B2; +312 vandaag</text><rect x="180" y="98" width="148" height="68" rx="9" fill="#fff" stroke="rgba(10,11,14,.08)"/><text x="192" y="116" font-family="JetBrains Mono,monospace" font-size="8" font-weight="700" fill="#6b7280" letter-spacing="1.2">VERZONDEN</text><text x="192" y="142" font-family="Outfit,sans-serif" font-size="24" font-weight="800" fill="#0a0b0e">1.224</text><text x="192" y="156" font-family="JetBrains Mono,monospace" font-size="7" fill="#6b7280">61.4% verstuurd</text><rect x="336" y="98" width="148" height="68" rx="9" fill="#fff" stroke="rgba(10,11,14,.08)"/><text x="348" y="116" font-family="JetBrains Mono,monospace" font-size="8" font-weight="700" fill="#0f172a" letter-spacing="1.2">GEACCEPTEERD</text><text x="348" y="142" font-family="Outfit,sans-serif" font-size="24" font-weight="800" fill="#0a0b0e">142</text><text x="348" y="156" font-family="JetBrains Mono,monospace" font-size="7" fill="#0f172a">11.6% accept rate</text><rect x="492" y="98" width="124" height="68" rx="9" fill="#0f172a"/><text x="504" y="116" font-family="JetBrains Mono,monospace" font-size="8" font-weight="700" fill="rgba(52,211,153,.85)" letter-spacing="1.2">GEBOEKT</text><text x="504" y="142" font-family="Outfit,sans-serif" font-size="24" font-weight="800" fill="#fff">18</text><text x="504" y="156" font-family="JetBrains Mono,monospace" font-size="7" fill="rgba(255,255,255,.6)">12.7% &rarr; demo</text></g><rect x="24" y="180" width="372" height="200" rx="9" fill="#fff" stroke="rgba(10,11,14,.08)"/><text x="36" y="200" font-family="Outfit,sans-serif" font-size="12" font-weight="700" fill="#0a0b0e">Outreach per dag</text><text x="36" y="214" font-family="JetBrains Mono,monospace" font-size="8" fill="#6b7280">Apollo &middot; LinkedIn &middot; deze maand</text><g transform="translate(36 226)"><line x1="0" y1="0" x2="348" y2="0" stroke="rgba(10,11,14,.06)"/><line x1="0" y1="34" x2="348" y2="34" stroke="rgba(10,11,14,.06)"/><line x1="0" y1="68" x2="348" y2="68" stroke="rgba(10,11,14,.06)"/><line x1="0" y1="102" x2="348" y2="102" stroke="rgba(10,11,14,.06)"/><line x1="0" y1="136" x2="348" y2="136" stroke="rgba(10,11,14,.06)"/><g><rect x="6" y="86" width="14" height="50" rx="2" fill="#0f172a"/><rect x="22" y="68" width="14" height="68" rx="2" fill="#34d399"/><rect x="44" y="92" width="14" height="44" rx="2" fill="#0f172a"/><rect x="60" y="60" width="14" height="76" rx="2" fill="#34d399"/><rect x="82" y="76" width="14" height="60" rx="2" fill="#0f172a"/><rect x="98" y="54" width="14" height="82" rx="2" fill="#34d399"/><rect x="120" y="70" width="14" height="66" rx="2" fill="#0f172a"/><rect x="136" y="48" width="14" height="88" rx="2" fill="#34d399"/><rect x="158" y="62" width="14" height="74" rx="2" fill="#0f172a"/><rect x="174" y="42" width="14" height="94" rx="2" fill="#34d399"/><rect x="196" y="58" width="14" height="78" rx="2" fill="#0f172a"/><rect x="212" y="36" width="14" height="100" rx="2" fill="#34d399"/><rect x="234" y="50" width="14" height="86" rx="2" fill="#0f172a"/><rect x="250" y="28" width="14" height="108" rx="2" fill="#34d399"/><rect x="272" y="44" width="14" height="92" rx="2" fill="#0f172a"/><rect x="288" y="22" width="14" height="114" rx="2" fill="#34d399"/><rect x="310" y="38" width="14" height="98" rx="2" fill="#0f172a"/><rect x="326" y="16" width="14" height="120" rx="2" fill="#34d399"/></g></g><rect x="404" y="180" width="212" height="200" rx="9" fill="#fff" stroke="rgba(10,11,14,.08)"/><text x="416" y="200" font-family="Outfit,sans-serif" font-size="12" font-weight="700" fill="#0a0b0e">Top scores (Claude)</text><g><rect x="416" y="216" width="188" height="28" rx="6" fill="#fafbfc"/><text x="422" y="234" font-family="JetBrains Mono,monospace" font-size="7" font-weight="700" fill="#6b7280">SECTOR</text><text x="422" y="234" font-family="Outfit,sans-serif" font-size="10" font-weight="600" fill="#0a0b0e" dy="0">&#9633;&#9633;</text><text x="450" y="226" font-family="Outfit,sans-serif" font-size="10" font-weight="600" fill="#0a0b0e">Maakindustrie NL</text><text x="450" y="237" font-family="JetBrains Mono,monospace" font-size="7" fill="#6b7280">50-200 fte &middot; DE-expansie</text><rect x="572" y="220" width="26" height="18" rx="4" fill="#34d399"/><text x="585" y="232" font-family="JetBrains Mono,monospace" font-size="9" font-weight="700" fill="#052e16" text-anchor="middle">94</text></g><g><rect x="416" y="252" width="188" height="28" rx="6" fill="#fafbfc"/><text x="450" y="262" font-family="Outfit,sans-serif" font-size="10" font-weight="600" fill="#0a0b0e">Metaalbewerking</text><text x="450" y="273" font-family="JetBrains Mono,monospace" font-size="7" fill="#6b7280">120 fte &middot; ESG-focus</text><rect x="572" y="256" width="26" height="18" rx="4" fill="#34d399"/><text x="585" y="268" font-family="JetBrains Mono,monospace" font-size="9" font-weight="700" fill="#052e16" text-anchor="middle">89</text></g><g><rect x="416" y="288" width="188" height="28" rx="6" fill="#fafbfc"/><text x="450" y="298" font-family="Outfit,sans-serif" font-size="10" font-weight="600" fill="#0a0b0e">Tech component</text><text x="450" y="309" font-family="JetBrains Mono,monospace" font-size="7" fill="#6b7280">75 fte &middot; vacatures actief</text><rect x="572" y="292" width="26" height="18" rx="4" fill="#f5a623"/><text x="585" y="304" font-family="JetBrains Mono,monospace" font-size="9" font-weight="700" fill="#3a2400" text-anchor="middle">82</text></g><g><rect x="416" y="324" width="188" height="28" rx="6" fill="#fafbfc"/><text x="450" y="334" font-family="Outfit,sans-serif" font-size="10" font-weight="600" fill="#0a0b0e">Voedingsmiddel</text><text x="450" y="345" font-family="JetBrains Mono,monospace" font-size="7" fill="#6b7280">200 fte &middot; sustainability</text><rect x="572" y="328" width="26" height="18" rx="4" fill="#f5a623"/><text x="585" y="340" font-family="JetBrains Mono,monospace" font-size="9" font-weight="700" fill="#3a2400" text-anchor="middle">76</text></g></svg>
