<svg xmlns="http://www.w3.org/2000/svg" viewBox="0 0 640 400" fill="none" preserveAspectRatio="xMidYMin meet"><rect width="640" height="400" fill="#faf6ef"/><g transform="translate(14 12)"><rect width="32" height="32" rx="8" fill="#1d6b4f"/><path d="M10 16 L14 20 L22 12" stroke="#fff" stroke-width="2" fill="none" stroke-linecap="round" stroke-linejoin="round"/><text x="40" y="14" font-family="Outfit,sans-serif" font-size="12" font-weight="800" fill="#0f172a">Smart ESG</text><text x="40" y="26" font-family="Outfit,sans-serif" font-size="8" fill="#6b7280">Outreach Dashboard</text></g><g transform="translate(176 16)"><rect width="58" height="24" rx="10" fill="#1d6b4f"/><text x="22" y="16" font-family="Outfit,sans-serif" font-size="9" font-weight="700" fill="#fff">Leads</text><rect x="29" y="6" width="22" height="12" rx="6" fill="#0e4a36"/><text x="40" y="15" font-family="JetBrains Mono,monospace" font-size="7" font-weight="700" fill="#fff" text-anchor="middle">1994</text></g><g transform="translate(244 16)"><rect width="64" height="24" rx="10" fill="#fff" stroke="rgba(10,11,14,.1)"/><text x="14" y="16" font-family="Outfit,sans-serif" font-size="9" font-weight="600" fill="#1f2937">Content</text><rect x="46" y="6" width="14" height="12" rx="6" fill="#fef3c7"/><text x="53" y="15" font-family="JetBrains Mono,monospace" font-size="7" font-weight="700" fill="#92400e" text-anchor="middle">11</text></g><g transform="translate(316 16)"><rect width="70" height="24" rx="10" fill="#fff" stroke="rgba(10,11,14,.1)"/><text x="12" y="16" font-family="Outfit,sans-serif" font-size="9" font-weight="600" fill="#1f2937">Downloads</text><rect x="55" y="6" width="12" height="12" rx="6" fill="#fed7aa"/><text x="61" y="15" font-family="JetBrains Mono,monospace" font-size="7" font-weight="700" fill="#9a3412" text-anchor="middle">1</text></g><g transform="translate(458 16)"><rect width="74" height="24" rx="6" fill="#fef3c7" stroke="#fbbf24"/><circle cx="9" cy="12" r="2.4" fill="#a16207"/><text x="16" y="16" font-family="JetBrains Mono,monospace" font-size="8" font-weight="700" fill="#a16207">35 te reviewen</text></g><g transform="translate(540 16)"><rect width="38" height="24" rx="6" fill="#fff" stroke="rgba(10,11,14,.1)"/><text x="19" y="16" font-family="Outfit,sans-serif" font-size="8" font-weight="500" fill="#475569" text-anchor="middle">Ververs</text></g><g transform="translate(584 16)"><rect width="42" height="24" rx="10" fill="#1d6b4f"/><circle cx="8" cy="12" r="2.4" fill="#34d399"/><text x="13" y="16" font-family="JetBrains Mono,monospace" font-size="8" font-weight="700" fill="#fff">1994</text></g><g transform="translate(14 58)"><text font-family="JetBrains Mono,monospace" font-size="6.5" font-weight="700" fill="#64748b" letter-spacing="1">LEADS</text><rect x="0" y="6" width="92" height="3" rx="1.5" fill="#e5e7eb"/><rect x="0" y="6" width="86" height="3" rx="1.5" fill="#1d6b4f"/><text y="28" font-family="Outfit,sans-serif" font-size="16" font-weight="800" fill="#0f172a">1994</text></g><g transform="translate(118 58)"><text font-family="JetBrains Mono,monospace" font-size="6.5" font-weight="700" fill="#64748b" letter-spacing="1">TER REVIEW</text><rect x="0" y="6" width="92" height="3" rx="1.5" fill="#e5e7eb"/><rect x="0" y="6" width="28" height="3" rx="1.5" fill="#1d6b4f"/><text y="28" font-family="Outfit,sans-serif" font-size="16" font-weight="800" fill="#0f172a">35</text></g><g transform="translate(222 58)"><text font-family="JetBrains Mono,monospace" font-size="6.5" font-weight="700" fill="#64748b" letter-spacing="1">VERZONDEN</text><rect x="0" y="6" width="92" height="3" rx="1.5" fill="#e5e7eb"/><rect x="0" y="6" width="65" height="3" rx="1.5" fill="#1d6b4f"/><text y="28" font-family="Outfit,sans-serif" font-size="16" font-weight="800" fill="#0f172a">1224</text></g><g transform="translate(326 58)"><text font-family="JetBrains Mono,monospace" font-size="6.5" font-weight="700" fill="#64748b" letter-spacing="1">GEACCEPTEERD</text><rect x="0" y="6" width="92" height="3" rx="1.5" fill="#e5e7eb"/><rect x="0" y="6" width="34" height="3" rx="1.5" fill="#1d6b4f"/><text y="28" font-family="Outfit,sans-serif" font-size="16" font-weight="800" fill="#0f172a">42</text></g><g transform="translate(430 58)"><text font-family="JetBrains Mono,monospace" font-size="6.5" font-weight="700" fill="#64748b" letter-spacing="1">FOLLOW-UP</text><rect x="0" y="6" width="92" height="3" rx="1.5" fill="#e5e7eb"/><rect x="0" y="6" width="42" height="3" rx="1.5" fill="#1d6b4f"/><text y="28" font-family="Outfit,sans-serif" font-size="16" font-weight="800" fill="#0f172a">179</text></g><g transform="translate(534 58)"><text font-family="JetBrains Mono,monospace" font-size="6.5" font-weight="700" fill="#64748b" letter-spacing="1">GEREAGEERD</text><rect x="0" y="6" width="92" height="3" rx="1.5" fill="#e5e7eb"/><rect x="0" y="6" width="22" height="3" rx="1.5" fill="#1d6b4f"/><text y="28" font-family="Outfit,sans-serif" font-size="16" font-weight="800" fill="#0f172a">38</text></g><g transform="translate(14 110)" font-family="JetBrains Mono,monospace" font-size="8"><rect width="28" height="18" rx="9" fill="#0f172a"/><text x="14" y="12" fill="#fff" text-anchor="middle" font-weight="700">Alle</text><rect x="34" width="34" height="18" rx="9" fill="#fff" stroke="rgba(10,11,14,.1)"/><circle cx="42" cy="9" r="2" fill="#f59e0b"/><text x="56" y="12" fill="#0f172a">Tom</text><rect x="74" width="34" height="18" rx="9" fill="#fff" stroke="rgba(10,11,14,.1)"/><circle cx="82" cy="9" r="2" fill="#3b82f6"/><text x="96" y="12" fill="#0f172a">Bas</text><rect x="116" width="64" height="18" rx="9" fill="#fef3c7" stroke="#fbbf24"/><text x="124" y="12" fill="#a16207" font-weight="700">⚠ Ter Review</text><rect x="170" y="3" width="14" height="12" rx="3" fill="#fbbf24"/><text x="177" y="12" fill="#fff" text-anchor="middle" font-weight="700">35</text><rect x="194" width="28" height="18" rx="9" fill="#1d6b4f"/><text x="208" y="12" fill="#fff" text-anchor="middle" font-weight="700">Alle</text><rect x="228" width="38" height="18" rx="9" fill="#fff" stroke="rgba(10,11,14,.1)"/><text x="247" y="12" fill="#475569" text-anchor="middle">Nieuw</text><rect x="272" width="46" height="18" rx="9" fill="#fff" stroke="rgba(10,11,14,.1)"/><text x="295" y="12" fill="#475569" text-anchor="middle">Verzenden</text><rect x="324" width="46" height="18" rx="9" fill="#fff" stroke="rgba(10,11,14,.1)"/><text x="347" y="12" fill="#475569" text-anchor="middle">Verzonden</text><rect x="376" width="52" height="18" rx="9" fill="#fff" stroke="rgba(10,11,14,.1)"/><text x="402" y="12" fill="#475569" text-anchor="middle">Geaccept.</text><rect x="434" width="48" height="18" rx="9" fill="#fff" stroke="rgba(10,11,14,.1)"/><text x="458" y="12" fill="#475569" text-anchor="middle">Follow-up</text><rect x="488" width="32" height="18" rx="9" fill="#fff" stroke="rgba(10,11,14,.1)"/><text x="504" y="12" fill="#475569" text-anchor="middle">Nudge</text><rect x="525" width="76" height="18" rx="9" fill="#fb923c"/><text x="563" y="12" fill="#fff" text-anchor="middle" font-weight="700">🚀 Pitch campagne</text></g><g transform="translate(14 140)"><rect width="612" height="246" rx="6" fill="#fffbeb"/><g transform="translate(8 6)" font-family="JetBrains Mono,monospace" font-size="6.5" fill="#64748b" font-weight="700" letter-spacing=".5"><text x="0" y="8">DATUM</text><text x="60" y="8">AFZ</text><text x="92" y="8">NAAM</text><text x="200" y="8">BEDRIJF</text><text x="296" y="8">FUNCTIE</text><text x="430" y="8">SECTOR</text><text x="486" y="8">SCORE</text><text x="514" y="8">HOOK</text><text x="572" y="8">STATUS</text></g><g font-family="Outfit,sans-serif" font-size="7" fill="#0f172a"><g transform="translate(8 24)"><text font-family="JetBrains Mono,monospace" font-size="6" fill="#475569">2026-05-08</text><rect x="58" y="-7" width="22" height="12" rx="6" fill="#3b82f6"/><text x="69" y="2" font-family="JetBrains Mono,monospace" font-size="6" font-weight="700" fill="#fff" text-anchor="middle">Bas</text><text x="92" y="2" font-weight="600">Vasagan Reddy</text><text x="200" y="2">Phoenix Metals</text><text x="296" y="2" fill="#475569">Director Mining &amp; Energy</text><text x="430" y="2" fill="#475569">chemicals</text><circle cx="496" cy="0" r="6" fill="#fef3c7"/><text x="496" y="2" font-family="JetBrains Mono,monospace" font-size="7" font-weight="800" fill="#a16207" text-anchor="middle">7</text><rect x="510" y="-6" width="50" height="11" rx="5" fill="#fef3c7"/><text x="535" y="2" font-family="Outfit,sans-serif" font-size="6.5" fill="#a16207" text-anchor="middle">Vacature</text><text x="572" y="2" fill="#3b82f6" font-weight="600">→ Follow-up</text></g><g transform="translate(8 44)"><text font-family="JetBrains Mono,monospace" font-size="6" fill="#475569">2026-05-07</text><rect x="58" y="-7" width="22" height="12" rx="6" fill="#3b82f6"/><text x="69" y="2" font-family="JetBrains Mono,monospace" font-size="6" font-weight="700" fill="#fff" text-anchor="middle">Bas</text><text x="92" y="2" font-weight="600">Sjef Van Breugel</text><text x="200" y="2">Pontis Engineering</text><text x="296" y="2" fill="#475569">CEO &amp; Founder</text><text x="430" y="2" fill="#475569">plastics</text><circle cx="496" cy="0" r="6" fill="#d1fae5"/><text x="496" y="2" font-family="JetBrains Mono,monospace" font-size="7" font-weight="800" fill="#059669" text-anchor="middle">8</text><rect x="510" y="-6" width="50" height="11" rx="5" fill="#fef3c7"/><text x="535" y="2" font-family="Outfit,sans-serif" font-size="6.5" fill="#a16207" text-anchor="middle">Vacature</text><text x="572" y="2" fill="#3b82f6" font-weight="600">→ Follow-up</text></g><g transform="translate(8 64)"><text font-family="JetBrains Mono,monospace" font-size="6" fill="#475569">2026-05-07</text><rect x="58" y="-7" width="22" height="12" rx="6" fill="#3b82f6"/><text x="69" y="2" font-family="JetBrains Mono,monospace" font-size="6" font-weight="700" fill="#fff" text-anchor="middle">Bas</text><text x="92" y="2" font-weight="600">Marnix Van Der Kleij</text><text x="200" y="2">E-magy</text><text x="296" y="2" fill="#475569">Hands-on executive / investor</text><text x="430" y="2" fill="#475569">nanotech.</text><circle cx="496" cy="0" r="6" fill="#d1fae5"/><text x="496" y="2" font-family="JetBrains Mono,monospace" font-size="7" font-weight="800" fill="#059669" text-anchor="middle">8</text><rect x="510" y="-6" width="50" height="11" rx="5" fill="#fef3c7"/><text x="535" y="2" font-family="Outfit,sans-serif" font-size="6.5" fill="#a16207" text-anchor="middle">Vacature</text><text x="572" y="2" fill="#3b82f6" font-weight="600">→ Follow-up</text></g><g transform="translate(8 84)"><text font-family="JetBrains Mono,monospace" font-size="6" fill="#475569">2026-05-07</text><rect x="58" y="-7" width="22" height="12" rx="6" fill="#3b82f6"/><text x="69" y="2" font-family="JetBrains Mono,monospace" font-size="6" font-weight="700" fill="#fff" text-anchor="middle">Bas</text><text x="92" y="2" font-weight="600">Marc Bejas</text><text x="200" y="2">Innatera</text><text x="296" y="2" fill="#475569">CFO | Structuring &amp; Scaling</text><text x="430" y="2" fill="#475569">semicond.</text><circle cx="496" cy="0" r="6" fill="#fef3c7"/><text x="496" y="2" font-family="JetBrains Mono,monospace" font-size="7" font-weight="800" fill="#a16207" text-anchor="middle">7</text><rect x="510" y="-6" width="50" height="11" rx="5" fill="#fef3c7"/><text x="535" y="2" font-family="Outfit,sans-serif" font-size="6.5" fill="#a16207" text-anchor="middle">Vacature</text><text x="572" y="2" fill="#3b82f6" font-weight="600">→ Follow-up</text></g><g transform="translate(8 104)"><text font-family="JetBrains Mono,monospace" font-size="6" fill="#475569">2026-05-07</text><rect x="58" y="-7" width="22" height="12" rx="6" fill="#3b82f6"/><text x="69" y="2" font-family="JetBrains Mono,monospace" font-size="6" font-weight="700" fill="#fff" text-anchor="middle">Bas</text><text x="92" y="2" font-weight="600">Dirk Tromp</text><text x="200" y="2">Tromp Medical BV</text><text x="296" y="2" fill="#475569">Field Sales Engineer bij LEMO</text><text x="430" y="2" fill="#475569">medical</text><circle cx="496" cy="0" r="6" fill="#fef3c7"/><text x="496" y="2" font-family="JetBrains Mono,monospace" font-size="7" font-weight="800" fill="#a16207" text-anchor="middle">7</text><rect x="510" y="-6" width="50" height="11" rx="5" fill="#fef3c7"/><text x="535" y="2" font-family="Outfit,sans-serif" font-size="6.5" fill="#a16207" text-anchor="middle">Vacature</text><text x="572" y="2" fill="#3b82f6" font-weight="600">→ Follow-up</text></g><g transform="translate(8 124)"><text font-family="JetBrains Mono,monospace" font-size="6" fill="#475569">2026-05-07</text><rect x="58" y="-7" width="22" height="12" rx="6" fill="#3b82f6"/><text x="69" y="2" font-family="JetBrains Mono,monospace" font-size="6" font-weight="700" fill="#fff" text-anchor="middle">Bas</text><text x="92" y="2" font-weight="600">Robin Horndt</text><text x="200" y="2">Vipack B.V.</text><text x="296" y="2" fill="#475569">Manager QHSE at Vipack</text><text x="430" y="2" fill="#475569">chemicals</text><circle cx="496" cy="0" r="6" fill="#fef3c7"/><text x="496" y="2" font-family="JetBrains Mono,monospace" font-size="7" font-weight="800" fill="#a16207" text-anchor="middle">7</text><rect x="510" y="-6" width="50" height="11" rx="5" fill="#fef3c7"/><text x="535" y="2" font-family="Outfit,sans-serif" font-size="6.5" fill="#a16207" text-anchor="middle">Vacature</text><text x="572" y="2" fill="#3b82f6" font-weight="600">→ Follow-up</text></g><g transform="translate(8 144)"><text font-family="JetBrains Mono,monospace" font-size="6" fill="#475569">2026-05-01</text><rect x="58" y="-7" width="22" height="12" rx="6" fill="#3b82f6"/><text x="69" y="2" font-family="JetBrains Mono,monospace" font-size="6" font-weight="700" fill="#fff" text-anchor="middle">Bas</text><text x="92" y="2" font-weight="600">Jasper Rijdt</text><text x="200" y="2">STC Solutions</text><text x="296" y="2" fill="#475569">Van Duijn de Jong Aubergines</text><text x="430" y="2" fill="#475569">machinery</text><circle cx="496" cy="0" r="6" fill="#fef3c7"/><text x="496" y="2" font-family="JetBrains Mono,monospace" font-size="7" font-weight="800" fill="#a16207" text-anchor="middle">7</text><rect x="510" y="-6" width="50" height="11" rx="5" fill="#fef3c7"/><text x="535" y="2" font-family="Outfit,sans-serif" font-size="6.5" fill="#a16207" text-anchor="middle">Vacature</text><text x="572" y="2" fill="#3b82f6" font-weight="600">→ Follow-up</text></g><g transform="translate(8 164)"><text font-family="JetBrains Mono,monospace" font-size="6" fill="#475569">2026-04-30</text><rect x="58" y="-7" width="22" height="12" rx="6" fill="#3b82f6"/><text x="69" y="2" font-family="JetBrains Mono,monospace" font-size="6" font-weight="700" fill="#fff" text-anchor="middle">Bas</text><text x="92" y="2" font-weight="600">Nur Ali</text><text x="200" y="2">Veramaris</text><text x="296" y="2" fill="#475569">Supply Chain Manager</text><text x="430" y="2" fill="#475569">research</text><circle cx="496" cy="0" r="6" fill="#fef3c7"/><text x="496" y="2" font-family="JetBrains Mono,monospace" font-size="7" font-weight="800" fill="#a16207" text-anchor="middle">7</text><rect x="510" y="-6" width="50" height="11" rx="5" fill="#fef3c7"/><text x="535" y="2" font-family="Outfit,sans-serif" font-size="6.5" fill="#a16207" text-anchor="middle">Vacature</text><text x="572" y="2" fill="#3b82f6" font-weight="600">→ Follow-up</text></g><g transform="translate(8 184)"><text font-family="JetBrains Mono,monospace" font-size="6" fill="#475569">2026-04-24</text><rect x="58" y="-7" width="22" height="12" rx="6" fill="#f59e0b"/><text x="69" y="2" font-family="JetBrains Mono,monospace" font-size="6" font-weight="700" fill="#fff" text-anchor="middle">Tom</text><text x="92" y="2" font-weight="600">Hans Huiberts</text><text x="200" y="2">XIVER</text><text x="296" y="2" fill="#475569">Director</text><text x="430" y="2" fill="#475569">semicond.</text><circle cx="496" cy="0" r="6" fill="#fed7aa"/><text x="496" y="2" font-family="JetBrains Mono,monospace" font-size="7" font-weight="800" fill="#9a3412" text-anchor="middle">6</text><rect x="510" y="-6" width="50" height="11" rx="5" fill="#fef3c7"/><text x="535" y="2" font-family="Outfit,sans-serif" font-size="6.5" fill="#a16207" text-anchor="middle">Vacature</text><text x="572" y="2" fill="#3b82f6" font-weight="600">→ Follow-up</text></g></g></g></svg>
