<svg id="Group_159" data-name="Group 159" xmlns="http://www.w3.org/2000/svg" xmlns:xlink="http://www.w3.org/1999/xlink" width="960.205" height="225.949" viewBox="0 0 960.205 225.949">
  <defs>
    <clipPath id="clip-path">
      <rect id="Rectangle_57" data-name="Rectangle 57" width="960.205" height="225.949" fill="none"/>
    </clipPath>
  </defs>
  <g id="Group_158" data-name="Group 158" clip-path="url(#clip-path)">
    <path id="Path_168" data-name="Path 168" d="M263.613,121.7A64.626,64.626,0,0,0,217.88,11.373a63.7,63.7,0,0,0-45.414,18.581L141.3,60.727l-30.9-30.32A64.625,64.625,0,0,0,0,76.073a64.653,64.653,0,0,0,53.792,63.681v-37.57L42.109,113.867l-7.662-7.746a42.625,42.625,0,1,1,60.661-59.9c29.031,28.453,72.551,71.074,77.8,76.12l.015.011.59.561a64.587,64.587,0,0,0,90.1-1.215M178.6,97.328,156.555,75.7l31.327-29.926a42.584,42.584,0,1,1,60.072,60.373,42.172,42.172,0,0,1-30.074,12.462,42.872,42.872,0,0,1-30.358-12.72Z" fill="#00d5ff"/>
    <rect id="Rectangle_55" data-name="Rectangle 55" width="22.8" height="148.397" transform="translate(349.212 2.201)" fill="#fff"/>
    <path id="Path_169" data-name="Path 169" d="M507.81,84.4v66.2h-23V90.8c0-16-9.6-25.8-25.6-25.8-17.6.2-28.6,12.4-30.2,29v56.6h-23V44.2h23V64.6c7.6-14.8,21.2-21.2,39.2-21.2,24.8,0,39.6,15.6,39.6,41" fill="#fff"/>
    <path id="Path_170" data-name="Path 170" d="M768.006,44.2V150.6h-23V129.8c-7.2,14.8-20.6,21.4-38,21.6-24.4,0-39-15.6-39-41V44.2h23V104c0,16,9.4,25.8,24.8,25.8,18.4-.4,29.2-14.6,29.2-33.2V44.2Z" fill="#fff"/>
    <path id="Path_171" data-name="Path 171" d="M826.807,13.8a13.4,13.4,0,1,1-26.8,0c0-8,5.8-13.8,13.4-13.8s13.4,5.8,13.4,13.8m-2,136.8h-22.8V44.2h22.8Z" fill="#fff"/>
    <path id="Path_172" data-name="Path 172" d="M960.205,2.2V150.6h-23V132.4c-7.6,12.4-20.4,19.2-37.4,19.2-30.6,0-51-22.2-51-54.6,0-32,20.6-53.8,50.6-53.8,17.2,0,30,7,37.8,19.4V2.2Zm-23,95.6c0-20.6-13.4-35-32.6-35s-32.6,14.6-32.8,35c.2,20.2,13.4,34.6,32.8,34.6,19.2,0,32.6-14.4,32.6-34.6" fill="#fff"/>
    <path id="Path_173" data-name="Path 173" d="M651.009,126.2c-4,2.2-7.4,3.4-10.6,3.4-6,0-9.8-3.8-9.8-12.4V38c0-24-14.4-36.4-43-36.6-29.4-.2-44.4,11.6-44.6,34.6V48.6h-14V65.8h14v84.8h22.8l.2-84.8h22.6V48.6h-22.6l-.2-13c0-9.6,6.8-14.6,20.4-14.4q21.6.3,21.6,18.6v79.8c0,20.4,11.6,31,26.4,31a41.037,41.037,0,0,0,20-5.6Z" fill="#fff"/>
    <path id="Path_174" data-name="Path 174" d="M349.212,200.827c0-8.537,6.2-14.519,14.736-14.519,4.839,0,8.918,1.9,11.2,5.656l-2.882,1.957a9.722,9.722,0,0,0-8.319-4.241c-6.254,0-10.822,4.459-10.822,11.147,0,6.743,4.568,11.147,10.822,11.147a9.674,9.674,0,0,0,8.319-4.187l2.882,1.958c-2.283,3.7-6.362,5.655-11.2,5.655-8.537,0-14.736-6.036-14.736-14.573" fill="#fff"/>
    <path id="Path_175" data-name="Path 175" d="M397.113,186.308v3.752c-.327,0-.653-.054-.926-.054-5.98,0-9.624,3.806-9.624,10.549v14.573H382.7v-28.6h3.7v5.6c1.794-3.806,5.437-5.818,10.713-5.818" fill="#fff"/>
    <path id="Path_176" data-name="Path 176" d="M428.7,202.023H404.776c.436,5.981,5,9.951,11.256,9.951a11.276,11.276,0,0,0,8.755-3.752l2.175,2.5a14.081,14.081,0,0,1-11.039,4.676c-8.917,0-15.007-6.09-15.007-14.573s5.926-14.518,13.975-14.518,13.866,5.927,13.866,14.518c0,.327-.055.762-.055,1.2m-23.926-2.882h20.282c-.489-5.6-4.567-9.516-10.167-9.516-5.548,0-9.625,3.915-10.115,9.516" fill="#fff"/>
    <path id="Path_177" data-name="Path 177" d="M457.407,197.4v17.726h-3.7v-4.459c-1.74,2.937-5.112,4.731-9.842,4.731-6.471,0-10.44-3.371-10.44-8.319,0-4.4,2.827-8.1,11.037-8.1h9.082v-1.74c0-4.9-2.773-7.559-8.1-7.559a14.566,14.566,0,0,0-9.516,3.372l-1.74-2.883a18.165,18.165,0,0,1,11.636-3.86c7.395,0,11.582,3.7,11.582,11.093m-3.86,9.135V201.86h-8.972c-5.547,0-7.341,2.176-7.341,5.112,0,3.317,2.664,5.383,7.231,5.383,4.351,0,7.559-2.066,9.082-5.818" fill="#fff"/>
    <path id="Path_178" data-name="Path 178" d="M482.961,213.388a9.2,9.2,0,0,1-6.037,2.012c-5.382,0-8.373-3.045-8.373-8.32V189.788h-5.112v-3.262h5.112v-6.253h3.86v6.253h8.7v3.262h-8.7v17.075c0,3.371,1.74,5.22,4.948,5.22a6.386,6.386,0,0,0,4.241-1.468Z" fill="#fff"/>
    <path id="Path_179" data-name="Path 179" d="M489.1,177.5a2.786,2.786,0,0,1,2.828-2.718,2.741,2.741,0,0,1,2.827,2.664,2.828,2.828,0,0,1-5.655.054m.87,9.027h3.86v28.6h-3.86Z" fill="#fff"/>
    <path id="Path_180" data-name="Path 180" d="M528.631,186.526l-12.725,28.6h-3.97l-12.669-28.6h4.023L514,210.887l10.821-24.361Z" fill="#fff"/>
    <path id="Path_181" data-name="Path 181" d="M558.153,202.023H534.228c.434,5.981,5,9.951,11.256,9.951a11.278,11.278,0,0,0,8.755-3.752l2.174,2.5a14.08,14.08,0,0,1-11.039,4.676c-8.917,0-15.007-6.09-15.007-14.573s5.927-14.518,13.974-14.518,13.866,5.927,13.866,14.518c0,.327-.054.762-.054,1.2m-23.925-2.882H554.51c-.49-5.6-4.567-9.516-10.169-9.516-5.546,0-9.624,3.915-10.113,9.516" fill="#fff"/>
    <path id="Path_182" data-name="Path 182" d="M606.432,174.781v40.347h-3.7v-5.655A12.389,12.389,0,0,1,591.7,215.4c-8.157,0-14.247-5.927-14.247-14.573s6.09-14.519,14.247-14.519a12.493,12.493,0,0,1,10.875,5.656V174.781Zm-3.806,26.046c0-6.688-4.567-11.147-10.6-11.147-6.09,0-10.658,4.459-10.658,11.147s4.568,11.147,10.658,11.147c6.036,0,10.6-4.459,10.6-11.147" fill="#fff"/>
    <path id="Path_183" data-name="Path 183" d="M616.323,177.5a2.786,2.786,0,0,1,2.827-2.718,2.742,2.742,0,0,1,2.828,2.664,2.828,2.828,0,0,1-5.655.054m.87,9.027h3.86v28.6h-3.86Z" fill="#fff"/>
    <path id="Path_184" data-name="Path 184" d="M658.3,186.526v25.122c0,9.842-4.839,14.3-14.3,14.3-5.22,0-10.332-1.577-13.322-4.4l1.957-2.936a17.025,17.025,0,0,0,11.256,3.915c7.232,0,10.549-3.317,10.549-10.386v-3.643c-2.392,3.643-6.47,5.546-11.147,5.546-8.156,0-14.355-5.709-14.355-13.92s6.2-13.812,14.355-13.812c4.786,0,8.917,1.958,11.31,5.71v-5.492Zm-3.752,13.594c0-6.2-4.567-10.44-10.875-10.44s-10.821,4.241-10.821,10.44,4.513,10.5,10.821,10.5,10.875-4.3,10.875-10.5" fill="#fff"/>
    <path id="Path_185" data-name="Path 185" d="M668.245,177.5a2.786,2.786,0,0,1,2.827-2.718,2.741,2.741,0,0,1,2.827,2.664,2.827,2.827,0,0,1-5.654.054m.87,9.027h3.86v28.6h-3.86Z" fill="#fff"/>
    <path id="Path_186" data-name="Path 186" d="M698.8,213.388a9.2,9.2,0,0,1-6.036,2.012c-5.383,0-8.373-3.045-8.373-8.32V189.788h-5.112v-3.262h5.112v-6.253h3.86v6.253h8.7v3.262h-8.7v17.075c0,3.371,1.74,5.22,4.949,5.22a6.387,6.387,0,0,0,4.241-1.468Z" fill="#fff"/>
    <path id="Path_187" data-name="Path 187" d="M727.4,197.4v17.726h-3.7v-4.459c-1.74,2.937-5.112,4.731-9.842,4.731-6.471,0-10.44-3.371-10.44-8.319,0-4.4,2.827-8.1,11.037-8.1h9.082v-1.74c0-4.9-2.773-7.559-8.1-7.559a14.566,14.566,0,0,0-9.516,3.372l-1.74-2.883a18.165,18.165,0,0,1,11.636-3.86c7.4,0,11.582,3.7,11.582,11.093m-3.86,9.135V201.86h-8.972c-5.547,0-7.341,2.176-7.341,5.112,0,3.317,2.664,5.383,7.231,5.383,4.351,0,7.559-2.066,9.082-5.818" fill="#fff"/>
    <rect id="Rectangle_56" data-name="Rectangle 56" width="3.861" height="40.347" transform="translate(737.89 174.781)" fill="#fff"/>
    <path id="Path_188" data-name="Path 188" d="M788.347,197.4v17.726h-3.7v-4.459c-1.74,2.937-5.111,4.731-9.843,4.731-6.47,0-10.44-3.371-10.44-8.319,0-4.4,2.827-8.1,11.039-8.1h9.081v-1.74c0-4.9-2.773-7.559-8.1-7.559a14.572,14.572,0,0,0-9.516,3.372l-1.74-2.883a18.165,18.165,0,0,1,11.636-3.86c7.4,0,11.583,3.7,11.583,11.093m-3.86,9.135V201.86h-8.973c-5.545,0-7.34,2.176-7.34,5.112,0,3.317,2.665,5.383,7.232,5.383,4.35,0,7.558-2.066,9.081-5.818" fill="#fff"/>
    <path id="Path_189" data-name="Path 189" d="M825.427,186.526v25.122c0,9.842-4.839,14.3-14.3,14.3-5.22,0-10.332-1.577-13.322-4.4l1.957-2.936a17.025,17.025,0,0,0,11.256,3.915c7.232,0,10.549-3.317,10.549-10.386v-3.643c-2.393,3.643-6.47,5.546-11.147,5.546-8.156,0-14.355-5.709-14.355-13.92s6.2-13.812,14.355-13.812c4.786,0,8.917,1.958,11.31,5.71v-5.492Zm-3.752,13.594c0-6.2-4.567-10.44-10.875-10.44s-10.821,4.241-10.821,10.44,4.513,10.5,10.821,10.5,10.875-4.3,10.875-10.5" fill="#fff"/>
    <path id="Path_190" data-name="Path 190" d="M861.147,202.023H837.221c.436,5.981,5,9.951,11.256,9.951a11.276,11.276,0,0,0,8.755-3.752l2.175,2.5a14.081,14.081,0,0,1-11.039,4.676c-8.917,0-15.007-6.09-15.007-14.573s5.926-14.518,13.975-14.518,13.866,5.927,13.866,14.518c0,.327-.055.762-.055,1.2m-23.926-2.882H857.5c-.489-5.6-4.567-9.516-10.167-9.516-5.548,0-9.625,3.915-10.115,9.516" fill="#fff"/>
    <path id="Path_191" data-name="Path 191" d="M895.4,198.543v16.585h-3.861V198.923c0-6.035-3.153-9.135-8.592-9.135-6.145,0-10.005,3.807-10.005,10.332v15.008h-3.861v-28.6h3.7V191.8c2.066-3.48,5.928-5.492,10.875-5.492,6.96,0,11.746,4.024,11.746,12.235" fill="#fff"/>
    <path id="Path_192" data-name="Path 192" d="M903.115,200.827c0-8.537,6.2-14.519,14.736-14.519,4.839,0,8.918,1.9,11.2,5.656l-2.882,1.957a9.722,9.722,0,0,0-8.319-4.241c-6.254,0-10.821,4.459-10.821,11.147,0,6.743,4.567,11.147,10.821,11.147a9.674,9.674,0,0,0,8.319-4.187l2.882,1.958c-2.283,3.7-6.362,5.655-11.2,5.655-8.537,0-14.736-6.036-14.736-14.573" fill="#fff"/>
    <path id="Path_193" data-name="Path 193" d="M960.205,186.526l-14.3,32.028c-2.393,5.6-5.439,7.4-9.516,7.4a9.789,9.789,0,0,1-6.961-2.61l1.8-2.882a7.139,7.139,0,0,0,5.22,2.175c2.556,0,4.3-1.2,5.927-4.785l1.25-2.773-12.779-28.548h4.025l10.766,24.306L956.4,186.526Z" fill="#fff"/>
  </g>
</svg>
