<?xml version="1.0" encoding="UTF-8"?><svg id="Laag_2" xmlns="http://www.w3.org/2000/svg" xmlns:xlink="http://www.w3.org/1999/xlink" viewBox="0 0 272.24 129.82"><defs><clipPath id="clippath"><path d="M114.33,2.88c-7.49,7.49-15.15,15.48-21.8,23.96-13.31,16.48-25.63,34.45-38.61,51.09l-1.5-.83c2.5-11.32,5.99-22.97,7.66-34.28.83-4.66-.17-5.66-3.49-7.82-3.66-2.33-4.49-2.33-7.49,1-13.15,14.64-29.12,46.6-38.61,65.9l-.33-1.83c5.99-33.28,11.24-45.31,21.89-76.43,2-5.66.5-7.16-4.49-7.65C14.4,42.12,0,80.6,0,111.89c0,4.66,3.66,5.99,6.82,7.32,3.16,1,4.16-.83,5.99-3.66,10.48-18.47,21.97-49.76,34.95-64.24-1.83,7.82-8.65,29.46-2.33,35.11,5.49,4.99,10.15,4.49,15.14-1,15.14-16.31,28.46-37.28,41.94-55.58,1-1.5,2.16-2.5,3.33-3.83,0,11.15-27.79,49.26-21.3,88.87,1.33,8.99,6.16,17.64,14.64,14.14-8.49-4.83-6.49-17.64-5.82-26.46,2.66-30.62,18.31-56.91,29.96-83.38,1.17-2.66,3.16-5.99,3.66-8.99.33-2,0-4.16-.83-5.66-1.91-3.09-3.92-4.55-6.09-4.55-1.79,0-3.69,1-5.73,2.88" fill="none"/></clipPath><linearGradient id="Naamloos_verloop_2" x1="-28.96" y1="194.82" x2="-27.96" y2="194.82" gradientTransform="translate(3680.54 24828.57) scale(127.11 -127.11)" gradientUnits="userSpaceOnUse"><stop offset="0" stop-color="#ee7674"/><stop offset="1" stop-color="#f6a200"/></linearGradient></defs><g id="Laag_1-2"><g clip-path="url(#clippath)"><rect width="127.31" height="132.52" fill="url(#Naamloos_verloop_2)"/></g><path d="M247.72,97.85c0,.98.8,1.78,1.78,1.78h7.65c.98,0,1.78-.8,1.78-1.78v-13.32c0-.98.4-2.47.88-3.32l12.22-21.34c.49-.85.09-1.54-.9-1.54h-9.54c-.98,0-2.15.71-2.61,1.58l-4.95,9.42c-.46.87-1.18.86-1.6-.03l-4.53-9.36c-.43-.89-1.57-1.6-2.55-1.6h-10.07c-.98,0-1.38.69-.89,1.54l12.43,21.35c.49.85.9,2.34.9,3.32v13.32ZM200.86,79.04c0-5.96,4.37-10.44,10.15-10.44s10.15,4.49,10.15,10.44-4.37,10.33-10.15,10.33-10.15-4.43-10.15-10.33M211.01,100.28c12.39,0,21.66-9.09,21.66-21.24s-9.26-21.36-21.66-21.36-21.66,9.15-21.66,21.36,9.26,21.24,21.66,21.24M157.72,97.85c0,.98.8,1.78,1.78,1.78h23.64c.98,0,1.78-.8,1.78-1.78v-7.18c0-.98-.8-1.78-1.78-1.78h-12.43c-.98,0-1.78-.8-1.78-1.78v-27.01c0-.98-.8-1.78-1.78-1.78h-7.65c-.98,0-1.78.8-1.78,1.78v37.75ZM130.1,75.79c-.55,0-1-.45-1-1v-3.95c0-.98.8-1.78,1.78-1.78h4.42c2.36,0,3.84,1.36,3.84,3.3.24,1.89-1.48,3.42-3.84,3.42h-5.2ZM117.89,97.85c0,.98.8,1.78,1.78,1.78h7.65c.98,0,1.78-.8,1.78-1.78v-9.54c0-.98.8-1.78,1.78-1.78h4.42c8.79,0,15.05-5.9,15.05-14.16.48-7.76-6.26-14.04-15.05-14.04h-15.63c-.98,0-1.78.8-1.78,1.78v37.75Z" fill="#fff"/><path d="M99.84,58.32c-.98,0-1.87.79-1.98,1.77l-1.67,14.99c-.11.98.6,1.77,1.58,1.77h4.35c.98,0,1.99-.77,2.24-1.72l4.04-15.09c.25-.95-.34-1.72-1.32-1.72h-7.24Z" fill="#e63026"/></g></svg>