<svg xmlns="http://www.w3.org/2000/svg" xmlns:xlink="http://www.w3.org/1999/xlink" width="1920" viewBox="0 0 1440 449.999984" height="600" preserveAspectRatio="xMidYMid meet"><defs><clipPath id="525b948ebc"><path d="M 113 373 L 117 373 L 117 404.675781 L 113 404.675781 Z M 113 373 " clip-rule="nonzero"></path></clipPath></defs><path fill="#d19f66" d="M 667.253906 306.746094 L 656.167969 306.746094 L 656.167969 334.582031 L 650.921875 334.582031 L 650.921875 306.746094 L 639.839844 306.746094 L 639.839844 302.238281 L 667.253906 302.238281 Z M 667.253906 306.746094 " fill-opacity="1" fill-rule="nonzero"></path><path fill="#d19f66" d="M 705.511719 330.074219 L 705.511719 334.582031 L 681.382812 334.582031 L 681.382812 302.238281 L 704.824219 302.238281 L 704.824219 306.746094 L 686.625 306.746094 L 686.625 316.054688 L 700.851562 316.054688 L 700.851562 320.46875 L 686.625 320.46875 L 686.625 330.074219 Z M 705.511719 330.074219 " fill-opacity="1" fill-rule="nonzero"></path><path fill="#d19f66" d="M 741.632812 332.722656 C 739.265625 334.289062 736.480469 335.070312 733.273438 335.070312 C 730.164062 335.070312 727.46875 334.402344 725.179688 333.0625 C 722.890625 331.722656 721.125 329.796875 719.882812 327.28125 C 718.640625 324.765625 718.019531 321.808594 718.019531 318.410156 C 718.019531 315.011719 718.640625 312.054688 719.882812 309.539062 C 721.125 307.023438 722.890625 305.097656 725.179688 303.753906 C 727.46875 302.417969 730.148438 301.746094 733.222656 301.746094 C 736.464844 301.746094 739.183594 302.417969 741.390625 303.753906 C 743.59375 305.097656 745.191406 307.070312 746.175781 309.683594 L 741.21875 311.894531 C 740.566406 309.964844 739.617188 308.550781 738.375 307.652344 C 737.128906 306.753906 735.515625 306.304688 733.519531 306.304688 C 730.476562 306.304688 728.046875 307.375 726.234375 309.515625 C 724.417969 311.65625 723.511719 314.621094 723.511719 318.410156 C 723.511719 322.234375 724.378906 325.207031 726.109375 327.328125 C 727.84375 329.453125 730.246094 330.515625 733.324219 330.515625 C 735.414062 330.515625 737.171875 329.996094 738.59375 328.945312 C 740.015625 327.898438 741.039062 326.367188 741.660156 324.339844 L 746.664062 326.003906 C 745.683594 328.914062 744.003906 331.152344 741.632812 332.722656 Z M 741.632812 332.722656 " fill-opacity="1" fill-rule="nonzero"></path><path fill="#d19f66" d="M 787.765625 302.238281 L 787.765625 334.582031 L 782.46875 334.582031 L 782.46875 320.46875 L 766.476562 320.46875 L 766.476562 334.582031 L 761.230469 334.582031 L 761.230469 302.238281 L 766.476562 302.238281 L 766.476562 315.957031 L 782.46875 315.957031 L 782.46875 302.238281 Z M 787.765625 302.238281 " fill-opacity="1" fill-rule="nonzero"></path><path fill="#d19f66" d="M 831.714844 334.582031 L 825.484375 334.582031 L 812.976562 314.195312 L 809.835938 308.214844 L 809.789062 308.214844 L 809.984375 313.707031 L 809.984375 334.582031 L 805.175781 334.582031 L 805.175781 302.238281 L 811.355469 302.238281 L 823.8125 322.578125 L 827.003906 328.605469 L 827.054688 328.605469 L 826.859375 323.113281 L 826.859375 302.238281 L 831.714844 302.238281 Z M 831.714844 334.582031 " fill-opacity="1" fill-rule="nonzero"></path><path fill="#d19f66" d="M 849.125 302.238281 L 854.371094 302.238281 L 854.371094 334.582031 L 849.125 334.582031 Z M 849.125 302.238281 " fill-opacity="1" fill-rule="nonzero"></path><path fill="#d19f66" d="M 893.636719 332.722656 C 891.261719 334.289062 888.476562 335.070312 885.273438 335.070312 C 882.164062 335.070312 879.464844 334.402344 877.179688 333.0625 C 874.890625 331.722656 873.121094 329.796875 871.882812 327.28125 C 870.640625 324.765625 870.015625 321.808594 870.015625 318.410156 C 870.015625 315.011719 870.640625 312.054688 871.882812 309.539062 C 873.121094 307.023438 874.890625 305.097656 877.179688 303.753906 C 879.464844 302.417969 882.148438 301.746094 885.222656 301.746094 C 888.460938 301.746094 891.183594 302.417969 893.386719 303.753906 C 895.597656 305.097656 897.191406 307.070312 898.171875 309.683594 L 893.21875 311.894531 C 892.5625 309.964844 891.617188 308.550781 890.371094 307.652344 C 889.128906 306.753906 887.511719 306.304688 885.515625 306.304688 C 882.476562 306.304688 880.046875 307.375 878.230469 309.515625 C 876.417969 311.65625 875.511719 314.621094 875.511719 318.410156 C 875.511719 322.234375 876.375 325.207031 878.109375 327.328125 C 879.84375 329.453125 882.246094 330.515625 885.320312 330.515625 C 887.410156 330.515625 889.171875 329.996094 890.59375 328.945312 C 892.015625 327.898438 893.039062 326.367188 893.65625 324.339844 L 898.660156 326.003906 C 897.679688 328.914062 896.003906 331.152344 893.636719 332.722656 Z M 893.636719 332.722656 " fill-opacity="1" fill-rule="nonzero"></path><path fill="#d19f66" d="M 929.953125 321.84375 L 926.226562 311.449219 L 924.757812 306.796875 L 924.609375 306.796875 L 923.234375 311.355469 L 919.40625 321.84375 Z M 931.523438 326.105469 L 917.890625 326.105469 L 914.796875 334.582031 L 909.402344 334.582031 L 921.617188 302.238281 L 927.894531 302.238281 L 940.109375 334.582031 L 934.5625 334.582031 Z M 931.523438 326.105469 " fill-opacity="1" fill-rule="nonzero"></path><path fill="#d19f66" d="M 976.792969 330.074219 L 976.792969 334.582031 L 953.691406 334.582031 L 953.691406 302.238281 L 958.9375 302.238281 L 958.9375 330.074219 Z M 976.792969 330.074219 " fill-opacity="1" fill-rule="nonzero"></path><path fill="#d19f66" d="M 1018.632812 317.28125 L 1026.1875 317.28125 C 1028.3125 317.28125 1029.898438 316.851562 1030.945312 315.984375 C 1031.992188 315.117188 1032.515625 313.789062 1032.515625 311.988281 C 1032.515625 310.195312 1031.992188 308.859375 1030.945312 307.996094 C 1029.898438 307.128906 1028.3125 306.699219 1026.1875 306.699219 L 1018.632812 306.699219 Z M 1025.597656 321.644531 L 1018.632812 321.644531 L 1018.632812 334.582031 L 1013.433594 334.582031 L 1013.433594 302.238281 L 1026.628906 302.238281 C 1030.128906 302.238281 1032.890625 303.09375 1034.917969 304.808594 C 1036.945312 306.527344 1037.960938 308.902344 1037.960938 311.941406 C 1037.960938 314.261719 1037.363281 316.199219 1036.167969 317.746094 C 1034.972656 319.300781 1033.28125 320.402344 1031.09375 321.054688 L 1039.871094 334.582031 L 1033.839844 334.582031 Z M 1025.597656 321.644531 " fill-opacity="1" fill-rule="nonzero"></path><path fill="#d19f66" d="M 1078.375 330.074219 L 1078.375 334.582031 L 1054.242188 334.582031 L 1054.242188 302.238281 L 1077.691406 302.238281 L 1077.691406 306.746094 L 1059.492188 306.746094 L 1059.492188 316.054688 L 1073.714844 316.054688 L 1073.714844 320.46875 L 1059.492188 320.46875 L 1059.492188 330.074219 Z M 1078.375 330.074219 " fill-opacity="1" fill-rule="nonzero"></path><path fill="#d19f66" d="M 1114.5 332.722656 C 1112.128906 334.289062 1109.339844 335.070312 1106.136719 335.070312 C 1103.03125 335.070312 1100.332031 334.402344 1098.042969 333.0625 C 1095.753906 331.722656 1093.988281 329.796875 1092.746094 327.28125 C 1091.503906 324.765625 1090.882812 321.808594 1090.882812 318.410156 C 1090.882812 315.011719 1091.503906 312.054688 1092.746094 309.539062 C 1093.988281 307.023438 1095.753906 305.097656 1098.042969 303.753906 C 1100.332031 302.417969 1103.015625 301.746094 1106.085938 301.746094 C 1109.324219 301.746094 1112.046875 302.417969 1114.253906 303.753906 C 1116.460938 305.097656 1118.054688 307.070312 1119.039062 309.683594 L 1114.082031 311.894531 C 1113.429688 309.964844 1112.480469 308.550781 1111.238281 307.652344 C 1109.992188 306.753906 1108.375 306.304688 1106.382812 306.304688 C 1103.339844 306.304688 1100.914062 307.375 1099.097656 309.515625 C 1097.285156 311.65625 1096.375 314.621094 1096.375 318.410156 C 1096.375 322.234375 1097.242188 325.207031 1098.976562 327.328125 C 1100.710938 329.453125 1103.109375 330.515625 1106.1875 330.515625 C 1108.277344 330.515625 1110.035156 329.996094 1111.457031 328.945312 C 1112.878906 327.898438 1113.902344 326.367188 1114.523438 324.339844 L 1119.527344 326.003906 C 1118.542969 328.914062 1116.867188 331.152344 1114.5 332.722656 Z M 1114.5 332.722656 " fill-opacity="1" fill-rule="nonzero"></path><path fill="#d19f66" d="M 1139.292969 317.28125 L 1146.847656 317.28125 C 1148.972656 317.28125 1150.558594 316.851562 1151.601562 315.984375 C 1152.652344 315.117188 1153.175781 313.789062 1153.175781 311.988281 C 1153.175781 310.195312 1152.652344 308.859375 1151.601562 307.996094 C 1150.558594 307.128906 1148.972656 306.699219 1146.847656 306.699219 L 1139.292969 306.699219 Z M 1146.257812 321.644531 L 1139.292969 321.644531 L 1139.292969 334.582031 L 1134.09375 334.582031 L 1134.09375 302.238281 L 1147.289062 302.238281 C 1150.785156 302.238281 1153.550781 303.09375 1155.578125 304.808594 C 1157.605469 306.527344 1158.617188 308.902344 1158.617188 311.941406 C 1158.617188 314.261719 1158.023438 316.199219 1156.828125 317.746094 C 1155.632812 319.300781 1153.941406 320.402344 1151.75 321.054688 L 1160.53125 334.582031 L 1154.496094 334.582031 Z M 1146.257812 321.644531 " fill-opacity="1" fill-rule="nonzero"></path><path fill="#d19f66" d="M 1200.945312 322.183594 C 1200.945312 326.429688 1199.816406 329.640625 1197.5625 331.8125 C 1195.304688 333.988281 1192.019531 335.070312 1187.703125 335.070312 C 1183.386719 335.070312 1180.097656 333.988281 1177.84375 331.8125 C 1175.585938 329.640625 1174.460938 326.429688 1174.460938 322.183594 L 1174.460938 302.238281 L 1179.757812 302.238281 L 1179.757812 321.542969 C 1179.757812 324.617188 1180.402344 326.882812 1181.691406 328.332031 C 1182.984375 329.789062 1184.984375 330.515625 1187.703125 330.515625 C 1190.414062 330.515625 1192.417969 329.789062 1193.710938 328.332031 C 1195 326.882812 1195.648438 324.617188 1195.648438 321.542969 L 1195.648438 302.238281 L 1200.945312 302.238281 Z M 1200.945312 322.183594 " fill-opacity="1" fill-rule="nonzero"></path><path fill="#d19f66" d="M 1217.964844 302.238281 L 1223.210938 302.238281 L 1223.210938 334.582031 L 1217.964844 334.582031 Z M 1217.964844 302.238281 " fill-opacity="1" fill-rule="nonzero"></path><path fill="#d19f66" d="M 1264.757812 306.746094 L 1253.667969 306.746094 L 1253.667969 334.582031 L 1248.421875 334.582031 L 1248.421875 306.746094 L 1237.335938 306.746094 L 1237.335938 302.238281 L 1264.757812 302.238281 Z M 1264.757812 306.746094 " fill-opacity="1" fill-rule="nonzero"></path><path fill="#d19f66" d="M 1311.988281 334.582031 L 1307.179688 334.582031 L 1307.179688 315.859375 L 1307.527344 306.941406 L 1307.476562 306.941406 L 1297.621094 334.582031 L 1293.253906 334.582031 L 1283.394531 306.941406 L 1283.34375 306.941406 L 1283.738281 315.859375 L 1283.738281 334.582031 L 1278.878906 334.582031 L 1278.878906 302.238281 L 1286.679688 302.238281 L 1293.203125 320.957031 L 1295.460938 328.652344 L 1295.558594 328.652344 L 1297.863281 320.957031 L 1304.335938 302.238281 L 1311.988281 302.238281 Z M 1311.988281 334.582031 " fill-opacity="1" fill-rule="nonzero"></path><path fill="#d19f66" d="M 1353.582031 330.074219 L 1353.582031 334.582031 L 1329.449219 334.582031 L 1329.449219 302.238281 L 1352.898438 302.238281 L 1352.898438 306.746094 L 1334.699219 306.746094 L 1334.699219 316.054688 L 1348.921875 316.054688 L 1348.921875 320.46875 L 1334.699219 320.46875 L 1334.699219 330.074219 Z M 1353.582031 330.074219 " fill-opacity="1" fill-rule="nonzero"></path><path fill="#d19f66" d="M 1395.027344 334.582031 L 1388.800781 334.582031 L 1376.292969 314.195312 L 1373.152344 308.214844 L 1373.105469 308.214844 L 1373.300781 313.707031 L 1373.300781 334.582031 L 1368.492188 334.582031 L 1368.492188 302.238281 L 1374.671875 302.238281 L 1387.132812 322.578125 L 1390.320312 328.605469 L 1390.371094 328.605469 L 1390.171875 323.113281 L 1390.171875 302.238281 L 1395.027344 302.238281 Z M 1395.027344 334.582031 " fill-opacity="1" fill-rule="nonzero"></path><path fill="#d19f66" d="M 1436.523438 306.746094 L 1425.433594 306.746094 L 1425.433594 334.582031 L 1420.1875 334.582031 L 1420.1875 306.746094 L 1409.105469 306.746094 L 1409.105469 302.238281 L 1436.523438 302.238281 Z M 1436.523438 306.746094 " fill-opacity="1" fill-rule="nonzero"></path><path fill="#d19f66" d="M 482.699219 307.023438 L 505.113281 315.84375 L 482.601562 324.765625 L 482.640625 321.453125 Z M 469.992188 289.019531 L 469.992188 342.785156 L 538.304688 315.894531 Z M 469.992188 289.019531 " fill-opacity="1" fill-rule="nonzero"></path><path fill="#ffffff" d="M 507.5625 118.671875 L 536.628906 118.671875 L 540.949219 142.675781 L 551.460938 142.675781 L 549.960938 109.289062 L 447.464844 109.289062 L 445.964844 142.675781 L 456.476562 142.675781 L 460.796875 118.671875 L 489.863281 118.671875 C 490.195312 134.917969 490.265625 151.230469 490.265625 167.433594 L 490.265625 176.8125 C 490.265625 193.234375 490.195312 209.445312 489.867188 225.386719 L 470.554688 227.453125 L 470.554688 234.957031 L 526.871094 234.957031 L 526.871094 227.453125 L 507.5625 225.386719 C 507.234375 209.203125 507.160156 192.953125 507.160156 176.8125 L 507.160156 167.433594 C 507.160156 150.949219 507.234375 134.671875 507.5625 118.671875 Z M 507.5625 118.671875 " fill-opacity="1" fill-rule="nonzero"></path><path fill="#ffffff" d="M 592.566406 152.058594 C 604.390625 152.058594 613.398438 161.808594 613.398438 172.5 C 613.398438 177.753906 611.335938 182.066406 602.324219 182.066406 L 567.035156 182.066406 C 569.234375 160.449219 581.65625 152.058594 592.566406 152.058594 Z M 597.445312 225.578125 C 578.925781 225.578125 567.007812 213.144531 566.691406 189.941406 L 626.917969 189.941406 C 627.664062 187.503906 628.234375 183.753906 628.234375 179.4375 C 628.234375 156.746094 612.835938 143.613281 593.503906 143.613281 C 570.226562 143.613281 550.703125 162.75 550.703125 191.441406 C 550.703125 219.949219 567.035156 237.394531 592.191406 237.394531 C 609.273438 237.394531 621.285156 228.953125 628.042969 215.636719 L 623.726562 212.261719 C 616.96875 220.136719 609.460938 225.578125 597.445312 225.578125 Z M 597.445312 225.578125 " fill-opacity="1" fill-rule="nonzero"></path><path fill="#ffffff" d="M 701.3125 159.292969 C 698.828125 161.527344 697.234375 164.730469 697.234375 168.332031 C 697.234375 175.070312 702.699219 180.53125 709.441406 180.53125 C 716.183594 180.53125 721.652344 175.070312 721.652344 168.332031 C 721.652344 168.234375 721.625 168.144531 721.621094 168.046875 C 721.640625 167.957031 721.683594 167.898438 721.703125 167.808594 C 721.667969 167.613281 721.578125 167.433594 721.542969 167.238281 C 721.398438 165.65625 720.96875 164.175781 720.28125 162.828125 C 715.769531 151.535156 703.304688 143.613281 688.664062 143.613281 C 666.324219 143.613281 645.675781 161.246094 645.675781 190.691406 C 645.675781 219.390625 661.816406 237.394531 687.535156 237.394531 C 705.183594 237.394531 717.199219 228.769531 722.265625 213.199219 L 717.761719 210.949219 C 711.941406 220.328125 702.367188 225.578125 691.480469 225.578125 C 673.835938 225.578125 661.257812 212.636719 661.257812 189.003906 C 661.257812 181.832031 662.253906 174.472656 665.257812 167.898438 C 667.59375 162.789062 671.226562 158.257812 676.128906 155.414062 C 681.4375 152.335938 687.730469 151.523438 693.75 152.398438 C 695.179688 152.605469 696.59375 152.894531 698 153.230469 C 698.84375 153.425781 699.699219 153.648438 700.425781 154.125 C 701.753906 154.992188 702.707031 158.042969 701.3125 159.292969 Z M 701.3125 159.292969 " fill-opacity="1" fill-rule="nonzero"></path><path fill="#ffffff" d="M 820.351562 225.714844 C 820.160156 216.386719 820.058594 204.203125 820.058594 195.570312 L 820.058594 178.3125 C 820.058594 153.554688 812.367188 143.613281 796.222656 143.613281 C 784.28125 143.613281 770.726562 151.007812 761.679688 161.039062 L 761.679688 124.296875 L 762.433594 97.664062 L 759.804688 96.164062 L 731.648438 104.601562 L 731.648438 111.164062 L 747.226562 113.042969 L 747.226562 195.570312 C 747.226562 203.976562 747.128906 216.355469 746.933594 225.785156 L 732.585938 228.394531 L 732.585938 234.957031 L 775.761719 234.957031 L 775.761719 228.394531 L 762.542969 225.75 C 762.34375 216.324219 762.242188 203.964844 762.242188 195.570312 L 762.242188 169.046875 C 772.542969 160.003906 780.117188 156.746094 789.273438 156.746094 C 800.535156 156.746094 805.042969 162.371094 805.042969 179.8125 L 805.042969 195.570312 C 805.042969 204.238281 804.945312 216.484375 804.75 225.820312 L 790.589844 228.394531 L 790.589844 234.957031 L 833.765625 234.957031 L 833.765625 228.394531 Z M 820.351562 225.714844 " fill-opacity="1" fill-rule="nonzero"></path><path fill="#ffffff" d="M 934.101562 225.714844 C 933.90625 216.386719 933.808594 204.203125 933.808594 195.570312 L 933.808594 178.3125 C 933.808594 153.554688 926.113281 143.613281 909.96875 143.613281 C 898.15625 143.613281 885.042969 150.84375 876.066406 160.707031 L 874.488281 145.492188 L 871.675781 143.613281 L 846.144531 154.867188 L 846.144531 161.433594 L 861.160156 163.121094 C 861.539062 170.625 861.726562 176.4375 861.726562 186.753906 L 861.726562 195.570312 C 861.726562 203.984375 861.625 216.386719 861.429688 225.820312 L 847.273438 228.394531 L 847.273438 234.957031 L 890.449219 234.957031 L 890.449219 228.394531 L 877.035156 225.714844 C 876.839844 216.289062 876.742188 203.953125 876.742188 195.570312 L 876.742188 168.449219 C 886.660156 160.199219 894.089844 156.746094 903.023438 156.746094 C 914.285156 156.746094 918.792969 162.371094 918.792969 179.8125 L 918.792969 195.570312 C 918.792969 204.238281 918.691406 216.484375 918.496094 225.820312 L 904.335938 228.394531 L 904.335938 234.957031 L 947.511719 234.957031 L 947.511719 228.394531 Z M 934.101562 225.714844 " fill-opacity="1" fill-rule="nonzero"></path><path fill="#ffffff" d="M 1003.632812 152.058594 C 1015.457031 152.058594 1024.46875 161.808594 1024.46875 172.5 C 1024.46875 177.753906 1022.402344 182.066406 1013.394531 182.066406 L 978.105469 182.066406 C 980.304688 160.449219 992.726562 152.058594 1003.632812 152.058594 Z M 1008.511719 225.578125 C 989.992188 225.578125 978.074219 213.144531 977.753906 189.941406 L 1037.984375 189.941406 C 1038.730469 187.503906 1039.296875 183.753906 1039.296875 179.4375 C 1039.296875 156.746094 1023.902344 143.613281 1004.570312 143.613281 C 981.292969 143.613281 961.769531 162.75 961.769531 191.441406 C 961.769531 219.949219 978.101562 237.394531 1003.253906 237.394531 C 1020.339844 237.394531 1032.355469 228.953125 1039.109375 215.636719 L 1034.789062 212.261719 C 1028.03125 220.136719 1020.523438 225.578125 1008.511719 225.578125 Z M 1008.511719 225.578125 " fill-opacity="1" fill-rule="nonzero"></path><path fill="#ffffff" d="M 1104.425781 222.765625 C 1099.546875 226.328125 1095.792969 228.015625 1091.660156 228.015625 C 1085.277344 228.015625 1081.148438 223.890625 1081.148438 214.136719 L 1081.148438 155.804688 L 1107.054688 155.804688 L 1107.054688 146.054688 L 1081.480469 146.054688 L 1082.648438 120.546875 L 1071.765625 120.546875 L 1067.125 145.582031 L 1050.363281 147.742188 L 1050.363281 155.804688 L 1066.132812 155.804688 L 1066.132812 200.449219 C 1066.132812 207.761719 1065.941406 211.699219 1065.941406 216.199219 C 1065.941406 230.640625 1074.015625 237.394531 1086.964844 237.394531 C 1096.351562 237.394531 1104.050781 233.832031 1108.742188 227.828125 Z M 1104.425781 222.765625 " fill-opacity="1" fill-rule="nonzero"></path><path fill="#ffffff" d="M 1137.832031 122.421875 C 1144.78125 122.421875 1150.21875 117.542969 1150.21875 110.605469 C 1150.21875 103.476562 1144.78125 98.789062 1137.832031 98.789062 C 1130.886719 98.789062 1125.445312 103.476562 1125.445312 110.605469 C 1125.445312 117.542969 1130.886719 122.421875 1137.832031 122.421875 Z M 1137.832031 122.421875 " fill-opacity="1" fill-rule="nonzero"></path><path fill="#ffffff" d="M 1145.636719 225.714844 C 1145.441406 216.289062 1145.339844 203.953125 1145.339844 195.570312 L 1145.339844 170.8125 L 1145.902344 145.492188 L 1143.089844 143.613281 L 1114.746094 154.867188 L 1114.746094 161.433594 L 1130.136719 163.121094 C 1130.507812 170.625 1130.699219 176.4375 1130.699219 186.753906 L 1130.699219 195.570312 C 1130.699219 203.964844 1130.601562 216.324219 1130.40625 225.75 L 1115.867188 228.394531 L 1115.867188 234.957031 L 1159.042969 234.957031 L 1159.042969 228.394531 Z M 1145.636719 225.714844 " fill-opacity="1" fill-rule="nonzero"></path><path fill="#ffffff" d="M 1254.777344 225.609375 L 1254.777344 173.0625 L 1255.339844 146.800781 L 1253.460938 144.925781 L 1226.808594 147.367188 L 1226.808594 153.929688 L 1240.296875 156.828125 L 1239.78125 211.925781 C 1230.96875 220.113281 1221.863281 224.265625 1212.917969 224.265625 C 1202.589844 224.265625 1197.710938 218.453125 1197.710938 201.757812 L 1197.710938 173.0625 L 1198.648438 146.800781 L 1196.769531 144.925781 L 1169.742188 147.367188 L 1169.742188 153.929688 L 1183.226562 156.828125 L 1182.695312 203.636719 C 1182.507812 228.394531 1191.894531 237.394531 1206.910156 237.394531 C 1218.253906 237.394531 1230.070312 232.109375 1240.277344 219.765625 L 1240.390625 219.765625 L 1242.386719 236.460938 L 1267.730469 234.957031 L 1267.730469 228.394531 Z M 1254.777344 225.609375 " fill-opacity="1" fill-rule="nonzero"></path><path fill="#ffffff" d="M 1424.375 225.714844 C 1424.183594 216.390625 1424.085938 204.207031 1424.085938 195.570312 L 1424.085938 176.25 C 1424.085938 152.992188 1415.261719 143.613281 1400.246094 143.613281 C 1388.09375 143.613281 1375.511719 149.605469 1365.980469 161.167969 C 1362.871094 148.875 1355.625 143.613281 1343.929688 143.613281 C 1332.296875 143.613281 1319.648438 150.828125 1310.769531 160.683594 L 1309.203125 145.492188 L 1306.386719 143.613281 L 1280.859375 154.867188 L 1280.859375 161.433594 L 1295.875 163.121094 C 1296.25 170.625 1296.4375 176.4375 1296.4375 186.753906 L 1296.4375 195.570312 C 1296.4375 203.984375 1296.339844 216.386719 1296.140625 225.820312 L 1281.984375 228.394531 L 1281.984375 234.957031 L 1325.160156 234.957031 L 1325.160156 228.394531 L 1311.75 225.714844 C 1311.550781 216.289062 1311.453125 203.953125 1311.453125 195.570312 L 1311.453125 168.425781 C 1321.160156 160.195312 1328.242188 156.746094 1336.984375 156.746094 C 1348.246094 156.746094 1352.753906 162.371094 1352.753906 179.8125 L 1352.753906 195.570312 C 1352.753906 204.238281 1352.652344 216.484375 1352.457031 225.820312 L 1338.296875 228.394531 L 1338.296875 234.957031 L 1381.472656 234.957031 L 1381.472656 228.394531 L 1368.0625 225.714844 C 1367.871094 216.386719 1367.769531 204.203125 1367.769531 195.570312 L 1367.769531 178.3125 C 1367.769531 174.84375 1367.601562 171.695312 1367.296875 168.796875 C 1377.289062 159.953125 1384.945312 156.746094 1393.109375 156.746094 C 1404.1875 156.746094 1409.066406 161.808594 1409.066406 179.4375 L 1409.066406 195.570312 C 1409.066406 204.238281 1408.96875 216.484375 1408.773438 225.820312 L 1394.613281 228.394531 L 1394.613281 234.957031 L 1437.789062 234.957031 L 1437.789062 228.394531 Z M 1424.375 225.714844 " fill-opacity="1" fill-rule="nonzero"></path><path fill="#737489" d="M 317.855469 179.625 C 317.355469 177.917969 316.820312 176.226562 316.246094 174.546875 L 310.597656 176.769531 Z M 317.855469 179.625 " fill-opacity="1" fill-rule="nonzero"></path><path fill="#737489" d="M 287.007812 167.484375 L 293.167969 169.90625 L 298.28125 151.828125 C 302.652344 158.800781 306.246094 166.175781 309.066406 173.835938 L 315.132812 171.445312 C 312.035156 163.074219 308.046875 155.039062 303.195312 147.449219 L 291.355469 152.109375 Z M 287.007812 167.484375 " fill-opacity="1" fill-rule="nonzero"></path><path fill="#737489" d="M 132.695312 215.796875 L 132.382812 214.691406 L 125.382812 217.445312 L 116.257812 249.734375 L 123.957031 246.703125 Z M 132.695312 215.796875 " fill-opacity="1" fill-rule="nonzero"></path><path fill="#737489" d="M 52.011719 234.601562 L 51.695312 231.863281 L 33.421875 230.71875 C 33.160156 227.453125 32.976562 224.070312 32.886719 220.625 L 50.894531 217.105469 L 50.914062 214.417969 C 50.949219 207.929688 51.375 201.417969 52.171875 195.066406 L 52.507812 192.398438 L 35.097656 186.570312 C 35.621094 183.238281 36.25 179.90625 36.96875 176.601562 L 55.25 177.855469 L 55.925781 175.199219 C 57.492188 169.03125 59.460938 162.871094 61.773438 156.878906 L 62.726562 154.398438 L 47.269531 144.257812 C 47.742188 143.148438 48.292969 142.058594 48.792969 140.953125 L 42.625 138.523438 C 41.769531 140.4375 40.914062 142.351562 40.132812 144.277344 L 39.109375 146.777344 L 54.6875 157 C 53.003906 161.578125 51.515625 166.242188 50.242188 170.917969 L 31.816406 169.652344 L 31.179688 172.375 C 29.9375 177.640625 28.929688 183.011719 28.164062 188.347656 L 27.785156 191.0625 L 45.320312 196.929688 C 44.792969 201.800781 44.472656 206.738281 44.363281 211.679688 L 26.210938 215.21875 L 26.246094 217.964844 C 26.320312 223.554688 26.613281 229 27.113281 234.144531 L 27.386719 236.929688 L 45.804688 238.085938 C 46.097656 240.332031 46.457031 242.582031 46.84375 244.828125 L 53.140625 242.347656 C 52.714844 239.765625 52.304688 237.179688 52.011719 234.601562 Z M 52.011719 234.601562 " fill-opacity="1" fill-rule="nonzero"></path><path fill="#737489" d="M 115.128906 253.714844 L 107.761719 279.769531 C 103.90625 273.617188 100.710938 267.132812 98.058594 260.433594 L 91.894531 262.863281 C 95.449219 271.835938 100.050781 280.402344 105.648438 288.425781 L 112.984375 285.519531 L 122.832031 250.679688 Z M 115.128906 253.714844 " fill-opacity="1" fill-rule="nonzero"></path><path fill="#737489" d="M 373.402344 237.261719 L 358.957031 231.574219 L 354.347656 231.863281 L 354.035156 234.601562 C 353.289062 241.109375 352.144531 247.566406 350.636719 253.792969 L 350.097656 256.015625 L 373.238281 265.125 C 373.386719 264.566406 373.558594 264.035156 373.707031 263.476562 L 374.382812 260.863281 L 357.640625 252.753906 C 358.71875 247.953125 359.589844 243.039062 360.238281 238.085938 Z M 373.402344 237.261719 " fill-opacity="1" fill-rule="nonzero"></path><path fill="#737489" d="M 50.273438 272.378906 L 42.34375 273.957031 C 41.292969 270.824219 40.3125 267.632812 39.421875 264.414062 L 50.273438 259.160156 L 50.273438 247.011719 L 47.476562 248.113281 C 47.773438 249.664062 48.058594 251.210938 48.402344 252.753906 L 31.671875 260.859375 L 32.347656 263.46875 C 33.707031 268.679688 35.292969 273.851562 37.070312 278.847656 L 37.710938 280.652344 L 50.273438 275.710938 Z M 50.273438 272.378906 " fill-opacity="1" fill-rule="nonzero"></path><path fill="#737489" d="M 51.5 135.082031 L 68.929688 140.996094 L 70.25 138.546875 C 73.261719 132.957031 76.621094 127.535156 80.238281 122.421875 L 80.550781 121.980469 L 71.011719 118.226562 L 73.351562 120.796875 C 70.667969 124.71875 68.140625 128.800781 65.792969 132.984375 L 48.226562 127.023438 L 46.921875 129.539062 C 45.90625 131.511719 44.945312 133.519531 44 135.527344 L 50.171875 137.957031 C 50.625 137.003906 51.027344 136.03125 51.5 135.082031 Z M 51.5 135.082031 " fill-opacity="1" fill-rule="nonzero"></path><path fill="#737489" d="M 335.8125 138.554688 L 337.136719 140.996094 L 354.550781 135.085938 C 356.03125 138.074219 357.441406 141.144531 358.769531 144.261719 L 343.308594 154.398438 L 344.257812 156.875 C 344.605469 157.78125 344.886719 158.695312 345.21875 159.605469 L 351.398438 157.171875 C 351.378906 157.113281 351.363281 157.058594 351.339844 157.003906 L 366.941406 146.777344 L 365.914062 144.265625 C 363.847656 139.222656 361.566406 134.269531 359.125 129.542969 L 357.828125 127.019531 L 340.253906 132.984375 C 340.238281 132.953125 340.210938 132.917969 340.195312 132.886719 L 333.945312 135.34375 C 334.5625 136.417969 335.21875 137.460938 335.8125 138.554688 Z M 335.8125 138.554688 " fill-opacity="1" fill-rule="nonzero"></path><path fill="#737489" d="M 215.074219 139.164062 L 279.332031 119.652344 L 274.234375 115.757812 C 253.496094 99.914062 228.871094 91.535156 203.023438 91.535156 C 180.671875 91.535156 159.238281 97.828125 140.417969 109.777344 L 148.089844 112.796875 C 164.824219 103.15625 183.5625 98.113281 203.023438 98.113281 C 225.238281 98.113281 246.5 104.679688 264.914062 117.15625 L 205.214844 135.285156 Z M 215.074219 139.164062 " fill-opacity="1" fill-rule="nonzero"></path><path fill="#737489" d="M 203.023438 295.640625 L 264.914062 314.4375 C 246.503906 326.921875 225.238281 333.492188 203.023438 333.492188 C 180.808594 333.492188 159.535156 326.921875 141.113281 314.4375 Z M 131.792969 315.828125 C 152.550781 331.6875 177.179688 340.070312 203.023438 340.070312 C 228.875 340.070312 253.5 331.6875 274.234375 315.828125 L 279.328125 311.933594 L 203.023438 288.765625 L 145.28125 306.292969 L 128.140625 313.039062 Z M 131.792969 315.828125 " fill-opacity="1" fill-rule="nonzero"></path><path fill="#737489" d="M 361.683594 211.679688 C 361.589844 207.824219 361.335938 203.972656 360.992188 200.144531 L 354.089844 197.425781 C 354.707031 203.046875 355.09375 208.742188 355.136719 214.421875 L 355.15625 217.109375 L 360.304688 218.113281 L 371.6875 213.632812 Z M 361.683594 211.679688 " fill-opacity="1" fill-rule="nonzero"></path><path fill="#737489" d="M 350.105469 175.199219 L 350.78125 177.855469 L 369.070312 176.601562 C 369.789062 179.914062 370.421875 183.25 370.949219 186.570312 L 353.539062 192.398438 L 353.707031 193.738281 L 361.3125 196.734375 L 378.269531 191.0625 L 377.875 188.347656 C 377.117188 183.03125 376.105469 177.65625 374.859375 172.375 L 374.21875 169.652344 L 355.789062 170.917969 C 354.824219 167.378906 353.691406 163.828125 352.46875 160.285156 L 346.3125 162.710938 C 347.738281 166.878906 349.054688 171.050781 350.105469 175.199219 Z M 350.105469 175.199219 " fill-opacity="1" fill-rule="nonzero"></path><path fill="#737489" d="M 311.289062 180.578125 C 314.269531 190.441406 315.957031 200.730469 316.335938 211.261719 L 323.007812 213.886719 C 322.859375 203.53125 321.472656 193.386719 318.945312 183.59375 Z M 311.289062 180.578125 " fill-opacity="1" fill-rule="nonzero"></path><path fill="#737489" d="M 366.175781 265.878906 C 365.390625 268.632812 364.582031 271.359375 363.699219 273.960938 L 345.738281 270.378906 L 344.753906 272.992188 C 342.464844 279.066406 339.78125 285.054688 336.78125 290.792969 L 335.5625 293.117188 L 349.679688 305.179688 C 348.046875 308.046875 346.34375 310.851562 344.589844 313.574219 L 328.058594 305.460938 L 326.4375 307.777344 C 322.726562 313.109375 318.675781 318.230469 314.386719 323.003906 L 312.632812 324.945312 L 323.414062 340.316406 C 321.148438 342.675781 318.855469 344.933594 316.5625 347.0625 L 302.492188 334.953125 L 300.339844 336.808594 C 295.566406 340.9375 290.382812 344.871094 284.945312 348.5 L 282.75 349.957031 L 289.519531 367.589844 C 286.867188 369.214844 284.128906 370.785156 281.335938 372.292969 L 270.628906 356.941406 L 268.09375 358.183594 C 262.332031 361.011719 256.339844 363.476562 250.289062 365.527344 L 247.75 366.386719 L 250.085938 385.214844 C 247.148438 386.082031 244.136719 386.886719 241.09375 387.613281 L 234.394531 369.964844 L 231.667969 370.503906 C 225.460938 371.730469 219.066406 372.566406 212.648438 372.992188 L 209.921875 373.171875 L 207.664062 391.933594 C 204.9375 391.96875 201.101562 391.96875 198.375 391.933594 L 196.117188 373.171875 L 193.390625 372.992188 C 186.976562 372.566406 180.582031 371.730469 174.378906 370.503906 L 171.652344 369.964844 L 164.945312 387.613281 C 161.914062 386.890625 158.910156 386.085938 155.960938 385.210938 L 158.28125 366.386719 L 155.742188 365.527344 C 149.703125 363.476562 143.71875 361.011719 137.949219 358.183594 L 135.417969 356.945312 L 124.695312 372.28125 C 121.894531 370.777344 119.15625 369.207031 116.519531 367.59375 L 123.289062 349.957031 L 121.097656 348.496094 C 115.726562 344.921875 110.542969 340.988281 105.6875 336.804688 L 103.539062 334.953125 L 89.472656 347.0625 C 87.210938 344.957031 84.945312 342.726562 82.621094 340.316406 L 91.707031 327.378906 L 80.585938 331.757812 L 74.148438 340.925781 L 75.976562 342.875 C 79.820312 346.976562 83.496094 350.585938 87.210938 353.90625 L 89.363281 355.835938 L 103.554688 343.621094 C 107.304688 346.742188 111.222656 349.710938 115.265625 352.492188 L 108.433594 370.269531 L 110.703125 371.714844 C 114.980469 374.445312 119.53125 377.054688 124.222656 379.464844 L 126.78125 380.785156 L 137.601562 365.316406 C 142.011719 367.378906 146.53125 369.238281 151.089844 370.875 L 148.75 389.867188 L 151.363281 390.6875 C 156.21875 392.214844 161.242188 393.554688 166.292969 394.679688 L 169.070312 395.292969 L 175.84375 377.476562 C 180.570312 378.320312 185.386719 378.949219 190.230469 379.351562 L 192.515625 398.296875 L 195.285156 398.4375 C 196.582031 398.503906 199.804688 398.535156 203.023438 398.535156 C 206.238281 398.535156 209.457031 398.503906 210.753906 398.4375 L 213.53125 398.296875 L 215.8125 379.351562 C 220.652344 378.949219 225.472656 378.320312 230.203125 377.476562 L 236.960938 395.296875 L 239.746094 394.679688 C 244.839844 393.546875 249.867188 392.203125 254.6875 390.6875 L 257.300781 389.867188 L 254.945312 370.875 C 259.515625 369.238281 264.03125 367.378906 268.441406 365.316406 L 279.242188 380.804688 L 281.808594 379.480469 C 286.484375 377.066406 291.035156 374.453125 295.335938 371.714844 L 297.605469 370.269531 L 290.777344 352.492188 C 294.851562 349.6875 298.769531 346.714844 302.476562 343.625 L 316.667969 355.835938 L 318.824219 353.90625 C 322.585938 350.542969 326.367188 346.828125 330.0625 342.871094 L 331.875 340.921875 L 321.023438 325.433594 C 324.238281 321.738281 327.3125 317.855469 330.207031 313.847656 L 346.875 322.027344 L 348.476562 319.636719 C 351.382812 315.300781 354.171875 310.722656 356.753906 306.019531 L 358.046875 303.675781 L 343.808594 291.503906 C 346.035156 287.085938 348.078125 282.53125 349.910156 277.921875 L 368.015625 281.53125 L 368.972656 278.855469 C 370.175781 275.492188 371.28125 271.929688 372.332031 268.300781 Z M 366.175781 265.878906 " fill-opacity="1" fill-rule="nonzero"></path><path fill="#737489" d="M 379.792969 217.960938 L 379.820312 215.21875 L 377.695312 214.804688 L 366.308594 219.285156 L 373.15625 220.625 C 373.070312 224.027344 372.890625 227.410156 372.621094 230.71875 L 366.707031 231.089844 L 378.753906 235.832031 L 378.921875 234.148438 C 379.4375 228.894531 379.726562 223.445312 379.792969 217.960938 Z M 379.792969 217.960938 " fill-opacity="1" fill-rule="nonzero"></path><path fill="#737489" d="M 314.097656 239.839844 C 313.972656 240.460938 313.863281 241.082031 313.726562 241.699219 L 319.921875 244.136719 C 320.453125 241.777344 320.90625 239.402344 321.300781 237.003906 Z M 314.097656 239.839844 " fill-opacity="1" fill-rule="nonzero"></path><path fill="#737489" d="M 97.476562 92.875 L 104.335938 95.574219 C 104.988281 94.996094 105.625 94.363281 106.285156 93.796875 L 108.296875 92.082031 L 99.445312 75.496094 C 102.03125 73.441406 104.6875 71.453125 107.375 69.554688 L 119.894531 83.414062 L 122.25 81.882812 C 127.425781 78.511719 132.832031 75.441406 138.324219 72.757812 L 140.71875 71.589844 L 136.125 53.21875 C 139.117188 51.902344 142.144531 50.660156 145.191406 49.511719 L 153.988281 66.179688 L 156.636719 65.292969 C 162.375 63.378906 168.328125 61.808594 174.347656 60.625 L 177.011719 60.101562 L 176.972656 41.132812 C 180.1875 40.617188 183.417969 40.199219 186.625 39.875 L 191.152344 58.289062 L 193.902344 58.109375 C 196.894531 57.914062 209.160156 57.914062 212.140625 58.109375 L 214.890625 58.289062 L 219.414062 39.875 C 222.625 40.199219 225.855469 40.617188 229.074219 41.132812 L 229.042969 60.097656 L 231.707031 60.625 C 237.765625 61.824219 243.722656 63.394531 249.40625 65.292969 L 252.058594 66.179688 L 260.851562 49.511719 C 263.90625 50.664062 266.945312 51.90625 269.917969 53.21875 L 265.316406 71.589844 L 267.714844 72.757812 C 273.132812 75.402344 278.542969 78.472656 283.804688 81.886719 L 286.160156 83.414062 L 298.671875 69.558594 C 301.371094 71.464844 304.023438 73.449219 306.589844 75.492188 L 297.757812 92.082031 L 299.765625 93.796875 C 304.34375 97.710938 308.867188 102.089844 313.21875 106.804688 L 315.117188 108.867188 L 330.550781 98.664062 C 332.660156 101.136719 334.734375 103.71875 336.828125 106.472656 L 324.273438 120.265625 L 325.800781 122.421875 C 328.066406 125.632812 330.207031 129.015625 332.277344 132.464844 L 338.429688 130.042969 C 336.574219 126.902344 334.714844 123.761719 332.6875 120.800781 L 345.355469 106.890625 L 343.742188 104.714844 C 340.363281 100.148438 337.050781 96.039062 333.617188 92.152344 L 331.722656 90.003906 L 316.140625 100.296875 C 312.847656 96.839844 309.460938 93.566406 306.039062 90.539062 L 314.941406 73.816406 L 312.863281 72.105469 C 308.769531 68.734375 304.449219 65.5 300.019531 62.484375 L 297.648438 60.867188 L 285.015625 74.855469 C 281.066406 72.386719 277.039062 70.101562 272.996094 68.039062 L 277.640625 49.507812 L 275.160156 48.367188 C 270.359375 46.152344 265.390625 44.125 260.390625 42.332031 L 257.699219 41.367188 L 248.824219 58.191406 C 244.542969 56.847656 240.125 55.6875 235.644531 54.71875 L 235.675781 35.589844 L 232.945312 35.105469 C 227.695312 34.183594 222.390625 33.496094 217.164062 33.058594 L 214.363281 32.828125 L 209.792969 51.445312 C 206.007812 51.363281 200.03125 51.363281 196.25 51.445312 L 191.675781 32.828125 L 188.878906 33.058594 C 183.644531 33.496094 178.335938 34.1875 173.101562 35.105469 L 170.375 35.589844 L 170.410156 54.714844 C 165.953125 55.679688 161.535156 56.84375 157.21875 58.191406 L 148.339844 41.371094 L 145.648438 42.332031 C 140.675781 44.113281 135.710938 46.140625 130.886719 48.367188 L 128.414062 49.507812 L 133.042969 68.039062 C 128.960938 70.121094 124.9375 72.402344 121.027344 74.855469 L 108.402344 60.867188 L 106.027344 62.484375 C 101.628906 65.476562 97.300781 68.714844 93.171875 72.105469 L 91.089844 73.8125 L 100.003906 90.539062 C 99.152344 91.289062 98.320312 92.097656 97.476562 92.875 Z M 97.476562 92.875 " fill-opacity="1" fill-rule="nonzero"></path><path fill="#737489" d="M 281.09375 188.382812 L 278.800781 196.484375 L 284.960938 198.910156 L 288.796875 185.351562 Z M 281.09375 188.382812 " fill-opacity="1" fill-rule="nonzero"></path><path fill="#737489" d="M 299.734375 289.441406 C 308.835938 276.644531 315.316406 262.410156 319.121094 247.359375 L 312.929688 244.921875 C 309.914062 257.230469 305.042969 268.976562 298.28125 279.769531 L 289.699219 249.445312 L 283.542969 251.867188 L 295.75 295.039062 Z M 299.734375 289.441406 " fill-opacity="1" fill-rule="nonzero"></path><path fill="#737489" d="M 282.222656 184.40625 L 289.921875 181.371094 L 292.265625 173.089844 L 286.105469 170.664062 Z M 282.222656 184.40625 " fill-opacity="1" fill-rule="nonzero"></path><path fill="#737489" d="M 295.75 136.566406 L 292.480469 148.132812 L 301.355469 144.640625 C 300.800781 143.820312 300.304688 142.96875 299.734375 142.164062 Z M 295.75 136.566406 " fill-opacity="1" fill-rule="nonzero"></path><path fill="#737489" d="M 49.28125 306.023438 C 49.597656 306.605469 49.949219 307.160156 50.273438 307.738281 L 50.273438 301.726562 L 47.988281 303.675781 Z M 49.28125 306.023438 " fill-opacity="1" fill-rule="nonzero"></path><path fill="#737489" d="M 116.707031 167.6875 L 116.714844 183.488281 L 125.324219 213.933594 L 131.480469 211.507812 L 119.390625 168.742188 Z M 116.707031 167.6875 " fill-opacity="1" fill-rule="nonzero"></path><path fill="#737489" d="M 116.707031 167.6875 L 116.714844 183.488281 L 125.324219 213.933594 L 131.480469 211.507812 L 119.390625 168.742188 Z M 116.707031 167.6875 " fill-opacity="1" fill-rule="nonzero"></path><path fill="#d19f66" d="M 347.023438 223.339844 L 346.9375 223.308594 C 347.070312 220.820312 347.136719 218.316406 347.136719 215.792969 C 347.136719 208.398438 346.574219 201.136719 345.492188 194.042969 L 383.472656 208.992188 Z M 340.421875 220.742188 L 269.65625 192.886719 L 306.105469 178.539062 L 338.300781 191.210938 C 339.75 199.191406 340.546875 207.398438 340.546875 215.792969 C 340.546875 217.453125 340.480469 219.097656 340.421875 220.742188 Z M 336.09375 250.503906 L 311.550781 240.839844 L 339.84375 229.703125 C 339.128906 236.808594 337.859375 243.757812 336.09375 250.503906 Z M 203.019531 353.210938 C 168.40625 353.210938 136.761719 340.339844 112.558594 319.171875 L 307.058594 242.609375 L 335.1875 253.683594 C 318.683594 311.078125 265.699219 353.210938 203.019531 353.210938 Z M 228.714844 176.769531 L 265.164062 162.421875 L 301.617188 176.769531 L 265.167969 191.117188 Z M 318.558594 141.402344 C 323.40625 148.886719 327.535156 156.867188 330.867188 165.253906 L 306.105469 175 L 269.65625 160.652344 Z M 337.578125 187.386719 L 310.597656 176.769531 L 332.078125 168.3125 C 334.355469 174.476562 336.195312 180.851562 337.578125 187.386719 Z M 410.714844 216.179688 L 392.457031 208.992188 L 410.15625 202.027344 C 411 201.691406 411.417969 200.738281 411.089844 199.890625 C 410.753906 199.046875 409.792969 198.632812 408.953125 198.964844 L 387.964844 207.226562 L 344.816406 190.238281 C 343.308594 181.859375 341.105469 173.714844 338.207031 165.902344 L 396.304688 143.035156 C 397.148438 142.699219 397.566406 141.746094 397.234375 140.898438 C 396.898438 140.050781 395.933594 139.640625 395.097656 139.96875 L 336.996094 162.84375 C 333.667969 154.460938 329.578125 146.46875 324.804688 138.941406 L 384.019531 115.632812 C 384.867188 115.296875 385.28125 114.34375 384.949219 113.5 C 384.617188 112.65625 383.65625 112.242188 382.816406 112.570312 L 322.992188 136.121094 C 297.132812 97.378906 253.015625 71.800781 203.019531 71.800781 C 170.78125 71.800781 140.988281 82.433594 116.957031 100.371094 L 124.261719 103.246094 C 146.589844 87.601562 173.738281 78.375 203.019531 78.375 C 250.226562 78.375 291.949219 102.269531 316.722656 138.589844 L 265.164062 158.882812 L 224.21875 142.765625 L 224.21875 146.304688 L 260.671875 160.652344 L 224.21875 175 L 224.21875 178.433594 L 116.699219 136.109375 L 116.699219 136.210938 L 219.730469 176.769531 L 184.25 190.734375 L 116.707031 164.148438 L 116.707031 167.6875 L 179.757812 192.503906 L 116.726562 217.316406 L 116.730469 220.851562 L 184.253906 194.269531 L 220.703125 208.617188 L 116.738281 249.546875 L 116.738281 253.082031 L 225.195312 210.386719 L 264.03125 225.671875 L 90.363281 294.480469 C 87.601562 290.539062 85.027344 286.460938 82.679688 282.234375 L 82.679688 230.71875 L 67.101562 236.851562 C 66.039062 229.984375 65.484375 222.953125 65.484375 215.792969 C 65.484375 193.351562 70.933594 172.167969 80.519531 153.441406 L 82.679688 154.292969 L 82.679688 150.753906 L 82.03125 150.5 C 82.230469 150.132812 82.480469 149.792969 82.679688 149.425781 L 82.679688 136.683594 C 80.242188 140.363281 77.96875 144.164062 75.875 148.074219 L 16.816406 124.828125 C 15.984375 124.5 15.015625 124.910156 14.679688 125.753906 C 14.351562 126.601562 14.765625 127.558594 15.613281 127.890625 L 74.363281 151.015625 C 64.496094 170.503906 58.894531 192.5 58.894531 215.792969 C 58.894531 223.804688 59.585938 231.65625 60.851562 239.3125 L 1.0625 262.847656 C 0.214844 263.183594 -0.195312 264.136719 0.128906 264.980469 C 0.386719 265.628906 1.007812 266.023438 1.660156 266.023438 C 1.863281 266.023438 2.066406 265.988281 2.265625 265.910156 L 50.273438 247.011719 L 50.273438 275.710938 L 10.21875 291.472656 C 9.375 291.804688 8.960938 292.761719 9.292969 293.609375 C 9.546875 294.253906 10.167969 294.648438 10.824219 294.648438 C 11.027344 294.648438 11.226562 294.613281 11.421875 294.539062 L 50.273438 279.242188 L 50.273438 340.152344 L 40.9375 343.828125 C 40.09375 344.164062 39.679688 345.117188 40.007812 345.964844 C 40.265625 346.609375 40.886719 347.003906 41.542969 347.003906 C 41.742188 347.003906 41.945312 346.96875 42.144531 346.890625 L 105.683594 321.878906 C 131.347656 345.402344 165.527344 359.789062 203.019531 359.789062 C 268.476562 359.789062 323.851562 315.9375 341.347656 256.105469 L 400.085938 279.230469 C 400.285156 279.304688 400.484375 279.34375 400.6875 279.34375 C 401.34375 279.34375 401.964844 278.945312 402.21875 278.300781 C 402.550781 277.453125 402.136719 276.5 401.289062 276.167969 L 342.253906 252.929688 C 344.488281 244.566406 345.96875 235.90625 346.65625 227.023438 L 347.023438 226.878906 L 406.871094 250.4375 C 407.066406 250.511719 407.269531 250.550781 407.472656 250.550781 C 408.128906 250.550781 408.75 250.152344 409.003906 249.507812 C 409.335938 248.660156 408.921875 247.707031 408.074219 247.371094 L 351.515625 225.109375 L 387.964844 210.761719 L 409.511719 219.242188 C 409.710938 219.320312 409.910156 219.359375 410.113281 219.359375 C 410.769531 219.359375 411.390625 218.960938 411.644531 218.316406 C 411.976562 217.46875 411.5625 216.515625 410.714844 216.179688 Z M 410.714844 216.179688 " fill-opacity="1" fill-rule="nonzero"></path><path fill="#d19f66" d="M 30.308594 102.203125 L 82.679688 122.824219 L 82.679688 122.621094 L 50.273438 109.921875 L 50.273438 106.527344 L 31.507812 99.140625 C 30.679688 98.816406 29.710938 99.226562 29.375 100.066406 C 29.046875 100.914062 29.460938 101.871094 30.308594 102.203125 Z M 30.308594 102.203125 " fill-opacity="1" fill-rule="nonzero"></path><path fill="#737489" d="M 116.707031 167.6875 L 116.714844 183.488281 L 125.324219 213.933594 L 131.480469 211.507812 L 119.390625 168.742188 Z M 116.707031 167.6875 " fill-opacity="1" fill-rule="nonzero"></path><path fill="#737489" d="M 116.707031 167.6875 L 116.714844 183.488281 L 125.324219 213.933594 L 131.480469 211.507812 L 119.390625 168.742188 Z M 116.707031 167.6875 " fill-opacity="1" fill-rule="nonzero"></path><path fill="#737489" d="M 116.707031 167.6875 L 116.714844 183.488281 L 125.324219 213.933594 L 131.480469 211.507812 L 119.390625 168.742188 Z M 116.707031 167.6875 " fill-opacity="1" fill-rule="nonzero"></path><path fill="#737489" d="M 116.707031 167.6875 L 116.714844 183.488281 L 125.324219 213.933594 L 131.480469 211.507812 L 119.390625 168.742188 Z M 116.707031 167.6875 " fill-opacity="1" fill-rule="nonzero"></path><path fill="#737489" d="M 116.707031 167.6875 L 116.714844 183.488281 L 125.324219 213.933594 L 131.480469 211.507812 L 119.390625 168.742188 Z M 116.707031 167.6875 " fill-opacity="1" fill-rule="nonzero"></path><path fill="#737489" d="M 116.707031 167.6875 L 116.714844 183.488281 L 125.324219 213.933594 L 131.480469 211.507812 L 119.390625 168.742188 Z M 116.707031 167.6875 " fill-opacity="1" fill-rule="nonzero"></path><path fill="#737489" d="M 317.855469 179.625 C 317.355469 177.917969 316.820312 176.226562 316.246094 174.546875 L 310.597656 176.769531 Z M 317.855469 179.625 " fill-opacity="1" fill-rule="nonzero"></path><path fill="#737489" d="M 287.007812 167.484375 L 293.167969 169.90625 L 298.28125 151.828125 C 302.652344 158.800781 306.246094 166.175781 309.066406 173.835938 L 315.132812 171.445312 C 312.035156 163.074219 308.046875 155.039062 303.195312 147.449219 L 291.355469 152.109375 Z M 287.007812 167.484375 " fill-opacity="1" fill-rule="nonzero"></path><path fill="#737489" d="M 132.695312 215.796875 L 132.382812 214.691406 L 125.382812 217.445312 L 116.257812 249.734375 L 123.957031 246.703125 Z M 132.695312 215.796875 " fill-opacity="1" fill-rule="nonzero"></path><path fill="#737489" d="M 52.011719 234.601562 L 51.695312 231.863281 L 33.421875 230.71875 C 33.160156 227.453125 32.976562 224.070312 32.886719 220.625 L 50.894531 217.105469 L 50.914062 214.417969 C 50.949219 207.929688 51.375 201.417969 52.171875 195.066406 L 52.507812 192.398438 L 35.097656 186.570312 C 35.621094 183.238281 36.25 179.90625 36.96875 176.601562 L 55.25 177.855469 L 55.925781 175.199219 C 57.492188 169.03125 59.460938 162.871094 61.773438 156.878906 L 62.726562 154.398438 L 47.269531 144.257812 C 47.742188 143.148438 48.292969 142.058594 48.792969 140.953125 L 42.625 138.523438 C 41.769531 140.4375 40.914062 142.351562 40.132812 144.277344 L 39.109375 146.777344 L 54.6875 157 C 53.003906 161.578125 51.515625 166.242188 50.242188 170.917969 L 31.816406 169.652344 L 31.179688 172.375 C 29.9375 177.640625 28.929688 183.011719 28.164062 188.347656 L 27.785156 191.0625 L 45.320312 196.929688 C 44.792969 201.800781 44.472656 206.738281 44.363281 211.679688 L 26.210938 215.21875 L 26.246094 217.964844 C 26.320312 223.554688 26.613281 229 27.113281 234.144531 L 27.386719 236.929688 L 45.804688 238.085938 C 46.097656 240.332031 46.457031 242.582031 46.84375 244.828125 L 53.140625 242.347656 C 52.714844 239.765625 52.304688 237.179688 52.011719 234.601562 Z M 52.011719 234.601562 " fill-opacity="1" fill-rule="nonzero"></path><path fill="#737489" d="M 115.128906 253.714844 L 107.761719 279.769531 C 103.90625 273.617188 100.710938 267.132812 98.058594 260.433594 L 91.894531 262.863281 C 95.449219 271.835938 100.050781 280.402344 105.648438 288.425781 L 112.984375 285.519531 L 122.832031 250.679688 Z M 115.128906 253.714844 " fill-opacity="1" fill-rule="nonzero"></path><path fill="#737489" d="M 373.402344 237.261719 L 358.957031 231.574219 L 354.347656 231.863281 L 354.035156 234.601562 C 353.289062 241.109375 352.144531 247.566406 350.636719 253.792969 L 350.097656 256.015625 L 373.238281 265.125 C 373.386719 264.566406 373.558594 264.035156 373.707031 263.476562 L 374.382812 260.863281 L 357.640625 252.753906 C 358.71875 247.953125 359.589844 243.039062 360.238281 238.085938 Z M 373.402344 237.261719 " fill-opacity="1" fill-rule="nonzero"></path><path fill="#737489" d="M 50.273438 272.378906 L 42.34375 273.957031 C 41.292969 270.824219 40.3125 267.632812 39.421875 264.414062 L 50.273438 259.160156 L 50.273438 247.011719 L 47.476562 248.113281 C 47.773438 249.664062 48.058594 251.210938 48.402344 252.753906 L 31.671875 260.859375 L 32.347656 263.46875 C 33.707031 268.679688 35.292969 273.851562 37.070312 278.847656 L 37.710938 280.652344 L 50.273438 275.710938 Z M 50.273438 272.378906 " fill-opacity="1" fill-rule="nonzero"></path><path fill="#737489" d="M 51.5 135.082031 L 68.929688 140.996094 L 70.25 138.546875 C 73.261719 132.957031 76.621094 127.535156 80.238281 122.421875 L 80.550781 121.980469 L 71.011719 118.226562 L 73.351562 120.796875 C 70.667969 124.71875 68.140625 128.800781 65.792969 132.984375 L 48.226562 127.023438 L 46.921875 129.539062 C 45.90625 131.511719 44.945312 133.519531 44 135.527344 L 50.171875 137.957031 C 50.625 137.003906 51.027344 136.03125 51.5 135.082031 Z M 51.5 135.082031 " fill-opacity="1" fill-rule="nonzero"></path><path fill="#737489" d="M 335.8125 138.554688 L 337.136719 140.996094 L 354.550781 135.085938 C 356.03125 138.074219 357.441406 141.144531 358.769531 144.261719 L 343.308594 154.398438 L 344.257812 156.875 C 344.605469 157.78125 344.886719 158.695312 345.21875 159.605469 L 351.398438 157.171875 C 351.378906 157.113281 351.363281 157.058594 351.339844 157.003906 L 366.941406 146.777344 L 365.914062 144.265625 C 363.847656 139.222656 361.566406 134.269531 359.125 129.542969 L 357.828125 127.019531 L 340.253906 132.984375 C 340.238281 132.953125 340.210938 132.917969 340.195312 132.886719 L 333.945312 135.34375 C 334.5625 136.417969 335.21875 137.460938 335.8125 138.554688 Z M 335.8125 138.554688 " fill-opacity="1" fill-rule="nonzero"></path><path fill="#737489" d="M 215.074219 139.164062 L 279.332031 119.652344 L 274.234375 115.757812 C 253.496094 99.914062 228.871094 91.535156 203.023438 91.535156 C 180.671875 91.535156 159.238281 97.828125 140.417969 109.777344 L 148.089844 112.796875 C 164.824219 103.15625 183.5625 98.113281 203.023438 98.113281 C 225.238281 98.113281 246.5 104.679688 264.914062 117.15625 L 205.214844 135.285156 Z M 215.074219 139.164062 " fill-opacity="1" fill-rule="nonzero"></path><path fill="#737489" d="M 203.023438 295.640625 L 264.914062 314.4375 C 246.503906 326.921875 225.238281 333.492188 203.023438 333.492188 C 180.808594 333.492188 159.535156 326.921875 141.113281 314.4375 Z M 131.792969 315.828125 C 152.550781 331.6875 177.179688 340.070312 203.023438 340.070312 C 228.875 340.070312 253.5 331.6875 274.234375 315.828125 L 279.328125 311.933594 L 203.023438 288.765625 L 145.28125 306.292969 L 128.140625 313.039062 Z M 131.792969 315.828125 " fill-opacity="1" fill-rule="nonzero"></path><path fill="#737489" d="M 361.683594 211.679688 C 361.589844 207.824219 361.335938 203.972656 360.992188 200.144531 L 354.089844 197.425781 C 354.707031 203.046875 355.09375 208.742188 355.136719 214.421875 L 355.15625 217.109375 L 360.304688 218.113281 L 371.6875 213.632812 Z M 361.683594 211.679688 " fill-opacity="1" fill-rule="nonzero"></path><path fill="#737489" d="M 350.105469 175.199219 L 350.78125 177.855469 L 369.070312 176.601562 C 369.789062 179.914062 370.421875 183.25 370.949219 186.570312 L 353.539062 192.398438 L 353.707031 193.738281 L 361.3125 196.734375 L 378.269531 191.0625 L 377.875 188.347656 C 377.117188 183.03125 376.105469 177.65625 374.859375 172.375 L 374.21875 169.652344 L 355.789062 170.917969 C 354.824219 167.378906 353.691406 163.828125 352.46875 160.285156 L 346.3125 162.710938 C 347.738281 166.878906 349.054688 171.050781 350.105469 175.199219 Z M 350.105469 175.199219 " fill-opacity="1" fill-rule="nonzero"></path><path fill="#737489" d="M 311.289062 180.578125 C 314.269531 190.441406 315.957031 200.730469 316.335938 211.261719 L 323.007812 213.886719 C 322.859375 203.53125 321.472656 193.386719 318.945312 183.59375 Z M 311.289062 180.578125 " fill-opacity="1" fill-rule="nonzero"></path><path fill="#737489" d="M 366.175781 265.878906 C 365.390625 268.632812 364.582031 271.359375 363.699219 273.960938 L 345.738281 270.378906 L 344.753906 272.992188 C 342.464844 279.066406 339.78125 285.054688 336.78125 290.792969 L 335.5625 293.117188 L 349.679688 305.179688 C 348.046875 308.046875 346.34375 310.851562 344.589844 313.574219 L 328.058594 305.460938 L 326.4375 307.777344 C 322.726562 313.109375 318.675781 318.230469 314.386719 323.003906 L 312.632812 324.945312 L 323.414062 340.316406 C 321.148438 342.675781 318.855469 344.933594 316.5625 347.0625 L 302.492188 334.953125 L 300.339844 336.808594 C 295.566406 340.9375 290.382812 344.871094 284.945312 348.5 L 282.75 349.957031 L 289.519531 367.589844 C 286.867188 369.214844 284.128906 370.785156 281.335938 372.292969 L 270.628906 356.941406 L 268.09375 358.183594 C 262.332031 361.011719 256.339844 363.476562 250.289062 365.527344 L 247.75 366.386719 L 250.085938 385.214844 C 247.148438 386.082031 244.136719 386.886719 241.09375 387.613281 L 234.394531 369.964844 L 231.667969 370.503906 C 225.460938 371.730469 219.066406 372.566406 212.648438 372.992188 L 209.921875 373.171875 L 207.664062 391.933594 C 204.9375 391.96875 201.101562 391.96875 198.375 391.933594 L 196.117188 373.171875 L 193.390625 372.992188 C 186.976562 372.566406 180.582031 371.730469 174.378906 370.503906 L 171.652344 369.964844 L 164.945312 387.613281 C 161.914062 386.890625 158.910156 386.085938 155.960938 385.210938 L 158.28125 366.386719 L 155.742188 365.527344 C 149.703125 363.476562 143.71875 361.011719 137.949219 358.183594 L 135.417969 356.945312 L 124.695312 372.28125 C 121.894531 370.777344 119.15625 369.207031 116.519531 367.59375 L 123.289062 349.957031 L 121.097656 348.496094 C 115.726562 344.921875 110.542969 340.988281 105.6875 336.804688 L 103.539062 334.953125 L 89.472656 347.0625 C 87.210938 344.957031 84.945312 342.726562 82.621094 340.316406 L 91.707031 327.378906 L 80.585938 331.757812 L 74.148438 340.925781 L 75.976562 342.875 C 79.820312 346.976562 83.496094 350.585938 87.210938 353.90625 L 89.363281 355.835938 L 103.554688 343.621094 C 107.304688 346.742188 111.222656 349.710938 115.265625 352.492188 L 108.433594 370.269531 L 110.703125 371.714844 C 114.980469 374.445312 119.53125 377.054688 124.222656 379.464844 L 126.78125 380.785156 L 137.601562 365.316406 C 142.011719 367.378906 146.53125 369.238281 151.089844 370.875 L 148.75 389.867188 L 151.363281 390.6875 C 156.21875 392.214844 161.242188 393.554688 166.292969 394.679688 L 169.070312 395.292969 L 175.84375 377.476562 C 180.570312 378.320312 185.386719 378.949219 190.230469 379.351562 L 192.515625 398.296875 L 195.285156 398.4375 C 196.582031 398.503906 199.804688 398.535156 203.023438 398.535156 C 206.238281 398.535156 209.457031 398.503906 210.753906 398.4375 L 213.53125 398.296875 L 215.8125 379.351562 C 220.652344 378.949219 225.472656 378.320312 230.203125 377.476562 L 236.960938 395.296875 L 239.746094 394.679688 C 244.839844 393.546875 249.867188 392.203125 254.6875 390.6875 L 257.300781 389.867188 L 254.945312 370.875 C 259.515625 369.238281 264.03125 367.378906 268.441406 365.316406 L 279.242188 380.804688 L 281.808594 379.480469 C 286.484375 377.066406 291.035156 374.453125 295.335938 371.714844 L 297.605469 370.269531 L 290.777344 352.492188 C 294.851562 349.6875 298.769531 346.714844 302.476562 343.625 L 316.667969 355.835938 L 318.824219 353.90625 C 322.585938 350.542969 326.367188 346.828125 330.0625 342.871094 L 331.875 340.921875 L 321.023438 325.433594 C 324.238281 321.738281 327.3125 317.855469 330.207031 313.847656 L 346.875 322.027344 L 348.476562 319.636719 C 351.382812 315.300781 354.171875 310.722656 356.753906 306.019531 L 358.046875 303.675781 L 343.808594 291.503906 C 346.035156 287.085938 348.078125 282.53125 349.910156 277.921875 L 368.015625 281.53125 L 368.972656 278.855469 C 370.175781 275.492188 371.28125 271.929688 372.332031 268.300781 Z M 366.175781 265.878906 " fill-opacity="1" fill-rule="nonzero"></path><path fill="#737489" d="M 379.792969 217.960938 L 379.820312 215.21875 L 377.695312 214.804688 L 366.308594 219.285156 L 373.15625 220.625 C 373.070312 224.027344 372.890625 227.410156 372.621094 230.71875 L 366.707031 231.089844 L 378.753906 235.832031 L 378.921875 234.148438 C 379.4375 228.894531 379.726562 223.445312 379.792969 217.960938 Z M 379.792969 217.960938 " fill-opacity="1" fill-rule="nonzero"></path><path fill="#737489" d="M 314.097656 239.839844 C 313.972656 240.460938 313.863281 241.082031 313.726562 241.699219 L 319.921875 244.136719 C 320.453125 241.777344 320.90625 239.402344 321.300781 237.003906 Z M 314.097656 239.839844 " fill-opacity="1" fill-rule="nonzero"></path><path fill="#737489" d="M 97.476562 92.875 L 104.335938 95.574219 C 104.988281 94.996094 105.625 94.363281 106.285156 93.796875 L 108.296875 92.082031 L 99.445312 75.496094 C 102.03125 73.441406 104.6875 71.453125 107.375 69.554688 L 119.894531 83.414062 L 122.25 81.882812 C 127.425781 78.511719 132.832031 75.441406 138.324219 72.757812 L 140.71875 71.589844 L 136.125 53.21875 C 139.117188 51.902344 142.144531 50.660156 145.191406 49.511719 L 153.988281 66.179688 L 156.636719 65.292969 C 162.375 63.378906 168.328125 61.808594 174.347656 60.625 L 177.011719 60.101562 L 176.972656 41.132812 C 180.1875 40.617188 183.417969 40.199219 186.625 39.875 L 191.152344 58.289062 L 193.902344 58.109375 C 196.894531 57.914062 209.160156 57.914062 212.140625 58.109375 L 214.890625 58.289062 L 219.414062 39.875 C 222.625 40.199219 225.855469 40.617188 229.074219 41.132812 L 229.042969 60.097656 L 231.707031 60.625 C 237.765625 61.824219 243.722656 63.394531 249.40625 65.292969 L 252.058594 66.179688 L 260.851562 49.511719 C 263.90625 50.664062 266.945312 51.90625 269.917969 53.21875 L 265.316406 71.589844 L 267.714844 72.757812 C 273.132812 75.402344 278.542969 78.472656 283.804688 81.886719 L 286.160156 83.414062 L 298.671875 69.558594 C 301.371094 71.464844 304.023438 73.449219 306.589844 75.492188 L 297.757812 92.082031 L 299.765625 93.796875 C 304.34375 97.710938 308.867188 102.089844 313.21875 106.804688 L 315.117188 108.867188 L 330.550781 98.664062 C 332.660156 101.136719 334.734375 103.71875 336.828125 106.472656 L 324.273438 120.265625 L 325.800781 122.421875 C 328.066406 125.632812 330.207031 129.015625 332.277344 132.464844 L 338.429688 130.042969 C 336.574219 126.902344 334.714844 123.761719 332.6875 120.800781 L 345.355469 106.890625 L 343.742188 104.714844 C 340.363281 100.148438 337.050781 96.039062 333.617188 92.152344 L 331.722656 90.003906 L 316.140625 100.296875 C 312.847656 96.839844 309.460938 93.566406 306.039062 90.539062 L 314.941406 73.816406 L 312.863281 72.105469 C 308.769531 68.734375 304.449219 65.5 300.019531 62.484375 L 297.648438 60.867188 L 285.015625 74.855469 C 281.066406 72.386719 277.039062 70.101562 272.996094 68.039062 L 277.640625 49.507812 L 275.160156 48.367188 C 270.359375 46.152344 265.390625 44.125 260.390625 42.332031 L 257.699219 41.367188 L 248.824219 58.191406 C 244.542969 56.847656 240.125 55.6875 235.644531 54.71875 L 235.675781 35.589844 L 232.945312 35.105469 C 227.695312 34.183594 222.390625 33.496094 217.164062 33.058594 L 214.363281 32.828125 L 209.792969 51.445312 C 206.007812 51.363281 200.03125 51.363281 196.25 51.445312 L 191.675781 32.828125 L 188.878906 33.058594 C 183.644531 33.496094 178.335938 34.1875 173.101562 35.105469 L 170.375 35.589844 L 170.410156 54.714844 C 165.953125 55.679688 161.535156 56.84375 157.21875 58.191406 L 148.339844 41.371094 L 145.648438 42.332031 C 140.675781 44.113281 135.710938 46.140625 130.886719 48.367188 L 128.414062 49.507812 L 133.042969 68.039062 C 128.960938 70.121094 124.9375 72.402344 121.027344 74.855469 L 108.402344 60.867188 L 106.027344 62.484375 C 101.628906 65.476562 97.300781 68.714844 93.171875 72.105469 L 91.089844 73.8125 L 100.003906 90.539062 C 99.152344 91.289062 98.320312 92.097656 97.476562 92.875 Z M 97.476562 92.875 " fill-opacity="1" fill-rule="nonzero"></path><path fill="#737489" d="M 281.09375 188.382812 L 278.800781 196.484375 L 284.960938 198.910156 L 288.796875 185.351562 Z M 281.09375 188.382812 " fill-opacity="1" fill-rule="nonzero"></path><path fill="#737489" d="M 299.734375 289.441406 C 308.835938 276.644531 315.316406 262.410156 319.121094 247.359375 L 312.929688 244.921875 C 309.914062 257.230469 305.042969 268.976562 298.28125 279.769531 L 289.699219 249.445312 L 283.542969 251.867188 L 295.75 295.039062 Z M 299.734375 289.441406 " fill-opacity="1" fill-rule="nonzero"></path><path fill="#737489" d="M 282.222656 184.40625 L 289.921875 181.371094 L 292.265625 173.089844 L 286.105469 170.664062 Z M 282.222656 184.40625 " fill-opacity="1" fill-rule="nonzero"></path><path fill="#737489" d="M 295.75 136.566406 L 292.480469 148.132812 L 301.355469 144.640625 C 300.800781 143.820312 300.304688 142.96875 299.734375 142.164062 Z M 295.75 136.566406 " fill-opacity="1" fill-rule="nonzero"></path><path fill="#737489" d="M 49.28125 306.023438 C 49.597656 306.605469 49.949219 307.160156 50.273438 307.738281 L 50.273438 301.726562 L 47.988281 303.675781 Z M 49.28125 306.023438 " fill-opacity="1" fill-rule="nonzero"></path><path fill="#ffffff" d="M 50.273438 74.121094 L 50.273438 109.921875 L 82.679688 122.621094 L 82.679688 266.515625 L 116.738281 253.109375 L 116.699219 136.109375 L 224.21875 178.433594 L 224.21875 142.59375 Z M 50.273438 74.121094 " fill-opacity="1" fill-rule="nonzero"></path><path fill="#d19f66" d="M 116.589844 69.9375 L 116.589844 28.730469 C 116.589844 27.820312 115.855469 27.082031 114.945312 27.082031 C 114.03125 27.082031 113.300781 27.820312 113.300781 28.730469 L 113.300781 66.292969 Z M 116.589844 69.9375 " fill-opacity="1" fill-rule="nonzero"></path><path fill="#737489" d="M 317.855469 179.625 C 317.355469 177.917969 316.820312 176.226562 316.246094 174.546875 L 310.597656 176.769531 Z M 317.855469 179.625 " fill-opacity="1" fill-rule="nonzero"></path><path fill="#737489" d="M 287.007812 167.484375 L 293.167969 169.90625 L 298.28125 151.828125 C 302.652344 158.800781 306.246094 166.175781 309.066406 173.835938 L 315.132812 171.445312 C 312.035156 163.074219 308.046875 155.039062 303.195312 147.449219 L 291.355469 152.109375 Z M 287.007812 167.484375 " fill-opacity="1" fill-rule="nonzero"></path><path fill="#737489" d="M 132.695312 215.796875 L 132.382812 214.691406 L 125.382812 217.445312 L 116.257812 249.734375 L 123.957031 246.703125 Z M 132.695312 215.796875 " fill-opacity="1" fill-rule="nonzero"></path><path fill="#737489" d="M 52.011719 234.601562 L 51.695312 231.863281 L 33.421875 230.71875 C 33.160156 227.453125 32.976562 224.070312 32.886719 220.625 L 50.894531 217.105469 L 50.914062 214.417969 C 50.949219 207.929688 51.375 201.417969 52.171875 195.066406 L 52.507812 192.398438 L 35.097656 186.570312 C 35.621094 183.238281 36.25 179.90625 36.96875 176.601562 L 55.25 177.855469 L 55.925781 175.199219 C 57.492188 169.03125 59.460938 162.871094 61.773438 156.878906 L 62.726562 154.398438 L 47.269531 144.257812 C 47.742188 143.148438 48.292969 142.058594 48.792969 140.953125 L 42.625 138.523438 C 41.769531 140.4375 40.914062 142.351562 40.132812 144.277344 L 39.109375 146.777344 L 54.6875 157 C 53.003906 161.578125 51.515625 166.242188 50.242188 170.917969 L 31.816406 169.652344 L 31.179688 172.375 C 29.9375 177.640625 28.929688 183.011719 28.164062 188.347656 L 27.785156 191.0625 L 45.320312 196.929688 C 44.792969 201.800781 44.472656 206.738281 44.363281 211.679688 L 26.210938 215.21875 L 26.246094 217.964844 C 26.320312 223.554688 26.613281 229 27.113281 234.144531 L 27.386719 236.929688 L 45.804688 238.085938 C 46.097656 240.332031 46.457031 242.582031 46.84375 244.828125 L 53.140625 242.347656 C 52.714844 239.765625 52.304688 237.179688 52.011719 234.601562 Z M 52.011719 234.601562 " fill-opacity="1" fill-rule="nonzero"></path><path fill="#737489" d="M 115.128906 253.714844 L 107.761719 279.769531 C 103.90625 273.617188 100.710938 267.132812 98.058594 260.433594 L 91.894531 262.863281 C 95.449219 271.835938 100.050781 280.402344 105.648438 288.425781 L 112.984375 285.519531 L 122.832031 250.679688 Z M 115.128906 253.714844 " fill-opacity="1" fill-rule="nonzero"></path><path fill="#737489" d="M 373.402344 237.261719 L 358.957031 231.574219 L 354.347656 231.863281 L 354.035156 234.601562 C 353.289062 241.109375 352.144531 247.566406 350.636719 253.792969 L 350.097656 256.015625 L 373.238281 265.125 C 373.386719 264.566406 373.558594 264.035156 373.707031 263.476562 L 374.382812 260.863281 L 357.640625 252.753906 C 358.71875 247.953125 359.589844 243.039062 360.238281 238.085938 Z M 373.402344 237.261719 " fill-opacity="1" fill-rule="nonzero"></path><path fill="#737489" d="M 50.273438 272.378906 L 42.34375 273.957031 C 41.292969 270.824219 40.3125 267.632812 39.421875 264.414062 L 50.273438 259.160156 L 50.273438 247.011719 L 47.476562 248.113281 C 47.773438 249.664062 48.058594 251.210938 48.402344 252.753906 L 31.671875 260.859375 L 32.347656 263.46875 C 33.707031 268.679688 35.292969 273.851562 37.070312 278.847656 L 37.710938 280.652344 L 50.273438 275.710938 Z M 50.273438 272.378906 " fill-opacity="1" fill-rule="nonzero"></path><path fill="#737489" d="M 51.5 135.082031 L 68.929688 140.996094 L 70.25 138.546875 C 73.261719 132.957031 76.621094 127.535156 80.238281 122.421875 L 80.550781 121.980469 L 71.011719 118.226562 L 73.351562 120.796875 C 70.667969 124.71875 68.140625 128.800781 65.792969 132.984375 L 48.226562 127.023438 L 46.921875 129.539062 C 45.90625 131.511719 44.945312 133.519531 44 135.527344 L 50.171875 137.957031 C 50.625 137.003906 51.027344 136.03125 51.5 135.082031 Z M 51.5 135.082031 " fill-opacity="1" fill-rule="nonzero"></path><path fill="#737489" d="M 335.8125 138.554688 L 337.136719 140.996094 L 354.550781 135.085938 C 356.03125 138.074219 357.441406 141.144531 358.769531 144.261719 L 343.308594 154.398438 L 344.257812 156.875 C 344.605469 157.78125 344.886719 158.695312 345.21875 159.605469 L 351.398438 157.171875 C 351.378906 157.113281 351.363281 157.058594 351.339844 157.003906 L 366.941406 146.777344 L 365.914062 144.265625 C 363.847656 139.222656 361.566406 134.269531 359.125 129.542969 L 357.828125 127.019531 L 340.253906 132.984375 C 340.238281 132.953125 340.210938 132.917969 340.195312 132.886719 L 333.945312 135.34375 C 334.5625 136.417969 335.21875 137.460938 335.8125 138.554688 Z M 335.8125 138.554688 " fill-opacity="1" fill-rule="nonzero"></path><path fill="#737489" d="M 215.074219 139.164062 L 279.332031 119.652344 L 274.234375 115.757812 C 253.496094 99.914062 228.871094 91.535156 203.023438 91.535156 C 180.671875 91.535156 159.238281 97.828125 140.417969 109.777344 L 148.089844 112.796875 C 164.824219 103.15625 183.5625 98.113281 203.023438 98.113281 C 225.238281 98.113281 246.5 104.679688 264.914062 117.15625 L 205.214844 135.285156 Z M 215.074219 139.164062 " fill-opacity="1" fill-rule="nonzero"></path><path fill="#737489" d="M 203.023438 295.640625 L 264.914062 314.4375 C 246.503906 326.921875 225.238281 333.492188 203.023438 333.492188 C 180.808594 333.492188 159.535156 326.921875 141.113281 314.4375 Z M 131.792969 315.828125 C 152.550781 331.6875 177.179688 340.070312 203.023438 340.070312 C 228.875 340.070312 253.5 331.6875 274.234375 315.828125 L 279.328125 311.933594 L 203.023438 288.765625 L 145.28125 306.292969 L 128.140625 313.039062 Z M 131.792969 315.828125 " fill-opacity="1" fill-rule="nonzero"></path><path fill="#737489" d="M 361.683594 211.679688 C 361.589844 207.824219 361.335938 203.972656 360.992188 200.144531 L 354.089844 197.425781 C 354.707031 203.046875 355.09375 208.742188 355.136719 214.421875 L 355.15625 217.109375 L 360.304688 218.113281 L 371.6875 213.632812 Z M 361.683594 211.679688 " fill-opacity="1" fill-rule="nonzero"></path><path fill="#737489" d="M 350.105469 175.199219 L 350.78125 177.855469 L 369.070312 176.601562 C 369.789062 179.914062 370.421875 183.25 370.949219 186.570312 L 353.539062 192.398438 L 353.707031 193.738281 L 361.3125 196.734375 L 378.269531 191.0625 L 377.875 188.347656 C 377.117188 183.03125 376.105469 177.65625 374.859375 172.375 L 374.21875 169.652344 L 355.789062 170.917969 C 354.824219 167.378906 353.691406 163.828125 352.46875 160.285156 L 346.3125 162.710938 C 347.738281 166.878906 349.054688 171.050781 350.105469 175.199219 Z M 350.105469 175.199219 " fill-opacity="1" fill-rule="nonzero"></path><path fill="#737489" d="M 311.289062 180.578125 C 314.269531 190.441406 315.957031 200.730469 316.335938 211.261719 L 323.007812 213.886719 C 322.859375 203.53125 321.472656 193.386719 318.945312 183.59375 Z M 311.289062 180.578125 " fill-opacity="1" fill-rule="nonzero"></path><path fill="#737489" d="M 366.175781 265.878906 C 365.390625 268.632812 364.582031 271.359375 363.699219 273.960938 L 345.738281 270.378906 L 344.753906 272.992188 C 342.464844 279.066406 339.78125 285.054688 336.78125 290.792969 L 335.5625 293.117188 L 349.679688 305.179688 C 348.046875 308.046875 346.34375 310.851562 344.589844 313.574219 L 328.058594 305.460938 L 326.4375 307.777344 C 322.726562 313.109375 318.675781 318.230469 314.386719 323.003906 L 312.632812 324.945312 L 323.414062 340.316406 C 321.148438 342.675781 318.855469 344.933594 316.5625 347.0625 L 302.492188 334.953125 L 300.339844 336.808594 C 295.566406 340.9375 290.382812 344.871094 284.945312 348.5 L 282.75 349.957031 L 289.519531 367.589844 C 286.867188 369.214844 284.128906 370.785156 281.335938 372.292969 L 270.628906 356.941406 L 268.09375 358.183594 C 262.332031 361.011719 256.339844 363.476562 250.289062 365.527344 L 247.75 366.386719 L 250.085938 385.214844 C 247.148438 386.082031 244.136719 386.886719 241.09375 387.613281 L 234.394531 369.964844 L 231.667969 370.503906 C 225.460938 371.730469 219.066406 372.566406 212.648438 372.992188 L 209.921875 373.171875 L 207.664062 391.933594 C 204.9375 391.96875 201.101562 391.96875 198.375 391.933594 L 196.117188 373.171875 L 193.390625 372.992188 C 186.976562 372.566406 180.582031 371.730469 174.378906 370.503906 L 171.652344 369.964844 L 164.945312 387.613281 C 161.914062 386.890625 158.910156 386.085938 155.960938 385.210938 L 158.28125 366.386719 L 155.742188 365.527344 C 149.703125 363.476562 143.71875 361.011719 137.949219 358.183594 L 135.417969 356.945312 L 124.695312 372.28125 C 121.894531 370.777344 119.15625 369.207031 116.519531 367.59375 L 123.289062 349.957031 L 121.097656 348.496094 C 115.726562 344.921875 110.542969 340.988281 105.6875 336.804688 L 103.539062 334.953125 L 89.472656 347.0625 C 87.210938 344.957031 84.945312 342.726562 82.621094 340.316406 L 91.707031 327.378906 L 80.585938 331.757812 L 74.148438 340.925781 L 75.976562 342.875 C 79.820312 346.976562 83.496094 350.585938 87.210938 353.90625 L 89.363281 355.835938 L 103.554688 343.621094 C 107.304688 346.742188 111.222656 349.710938 115.265625 352.492188 L 108.433594 370.269531 L 110.703125 371.714844 C 114.980469 374.445312 119.53125 377.054688 124.222656 379.464844 L 126.78125 380.785156 L 137.601562 365.316406 C 142.011719 367.378906 146.53125 369.238281 151.089844 370.875 L 148.75 389.867188 L 151.363281 390.6875 C 156.21875 392.214844 161.242188 393.554688 166.292969 394.679688 L 169.070312 395.292969 L 175.84375 377.476562 C 180.570312 378.320312 185.386719 378.949219 190.230469 379.351562 L 192.515625 398.296875 L 195.285156 398.4375 C 196.582031 398.503906 199.804688 398.535156 203.023438 398.535156 C 206.238281 398.535156 209.457031 398.503906 210.753906 398.4375 L 213.53125 398.296875 L 215.8125 379.351562 C 220.652344 378.949219 225.472656 378.320312 230.203125 377.476562 L 236.960938 395.296875 L 239.746094 394.679688 C 244.839844 393.546875 249.867188 392.203125 254.6875 390.6875 L 257.300781 389.867188 L 254.945312 370.875 C 259.515625 369.238281 264.03125 367.378906 268.441406 365.316406 L 279.242188 380.804688 L 281.808594 379.480469 C 286.484375 377.066406 291.035156 374.453125 295.335938 371.714844 L 297.605469 370.269531 L 290.777344 352.492188 C 294.851562 349.6875 298.769531 346.714844 302.476562 343.625 L 316.667969 355.835938 L 318.824219 353.90625 C 322.585938 350.542969 326.367188 346.828125 330.0625 342.871094 L 331.875 340.921875 L 321.023438 325.433594 C 324.238281 321.738281 327.3125 317.855469 330.207031 313.847656 L 346.875 322.027344 L 348.476562 319.636719 C 351.382812 315.300781 354.171875 310.722656 356.753906 306.019531 L 358.046875 303.675781 L 343.808594 291.503906 C 346.035156 287.085938 348.078125 282.53125 349.910156 277.921875 L 368.015625 281.53125 L 368.972656 278.855469 C 370.175781 275.492188 371.28125 271.929688 372.332031 268.300781 Z M 366.175781 265.878906 " fill-opacity="1" fill-rule="nonzero"></path><path fill="#737489" d="M 379.792969 217.960938 L 379.820312 215.21875 L 377.695312 214.804688 L 366.308594 219.285156 L 373.15625 220.625 C 373.070312 224.027344 372.890625 227.410156 372.621094 230.71875 L 366.707031 231.089844 L 378.753906 235.832031 L 378.921875 234.148438 C 379.4375 228.894531 379.726562 223.445312 379.792969 217.960938 Z M 379.792969 217.960938 " fill-opacity="1" fill-rule="nonzero"></path><path fill="#737489" d="M 314.097656 239.839844 C 313.972656 240.460938 313.863281 241.082031 313.726562 241.699219 L 319.921875 244.136719 C 320.453125 241.777344 320.90625 239.402344 321.300781 237.003906 Z M 314.097656 239.839844 " fill-opacity="1" fill-rule="nonzero"></path><path fill="#737489" d="M 97.476562 92.875 L 104.335938 95.574219 C 104.988281 94.996094 105.625 94.363281 106.285156 93.796875 L 108.296875 92.082031 L 99.445312 75.496094 C 102.03125 73.441406 104.6875 71.453125 107.375 69.554688 L 119.894531 83.414062 L 122.25 81.882812 C 127.425781 78.511719 132.832031 75.441406 138.324219 72.757812 L 140.71875 71.589844 L 136.125 53.21875 C 139.117188 51.902344 142.144531 50.660156 145.191406 49.511719 L 153.988281 66.179688 L 156.636719 65.292969 C 162.375 63.378906 168.328125 61.808594 174.347656 60.625 L 177.011719 60.101562 L 176.972656 41.132812 C 180.1875 40.617188 183.417969 40.199219 186.625 39.875 L 191.152344 58.289062 L 193.902344 58.109375 C 196.894531 57.914062 209.160156 57.914062 212.140625 58.109375 L 214.890625 58.289062 L 219.414062 39.875 C 222.625 40.199219 225.855469 40.617188 229.074219 41.132812 L 229.042969 60.097656 L 231.707031 60.625 C 237.765625 61.824219 243.722656 63.394531 249.40625 65.292969 L 252.058594 66.179688 L 260.851562 49.511719 C 263.90625 50.664062 266.945312 51.90625 269.917969 53.21875 L 265.316406 71.589844 L 267.714844 72.757812 C 273.132812 75.402344 278.542969 78.472656 283.804688 81.886719 L 286.160156 83.414062 L 298.671875 69.558594 C 301.371094 71.464844 304.023438 73.449219 306.589844 75.492188 L 297.757812 92.082031 L 299.765625 93.796875 C 304.34375 97.710938 308.867188 102.089844 313.21875 106.804688 L 315.117188 108.867188 L 330.550781 98.664062 C 332.660156 101.136719 334.734375 103.71875 336.828125 106.472656 L 324.273438 120.265625 L 325.800781 122.421875 C 328.066406 125.632812 330.207031 129.015625 332.277344 132.464844 L 338.429688 130.042969 C 336.574219 126.902344 334.714844 123.761719 332.6875 120.800781 L 345.355469 106.890625 L 343.742188 104.714844 C 340.363281 100.148438 337.050781 96.039062 333.617188 92.152344 L 331.722656 90.003906 L 316.140625 100.296875 C 312.847656 96.839844 309.460938 93.566406 306.039062 90.539062 L 314.941406 73.816406 L 312.863281 72.105469 C 308.769531 68.734375 304.449219 65.5 300.019531 62.484375 L 297.648438 60.867188 L 285.015625 74.855469 C 281.066406 72.386719 277.039062 70.101562 272.996094 68.039062 L 277.640625 49.507812 L 275.160156 48.367188 C 270.359375 46.152344 265.390625 44.125 260.390625 42.332031 L 257.699219 41.367188 L 248.824219 58.191406 C 244.542969 56.847656 240.125 55.6875 235.644531 54.71875 L 235.675781 35.589844 L 232.945312 35.105469 C 227.695312 34.183594 222.390625 33.496094 217.164062 33.058594 L 214.363281 32.828125 L 209.792969 51.445312 C 206.007812 51.363281 200.03125 51.363281 196.25 51.445312 L 191.675781 32.828125 L 188.878906 33.058594 C 183.644531 33.496094 178.335938 34.1875 173.101562 35.105469 L 170.375 35.589844 L 170.410156 54.714844 C 165.953125 55.679688 161.535156 56.84375 157.21875 58.191406 L 148.339844 41.371094 L 145.648438 42.332031 C 140.675781 44.113281 135.710938 46.140625 130.886719 48.367188 L 128.414062 49.507812 L 133.042969 68.039062 C 128.960938 70.121094 124.9375 72.402344 121.027344 74.855469 L 108.402344 60.867188 L 106.027344 62.484375 C 101.628906 65.476562 97.300781 68.714844 93.171875 72.105469 L 91.089844 73.8125 L 100.003906 90.539062 C 99.152344 91.289062 98.320312 92.097656 97.476562 92.875 Z M 97.476562 92.875 " fill-opacity="1" fill-rule="nonzero"></path><path fill="#737489" d="M 281.09375 188.382812 L 278.800781 196.484375 L 284.960938 198.910156 L 288.796875 185.351562 Z M 281.09375 188.382812 " fill-opacity="1" fill-rule="nonzero"></path><path fill="#737489" d="M 299.734375 289.441406 C 308.835938 276.644531 315.316406 262.410156 319.121094 247.359375 L 312.929688 244.921875 C 309.914062 257.230469 305.042969 268.976562 298.28125 279.769531 L 289.699219 249.445312 L 283.542969 251.867188 L 295.75 295.039062 Z M 299.734375 289.441406 " fill-opacity="1" fill-rule="nonzero"></path><path fill="#737489" d="M 282.222656 184.40625 L 289.921875 181.371094 L 292.265625 173.089844 L 286.105469 170.664062 Z M 282.222656 184.40625 " fill-opacity="1" fill-rule="nonzero"></path><path fill="#737489" d="M 295.75 136.566406 L 292.480469 148.132812 L 301.355469 144.640625 C 300.800781 143.820312 300.304688 142.96875 299.734375 142.164062 Z M 295.75 136.566406 " fill-opacity="1" fill-rule="nonzero"></path><path fill="#737489" d="M 49.28125 306.023438 C 49.597656 306.605469 49.949219 307.160156 50.273438 307.738281 L 50.273438 301.726562 L 47.988281 303.675781 Z M 49.28125 306.023438 " fill-opacity="1" fill-rule="nonzero"></path><path fill="#d19f66" d="M 81.039062 348.066406 L 81.039062 384.21875 C 81.039062 385.125 81.769531 385.863281 82.679688 385.863281 C 83.589844 385.863281 84.324219 385.125 84.324219 384.21875 L 84.324219 351.199219 C 83.234375 350.175781 82.136719 349.15625 81.039062 348.066406 Z M 81.039062 348.066406 " fill-opacity="1" fill-rule="nonzero"></path><g clip-path="url(#525b948ebc)"><path fill="#d19f66" d="M 113.300781 373.285156 L 113.300781 402.925781 C 113.300781 403.835938 114.03125 404.570312 114.945312 404.570312 C 115.855469 404.570312 116.589844 403.835938 116.589844 402.925781 L 116.589844 375.273438 C 115.46875 374.625 114.390625 373.953125 113.300781 373.285156 Z M 113.300781 373.285156 " fill-opacity="1" fill-rule="nonzero"></path></g><path fill="#d19f66" d="M 84.324219 87.527344 L 84.324219 47.4375 C 84.324219 46.527344 83.589844 45.792969 82.679688 45.792969 C 81.769531 45.792969 81.039062 46.527344 81.039062 47.4375 L 81.039062 86.230469 Z M 84.324219 87.527344 " fill-opacity="1" fill-rule="nonzero"></path></svg>